<?xml version="1.0" encoding="utf-8"?>
<!-- Generator: Adobe Illustrator 27.5.0, SVG Export Plug-In . SVG Version: 6.00 Build 0)  -->
<svg version="1.1" id="Layer_1" xmlns="http://www.w3.org/2000/svg" xmlns:xlink="http://www.w3.org/1999/xlink" x="0px" y="0px"
	 viewBox="0 0 5000 5000" style="enable-background:new 0 0 5000 5000;" xml:space="preserve">
<rect style="fill:#4395B6;" width="5000" height="5000"/>
<g>
	<g>
		<path style="fill:#FFFFFF;" d="M4589,2793.781c0-125.182-100.929-226.075-226.107-226.075H735.014
			C609.835,2567.706,508,2668.6,508,2793.781v970.355h4081V2793.781z"/>
		<g>
			<path style="fill:#EAEAEA;" d="M508,3764.137v100.804c0,96.684,38.612,196.286,130.866,257.417
				c42.117,22.557,105.444,42.707,196.973,42.707c6.958,0,13.687,0.249,20.042,0.249h3386.143c6.356,0,12.998-0.249,19.956-0.249
				c91.529,0,154.493-20.154,196.609-42.709C4550.842,4061.222,4589,3961.624,4589,3864.94v-100.804H508z"/>
		</g>
		<g>
			<path style="fill:#CFCFCE;" d="M4496.959,3598.227c0-44.531-36.262-80.832-80.795-80.832H680.89
				c-44.536,0-80.795,36.301-80.795,80.832l8.911,165.91h3879.043L4496.959,3598.227z"/>
			<path style="fill:#BCBBBB;" d="M667.071,4070.796c14.983,8.026,37.479,15.759,70.045,15.759c2.473,0,4.837,0.654,7.098,0.654
				H4352.84c2.261,0,4.623-0.654,7.099-0.654c32.563,0,55.06-7.463,70.046-15.488c32.817-21.749,46.492-57.201,46.492-91.6
				l11.572-215.33H609.006l11.569,215.195C620.575,4013.731,634.252,4049.047,667.071,4070.796z"/>
		</g>
		<g>
			<path style="fill:#898888;" d="M4461.191,3822.716c0,8.823-7.152,15.976-15.977,15.976H648.234
				c-8.823,0-15.976-7.152-15.976-15.976l0,0c0-8.823,7.152-15.977,15.976-15.977h3796.98
				C4454.039,3806.739,4461.191,3813.893,4461.191,3822.716L4461.191,3822.716z"/>
			<path style="fill:#898888;" d="M4438.115,3891.945c0,8.823-7.152,15.977-15.977,15.977H676.637
				c-8.824,0-15.977-7.153-15.977-15.977l0,0c0-8.824,7.152-15.977,15.977-15.977h3745.502
				C4430.963,3875.969,4438.115,3883.121,4438.115,3891.945L4438.115,3891.945z"/>
			<path style="fill:#898888;" d="M4422.139,3959.4c0,8.823-7.152,15.976-15.976,15.976H690.837
				c-8.824,0-15.976-7.152-15.976-15.976l0,0c0-8.824,7.152-15.977,15.976-15.977h3715.326
				C4414.986,3943.424,4422.139,3950.576,4422.139,3959.4L4422.139,3959.4z"/>
			<path style="fill:#898888;" d="M4411.488,4026.854c0,8.823-7.152,15.976-15.977,15.976H701.488
				c-8.824,0-15.977-7.152-15.977-15.976l0,0c0-8.823,7.153-15.976,15.977-15.976h3694.023
				C4404.336,4010.879,4411.488,4018.031,4411.488,4026.854L4411.488,4026.854z"/>
		</g>
		<path style="fill:#CFCFCE;" d="M3103.225,3396.688c0,25.489-20.663,46.152-46.152,46.152H2039.928
			c-25.49,0-46.153-20.663-46.153-46.152l0,0c0-25.49,20.663-46.154,46.153-46.154h1017.144
			C3082.562,3350.533,3103.225,3371.197,3103.225,3396.688L3103.225,3396.688z"/>
		<g>
			<path style="fill:#7BB2C1;" d="M4406.208,2984.971l-24.229-13.467l18.012-5.433c2.031-0.604,3.188-2.758,2.592-4.809
				c-0.473-1.621-1.945-2.751-3.578-2.751c-0.354,0-0.704,0.052-1.047,0.156l-25.355,7.663l-15.816-8.77l29.778-8.693
				c2.027-0.604,3.259-2.78,2.686-4.75c-0.507-1.64-1.978-2.76-3.653-2.76c-0.37,0-0.741,0.052-1.107,0.159l-37.139,10.811
				l-57.506-32.025l40.332-4.417c2.062-0.224,3.6-2.125,3.438-4.245c-0.257-2.086-2.101-3.607-4.184-3.395l-45.836,5.007
				l55.71-36.968l34.197,9.218c0.416,0.104,0.901,0.142,1.18,0.142c1.687-0.045,3.129-1.18,3.535-2.827l0.02-0.069
				c0.288-1,0.166-2.042-0.338-2.934c-0.494-0.873-1.29-1.494-2.244-1.748l-27.762-7.505l14.898-9.88l24.139,6.322
				c0.336,0.068,0.695,0.136,0.995,0.104l0.179-0.009c1.645-0.02,3.112-1.217,3.563-2.918c0.272-0.982,0.141-1.993-0.361-2.857
				c-0.513-0.879-1.348-1.504-2.347-1.76l-17.561-4.618l23.52-15.556c1.736-1.166,2.242-3.608,1.094-5.324l-0.045-0.066
				c-0.637-1.042-1.789-1.662-3.079-1.662c-0.759,0-1.503,0.222-2.143,0.645l-23.268,15.508l3.735-18.713
				c0.393-2.096-0.944-4.072-3.042-4.479c-0.224-0.043-0.456-0.062-0.687-0.062c-1.818,0-3.391,1.307-3.839,3.185l-5.126,26.018
				l-15.236,10.014l6.506-30.507c0.438-2.035-0.893-4.065-2.967-4.549c-0.23-0.04-0.461-0.063-0.691-0.063
				c-1.844,0-3.422,1.274-3.748,3.028l-8.061,38.143l-50.32,33.372l19.674-36.756c0.508-0.933,0.617-1.985,0.32-2.985
				c-0.287-0.96-0.922-1.742-1.785-2.203c-0.559-0.311-1.16-0.466-1.772-0.466c-1.413,0-2.737,0.801-3.382,2.042l-20.387,37.995
				l-0.969-68.245l26.465-24.623c1.523-1.438,1.6-3.879,0.16-5.433c-0.719-0.794-1.686-1.224-2.732-1.224
				c-0.961,0-1.902,0.371-2.647,1.047l-21.427,19.987l-0.298-17.948l18.569-17.598c0.777-0.716,1.211-1.662,1.244-2.686
				c0.035-1.022-0.341-1.993-1.051-2.736c-0.741-0.812-1.713-1.243-2.757-1.243c-0.964,0-1.886,0.376-2.595,1.061l-13.549,12.901
				l-0.377-29.123c-0.068-2.074-1.73-3.73-3.784-3.73h-0.112c-2.076,0.045-3.783,1.828-3.75,3.896l0.446,28.383l-13.408-12.768
				c-0.707-0.665-1.636-1.035-2.604-1.035c-1.067,0-2.062,0.434-2.8,1.221c-1.465,1.554-1.423,4.001,0.09,5.463l18.734,17.914
				l0.383,18.205l-22.018-21.313c-0.689-0.685-1.589-1.051-2.555-1.051c-1.054,0-2.051,0.427-2.809,1.208
				c-1.45,1.54-1.41,4,0.109,5.457l27.371,26.613l1.021,66.563l-22.332-36.09c-0.68-1.091-1.919-1.77-3.228-1.77
				c-0.704,0-1.376,0.197-1.941,0.575l-0.06,0.036c-0.891,0.546-1.51,1.399-1.745,2.403c-0.239,1.01-0.067,2.051,0.479,2.93
				l22.616,36.571l-53.862-29.951l-7.595-35.218c-0.356-1.752-1.901-3.005-3.681-3.005c-0.277,0-0.558,0.03-0.832,0.092
				c-2.09,0.48-3.367,2.521-2.904,4.646l6.092,28.537l-15.516-8.62l-5.594-24.9c-0.348-1.718-1.848-2.937-3.576-2.937
				c-0.285,0-0.568,0.036-0.848,0.105c-1.101,0.244-1.98,0.861-2.524,1.748c-0.528,0.854-0.683,1.863-0.434,2.838l4.101,18.176
				l-25.223-13.953c-0.562-0.328-1.158-0.49-1.777-0.49c-1.393,0-2.686,0.774-3.375,2.021c-0.496,0.905-0.609,1.962-0.311,2.961
				c0.289,0.96,0.922,1.74,1.789,2.203l24.583,13.671l-17.8,5.369c-2.044,0.625-3.234,2.931-2.645,4.961
				c0.451,1.574,1.998,2.848,3.676,2.848h0.096c0.373,0,0.52-0.166,0.881-0.293l0.086-0.097l24.975-7.538l15.914,8.71l-29.559,8.555
				c-1.998,0.615-3.165,2.769-2.576,4.798c0.447,1.66,1.916,2.788,3.575,2.788l0.092-0.002c0.215,0,0.563-0.021,1.026-0.159
				l36.779-10.724l56.546,31.354l-45.72,1.305c-2.058,0.076-3.746,2.053-3.746,4.19c0.035,2.049,1.719,3.85,3.832,3.85h0.08
				l40.153-1.304l-55.795,36.971l-34.519-9.362c-0.307-0.08-0.651-0.142-0.99-0.142c-1.768,0-3.27,1.133-3.739,2.842
				c-0.528,2.092,0.602,4.173,2.587,4.713l28.139,7.563l-14.913,9.854l-24.556-6.358c-0.268-0.065-0.564-0.103-0.863-0.103
				c-1.76,0-3.346,1.205-3.773,2.863c-0.273,1.002-0.134,2.029,0.384,2.916c0.522,0.896,1.345,1.525,2.321,1.773l17.832,4.633
				l-24.161,16.016c-1.722,1.146-2.236,3.621-1.116,5.398c0.691,1.055,1.898,1.698,3.227,1.698c0.698-0.021,1.416-0.264,2.09-0.695
				l23.566-15.688l-3.691,18.35c-0.223,1.026-0.033,2.046,0.524,2.9c0.552,0.844,1.384,1.42,2.347,1.624
				c0.307,0.049,0.596,0.071,0.931,0.073c1.812-0.066,3.288-1.326,3.595-3.079l5.197-25.748l15.218-10.093l-6.331,30.225
				c-0.207,1.022-0.006,2.069,0.573,2.937c0.544,0.813,1.368,1.364,2.319,1.548l0.104,0.022c0.109,0.028,0.408,0.075,0.842,0.075
				c1.441-0.033,3.221-1.205,3.629-3.112l7.836-37.666l57.141-37.856l-20.41,37.818c-0.489,0.91-0.597,1.945-0.304,2.923
				c0.298,0.974,0.961,1.775,1.872,2.257l0.086,0.049c0.457,0.271,1.039,0.426,1.601,0.426l0.085-0.001
				c1.479-0.028,2.689-0.758,3.342-2.003l20.216-37.488l0.974,63.436l-26.199,24.356c-1.574,1.452-1.687,3.913-0.253,5.485
				c0.687,0.775,1.614,1.192,2.636,1.192c0.968,0,1.922-0.378,2.682-1.064l21.28-19.754l0.226,17.98l-18.355,17.368
				c-1.506,1.396-1.578,3.876-0.176,5.45c0.729,0.745,1.697,1.154,2.73,1.154c0.986,0,1.941-0.382,2.691-1.073l13.227-12.582
				l0.507,28.406c0,2.144,1.578,3.854,3.671,3.854h0.087c2.089,0,3.781-1.956,3.781-4.133l-0.382-28l13.663,12.958
				c0.764,0.729,1.596,1.071,2.405,1.007l0.148-0.014c1.049,0,2.023-0.418,2.817-1.201c0.706-0.762,1.075-1.737,1.04-2.744
				c-0.032-1.013-0.471-1.963-1.232-2.675l-19.088-18.185l-0.151-18.172l22.171,21.42c0.683,0.697,1.52,0.937,2.529,0.937h0.082
				c1.092,0,1.979-0.327,2.761-1.118c0.886-0.875,1.062-1.82,1.058-2.498c-0.009-1.054-0.457-2.058-1.23-2.799l-27.582-26.924
				l-0.965-63.477l24.365,37.25c0.664,1.056,1.854,1.697,3.123,1.703c0.832-0.077,1.443-0.27,2.082-0.659
				c1.758-1.243,2.289-3.609,1.211-5.425l-23.994-36.638l60.845,33.853l7.546,34.795c0.41,1.764,1.932,2.836,3.775,2.836h0.082
				c0.279,0,0.429,0.088,0.469,0.076l0.201,0.008c0.999-0.219,1.856-0.795,2.412-1.686c0.546-0.87,0.719-1.861,0.488-2.824
				l-5.99-28.227l15.455,8.559l5.541,24.65c0.398,1.697,1.877,2.898,3.594,2.898l0.195-0.002c0.181,0,0.389-0.036,0.652-0.081
				l0.17-0.028c0.959-0.24,1.781-0.85,2.319-1.718c0.556-0.886,0.733-1.917,0.497-2.905l-4.055-17.769l24.344,13.539
				c0.707,0.34,1.301,0.497,1.852,0.497l0.18-0.003c1.748-0.022,2.757-1.129,3.297-2.051c0.493-0.876,0.619-1.919,0.344-2.914
				C4407.708,2986.271,4407.08,2985.463,4406.208,2984.971z"/>
		</g>
		<g>
			<g>
				<path style="fill:#B0D7E5;" d="M1230.474,2998.6c0,29.665-24.049,53.714-53.715,53.714H765.853
					c-29.665,0-53.715-24.049-53.715-53.714v-158.839c0-29.666,24.049-53.715,53.715-53.715h410.905
					c29.666,0,53.715,24.049,53.715,53.715V2998.6z"/>
				<path style="fill:#898888;" d="M1176.232,3059.414H764.623c-8.146,0-16.051-1.286-23.495-4.436
					c-7.186-3.041-13.64-7.238-19.18-12.774c-5.542-5.544-10.396-11.917-13.434-19.105c-3.152-7.443-5.251-15.271-5.251-23.415
					v-159.207c0-8.145,2.099-16.047,5.251-23.494c3.038-7.186,7.639-13.64,13.182-19.18c5.539-5.541,12.121-9.594,19.307-12.635
					c7.443-3.149,15.475-4.447,23.62-4.447h411.609c8.143,0,16.05,1.298,23.491,4.447c7.189,3.041,13.641,7.241,19.184,12.781
					c5.538,5.543,10.387,11.922,13.425,19.107c3.151,7.443,5.242,15.275,5.242,23.42v159.207c0,8.145-2.091,16.049-5.242,23.493
					c-3.038,7.188-7.64,13.64-13.178,19.182c-5.541,5.54-12.12,9.579-19.306,12.62
					C1192.403,3058.128,1184.375,3059.414,1176.232,3059.414z M1223.373,2840.229c0-26.003-21.078-47.082-47.08-47.082H762.769
					c-26.002,0-47.08,21.079-47.08,47.082v157.902c0,26.003,21.079,47.082,47.08,47.082h413.523c26.002,0,47.08-21.079,47.08-47.082
					V2840.229z"/>
			</g>
			<path style="fill:#FFFFFF;" d="M777.056,2876.974l-15.67-7.813v-33.294l15.67-13.441V2876.974z M777.056,2935.128l-15.67-13.481
				v-34.486l15.67-6.738V2935.128z"/>
			<path style="fill:#FFFFFF;" d="M812.935,2870.277l-15.67,6.736v-38.848l7.776-6.733l7.894,6.733V2870.277z M861.767,2928.234
				l-8.016,6.894h-53.205l15.06-13.473h38.144L861.767,2928.234z M868.332,2878.752l-14.536,6.089l-38.022-0.151l-14.653-5.862
				l15.011-7.608h37.362L868.332,2878.752z M861.767,2829.396l-8.016,6.579h-38.144l-8.017-6.579l8.017-6.892h38.144
				L861.767,2829.396z M871.972,2877.014l-15.67-6.736v-32.111l7.776-6.733l7.894,6.733V2877.014z M871.972,2919.307l-7.894,6.734
				l-7.776-6.734v-31.015l15.67-7.832V2919.307z"/>
			<path style="fill:#FFFFFF;" d="M909.655,2901.021l-8.242,3.541v-20.43l4.089-3.543l4.153,3.543V2901.021z M909.655,2926.807
				l-4.153,3.544l-4.089-3.544v-20.431l8.242,4.118V2926.807z M939.363,2875.896l-8.242,7.085H911.06l-4.218-3.462l4.218-3.623
				H939.363z M939.363,2935.128H911.06l-4.218-3.626l4.218-3.461h20.061L939.363,2935.128z"/>
			<path style="fill:#FFFFFF;" d="M892.326,2878.896c-4.612,0-8.367-3.752-8.367-8.366c0-4.611,3.755-8.366,8.367-8.366
				c4.611,0,8.364,3.755,8.364,8.366C900.689,2875.145,896.936,2878.896,892.326,2878.896z M892.326,2864.671
				c-3.233,0-5.859,2.63-5.859,5.859c0,3.233,2.627,5.859,5.859,5.859c3.232,0,5.859-2.626,5.859-5.859
				C898.185,2867.301,895.558,2864.671,892.326,2864.671z"/>
			<path style="fill:#FFFFFF;" d="M1212.723,2949.834c0,1.697-1.376,3.073-3.074,3.073H731.189c-1.698,0-3.074-1.376-3.074-3.073
				v-0.954c0-1.696,1.376-3.073,3.074-3.073h478.459c1.698,0,3.074,1.377,3.074,3.073V2949.834z"/>
			<path style="fill:#FFFFFF;" d="M1118.354,2872.863c0.222-0.438,0.349-0.932,0.349-1.457c0-0.229-0.025-0.453-0.07-0.668
				c1.164-1.161,3.097-2.829,4.166-2.301c1.601,0.791,6.371,5.742,10.372,1.339c3.999-4.405,4.245-8.128,1.899-10.497
				c0,0-6.246-6.245-11.176-3.463c-4.463,2.518-3.933,8.859-6.777,12.809c-0.484-0.282-1.043-0.445-1.642-0.445
				c-0.542,0-1.051,0.134-1.5,0.369c-1.402-0.859-3.423-2.317-3.169-3.469c0.389-1.742,4.067-7.549-1.16-10.389
				c-5.229-2.842-8.907-2.195-10.65,0.645c0,0-4.579,7.55-0.709,11.679c3.507,3.745,9.557,1.713,14.074,3.552
				c-0.072,0.268-0.11,0.548-0.11,0.84c0,0.689,0.214,1.326,0.585,1.852c-1.16,1.162-3.124,2.872-4.205,2.34
				c-1.6-0.789-6.37-5.745-10.369-1.338c-4,4.4-4.248,8.128-1.901,10.494c0,0,6.246,6.244,11.176,3.463
				c4.783-2.697,3.833-9.792,7.451-13.621c0.158,0.023,0.32,0.036,0.488,0.036c0.264,0,0.52-0.031,0.765-0.09
				c1.172,0.645,4.344,2.543,4.028,3.964c-0.389,1.746-4.067,7.553,1.162,10.393c5.227,2.84,8.904,2.195,10.647-0.645
				c0,0,4.582-7.553,0.71-11.682C1129.181,2872.729,1122.899,2874.975,1118.354,2872.863z"/>
			<g>
				<rect x="1111.541" y="2906.754" style="fill:#FFFFFF;" width="10.65" height="30.177"/>
				<rect x="1125.742" y="2896.104" style="fill:#FFFFFF;" width="8.875" height="40.827"/>
				<rect x="1141.718" y="2885.452" style="fill:#FFFFFF;" width="7.101" height="51.479"/>
				<rect x="1155.919" y="2873.026" style="fill:#FFFFFF;" width="8.875" height="63.904"/>
				<rect x="1170.12" y="2862.376" style="fill:#FFFFFF;" width="8.875" height="74.555"/>
			</g>
			<path style="fill:#FFFFFF;" d="M968.468,2913.338l-6.391,2.262v-13.055l3.169-2.261l3.222,2.261V2913.338z M968.468,2929.812
				l-3.222,2.263l-3.169-2.263v-13.056l6.391,2.635V2929.812z M991.51,2897.282l-6.394,4.526H969.56l-3.271-2.211l3.271-2.315
				H991.51z M991.51,2935.128h-21.95l-3.271-2.315l3.271-2.213h15.557L991.51,2935.128z"/>
			<path style="fill:#FFFFFF;" d="M1001.569,2912.969l-6.393,2.631v-13.055l3.174-2.261l3.219,2.261V2912.969z M1001.569,2929.812
				l-3.219,2.263l-3.174-2.263v-13.056l6.393,2.265V2929.812z M1021.489,2899.598l-3.272,2.211h-15.559l-3.27-2.211l3.27-2.315
				h15.559L1021.489,2899.598z M1021.489,2932.813l-3.272,2.315h-15.559l-3.27-2.315l3.27-2.213h15.559L1021.489,2932.813z
				 M1025.65,2915.6l-6.391-2.631v-10.424l3.17-2.261l3.221,2.261V2915.6z M1025.65,2929.812l-3.221,2.263l-3.17-2.263v-10.791
				l6.391-2.265V2929.812z"/>
			<path style="fill:#FFFFFF;" d="M1038.384,2912.969l-6.388,2.631v-13.055l3.169-2.261l3.218,2.261V2912.969z M1038.384,2929.812
				l-3.218,2.263l-3.169-2.263v-13.056l6.388,2.265V2929.812z M1058.306,2899.598l-3.271,2.211h-15.56l-3.271-2.211l3.271-2.315
				h15.56L1058.306,2899.598z M1058.306,2932.813l-3.271,2.315h-15.56l-3.271-2.315l3.271-2.213h15.56L1058.306,2932.813z
				 M1062.469,2915.6l-6.394-2.631v-10.424l3.174-2.261l3.22,2.261V2915.6z M1062.469,2929.812l-3.22,2.263l-3.174-2.263v-10.791
				l6.394-2.265V2929.812z"/>
			<path style="fill:#FFFFFF;" d="M1075.204,2912.976l-6.392,2.624v-18.332l6.392,4.518V2912.976z M1075.204,2929.789l-6.392,4.617
				v-17.65l6.392,2.261V2929.789z M1098.275,2935.128h-28.424l6.441-4.528h15.576L1098.275,2935.128z"/>
			<rect x="950.005" y="2803.797" style="fill:#FFFFFF;" width="5.325" height="145.561"/>
			<g>
				<path style="fill:#FFFFFF;" d="M1051.156,2998.403l-6.215-3.034v-12.92l6.215-5.218V2998.403z M1051.156,3020.974l-6.215-5.233
					v-13.383l6.215-2.617V3020.974z"/>
				<path style="fill:#FFFFFF;" d="M1075.236,2995.787l-6.212,2.616v-15.078l3.082-2.616l3.131,2.616V2995.787z M1094.595,3018.283
					l-3.179,2.675h-21.095l5.972-5.229h15.123L1094.595,3018.283z M1097.199,2999.077l-5.765,2.361l-15.075-0.058l-5.808-2.273
					l5.949-2.953h14.814L1097.199,2999.077z M1094.595,2979.922l-3.179,2.552h-15.123l-3.177-2.552l3.177-2.675h15.123
					L1094.595,2979.922z M1098.642,2998.403l-6.212-2.616v-12.462l3.081-2.616l3.131,2.616V2998.403z M1098.642,3014.818
					l-3.131,2.611l-3.081-2.611v-12.038l6.212-3.04V3014.818z"/>
				<path style="fill:#FFFFFF;" d="M1110.008,3001.503h-6.212v-8.997h6.212V3001.503z M1110.008,3020.958h-6.212v-9.424h6.212
					V3020.958z"/>
				<path style="fill:#FFFFFF;" d="M1137.604,2979.922l-3.181,2.552h-15.121l-5.972-5.227h21.093L1137.604,2979.922z
					 M1137.604,3018.283l-3.181,2.675h-21.093l5.972-5.229h15.121L1137.604,3018.283z M1140.204,2999.065l-5.751,2.422
					l-15.146-0.106l-5.831-2.404l5.777-2.822h15.001L1140.204,2999.065z M1141.648,2998.403l-6.212-3.041v-12.037l3.081-2.616
					l3.131,2.616V2998.403z M1141.648,3014.818l-3.131,2.611l-3.081-2.611v-12.463l6.212-2.615V3014.818z"/>
				<path style="fill:#FFFFFF;" d="M1156.624,2995.362l-6.212,3.041v-15.078l3.084-2.616l3.128,2.616V2995.362z M1156.624,3014.818
					l-3.128,2.611l-3.084-2.611v-15.078l6.212,2.615V3014.818z M1178.608,2999.057l-5.771,2.431l-15.181,0.017l-5.801-2.438
					l5.955-2.911h15.015L1178.608,2999.057z M1178.732,2977.247l-5.925,5.227h-15.121l-3.178-2.552l3.178-2.675H1178.732z
					 M1175.988,3018.283l-3.181,2.675h-15.121l-3.178-2.675l3.178-2.554h15.121L1175.988,3018.283z M1180.033,3014.818l-3.131,2.611
					l-3.083-2.611v-12.463l6.214-2.615V3014.818z"/>
			</g>
			<path style="fill:#FFFFFF;" d="M794.149,2982.08c0,8.576-4.636,11.617-10.353,11.617c-5.719,0-10.358-3.041-10.358-11.617
				c0-8.579,10.358-19.448,10.358-19.448S794.149,2973.501,794.149,2982.08z"/>
			<path style="fill:#FFFFFF;" d="M765.658,3010.779l-3.531-3.094c0.412-0.468,10.141-11.4,21.751-8.497
				c2.617,0.651,5.148,1.619,7.595,2.55c7.633,2.91,14.848,5.66,25.734,0.217l2.098,4.195c-5.298,2.648-9.935,3.607-14.11,3.607
				c-5.859,0-10.806-1.885-15.394-3.635c-2.423-0.925-4.715-1.797-7.06-2.383C773.927,3001.535,765.739,3010.686,765.658,3010.779z"
				/>
			<path style="fill:#FFFFFF;" d="M765.658,3022.752l-3.531-3.094c0.412-0.467,10.141-11.4,21.751-8.498
				c2.617,0.655,5.148,1.619,7.595,2.552c7.633,2.909,14.848,5.661,25.734,0.215l2.098,4.198c-5.298,2.649-9.935,3.605-14.11,3.607
				c-5.859,0-10.806-1.888-15.394-3.639c-2.423-0.922-4.715-1.794-7.06-2.381C773.927,3013.509,765.739,3022.656,765.658,3022.752z"
				/>
			<path style="fill:#FFFFFF;" d="M765.658,3035.211l-3.531-3.096c0.412-0.465,10.141-11.398,21.751-8.494
				c2.617,0.651,5.148,1.617,7.595,2.548c7.633,2.912,14.848,5.661,25.734,0.218l2.098,4.195c-5.298,2.649-9.935,3.607-14.11,3.607
				c-5.859,0-10.806-1.884-15.394-3.635c-2.423-0.924-4.715-1.799-7.06-2.384C773.927,3025.966,765.739,3035.117,765.658,3035.211z"
				/>
			<g>
				<path style="fill:#FFFFFF;" d="M861.971,2988.347l-3.178,2.563h-22.387l7.268-5.245h15.119L861.971,2988.347z M842.616,3023.357
					l-3.129,2.624l-3.082-2.624v-15.127l6.21,2.625V3023.357z M864.6,3007.568l-5.83,2.309l-15.127,0.125l-5.788-2.444l5.778-2.926
					h14.988L864.6,3007.568z M866.013,3029.52h-22.339l-3.173-2.686l3.173-2.562h16.419L866.013,3029.52z M866.013,3006.889
					l-6.21-3.047v-12.08l3.081-2.623l3.129,2.623V3006.889z"/>
				<path style="fill:#FFFFFF;" d="M878.387,3003.842l-6.211,3.047v-15.127l3.083-2.623l3.128,2.623V3003.842z M878.387,3023.357
					l-3.128,2.624l-3.083-2.624v-15.127l6.211,2.625V3023.357z M900.341,3007.555l-5.751,2.43l-15.177,0.018l-5.796-2.447
					l5.951-2.923h14.823L900.341,3007.555z M897.742,2988.347l-3.179,2.563h-15.119l-3.176-2.563l3.176-2.683h15.119
					L897.742,2988.347z M897.742,3026.834l-3.179,2.686h-15.119l-3.176-2.686l3.176-2.562h15.119L897.742,3026.834z
					 M901.784,3006.889l-6.21-3.047v-12.08l3.081-2.623l3.129,2.623V3006.889z M901.784,3023.357l-3.129,2.624l-3.081-2.624v-12.502
					l6.21-2.625V3023.357z"/>
			</g>
		</g>
	</g>
	<g>
		<path style="fill:#7BD0ED;" d="M958.39,4817.955c-15.618,0-28.532-12.392-29.055-28.121
			c-2.708-81.166,51.889-132.712,95.753-174.131c29.861-28.188,55.65-52.537,55.65-76.472c0-22.825-30.555-43.544-62.898-65.477
			c-46.729-31.686-104.889-71.123-104.889-143.233c0-82.63,68.852-134.535,119.124-172.435
			c16.211-12.22,38.414-28.955,41.663-36.208c11.307-42.532-8.602-64.938-9.457-65.872c-11.361-11.359-11.151-29.562,0.208-40.923
			c11.354-11.356,29.984-11.148,41.35,0.215c16.566,16.565,40.245,60.943,23.91,122.193c-6.621,24.813-31.348,43.454-62.651,67.055
			c-42.756,32.229-95.967,72.346-95.967,125.975c0,38.394,31.421,62.572,79.361,95.08c41.448,28.106,88.424,59.962,88.424,113.63
			c0,49.013-37.562,84.482-73.887,118.773c-40.823,38.545-79.384,74.948-77.548,129.896c0.534,16.055-12.044,29.503-28.103,30.04
			C959.048,4817.947,958.716,4817.955,958.39,4817.955z"/>
		<path style="fill:#7BD0ED;" d="M1986.401,4817.955c-15.621,0-28.533-12.392-29.057-28.121
			c-2.706-81.166,51.888-132.712,95.752-174.131c29.861-28.188,55.65-52.537,55.65-76.472c0-22.825-30.554-43.544-62.898-65.477
			c-46.73-31.686-104.89-71.123-104.89-143.233c0-82.63,68.853-134.535,119.127-172.435c16.208-12.22,38.411-28.955,41.661-36.208
			c11.308-42.532-8.604-64.938-9.455-65.872c-11.364-11.359-11.152-29.562,0.205-40.923c11.357-11.356,29.988-11.148,41.35,0.215
			c16.565,16.565,40.247,60.943,23.912,122.193c-6.619,24.813-31.345,43.454-62.653,67.055
			c-42.756,32.229-95.967,72.346-95.967,125.975c0,38.394,31.423,62.572,79.364,95.08c41.447,28.106,88.423,59.962,88.423,113.63
			c0,49.013-37.563,84.482-73.886,118.773c-40.824,38.545-79.387,74.948-77.551,129.896c0.536,16.055-12.044,29.503-28.103,30.04
			C1987.056,4817.947,1986.726,4817.955,1986.401,4817.955z"/>
		<path style="fill:#7BD0ED;" d="M3014.408,4817.955c-15.619,0-28.531-12.392-29.057-28.121
			c-2.703-81.166,51.889-132.712,95.755-174.131c29.859-28.188,55.649-52.537,55.649-76.472c0-22.825-30.553-43.544-62.899-65.477
			c-46.728-31.686-104.886-71.123-104.886-143.233c0-82.63,68.851-134.535,119.123-172.435c16.208-12.22,38.41-28.955,41.662-36.208
			c11.307-42.532-8.604-64.938-9.454-65.872c-11.363-11.359-11.153-29.562,0.208-40.923c11.354-11.356,29.984-11.148,41.348,0.215
			c16.563,16.565,40.244,60.943,23.91,122.193c-6.619,24.813-31.345,43.454-62.648,67.055
			c-42.761,32.229-95.969,72.346-95.969,125.975c0,38.394,31.42,62.572,79.362,95.08c41.444,28.106,88.424,59.962,88.424,113.63
			c0,49.013-37.563,84.482-73.888,118.773c-40.822,38.545-79.383,74.948-77.549,129.896c0.535,16.055-12.045,29.503-28.105,30.04
			C3015.068,4817.947,3014.734,4817.955,3014.408,4817.955z"/>
		<path style="fill:#7BD0ED;" d="M4042.42,4817.955c-15.621,0-28.536-12.392-29.057-28.121
			c-2.707-81.166,51.887-132.712,95.753-174.131c29.86-28.188,55.651-52.537,55.651-76.472c0-22.825-30.557-43.544-62.9-65.477
			c-46.728-31.686-104.887-71.123-104.887-143.233c0-82.63,68.852-134.535,119.123-172.435
			c16.211-12.22,38.412-28.955,41.662-36.208c11.307-42.532-8.604-64.938-9.455-65.872c-11.361-11.359-11.151-29.562,0.207-40.923
			c11.355-11.356,29.984-11.148,41.352,0.215c16.562,16.565,40.241,60.943,23.909,122.193c-6.62,24.813-31.347,43.454-62.651,67.055
			c-42.759,32.229-95.97,72.346-95.97,125.975c0,38.394,31.425,62.572,79.364,95.08c41.444,28.106,88.423,59.962,88.423,113.63
			c0,49.013-37.562,84.482-73.888,118.773c-40.82,38.545-79.383,74.948-77.547,129.896c0.533,16.055-12.047,29.503-28.103,30.04
			C4043.077,4817.947,4042.742,4817.955,4042.42,4817.955z"/>
	</g>
</g>
<g>
	<path style="fill:#FFFFFF;" d="M4675.005,2105.367c0,89.522-72.573,162.093-162.095,162.093H1900.755
		c-89.523,0-162.096-72.571-162.096-162.093V383.386c0-89.522,72.573-162.093,162.096-162.093H4512.91
		c89.521,0,162.095,72.571,162.095,162.093V2105.367z"/>
	
		<ellipse transform="matrix(0.7071 -0.7071 0.7071 0.7071 -56.8564 2356.3945)" style="fill:#0C0C0C;" cx="2815.991" cy="1246.829" rx="795.181" ry="795.181"/>
	<g>
		<path style="fill:#5A5A5A;" d="M2758.723,1233.646c0,0-64.437-123.01-125.941-237.235
			c-61.507-114.224-161.087-369.035,20.502-395.394s433.469,32.217,521.334,199.16c87.866,166.945-131.798,386.609-272.382,442.257
			C2761.65,1298.082,2758.723,1233.646,2758.723,1233.646z"/>
		<path style="fill:#5A5A5A;" d="M2839.04,1301.067c0,0,131.972-43.205,254.795-84.975c122.825-41.769,390.593-97.842,386.56,85.605
			c-4.031,183.447-103.455,422.174-282.63,481.222c-179.177,59.047-359.488-193.917-391.123-341.767
			C2775.008,1293.299,2839.04,1301.067,2839.04,1301.067z"/>
		<path style="fill:#5A5A5A;" d="M2767.547,1339.873c0,0-80.474,113.171-154.442,219.75
			c-73.966,106.579-256.017,310.789-361.778,160.846c-105.766-149.945-167.652-401.031-58.627-554.994
			s404.367-57.645,517.666,42.475C2823.663,1308.072,2767.547,1339.873,2767.547,1339.873z"/>
		<path style="fill:#5A5A5A;" d="M2883.926,1285.633c0,48.527-39.339,87.867-87.866,87.867c-48.526,0-87.866-39.34-87.866-87.867
			c0-48.528,39.34-87.865,87.866-87.865C2844.587,1197.769,2883.926,1237.105,2883.926,1285.633z"/>
		<path style="fill:#353635;" d="M2847.314,1285.633c0,28.308-22.947,51.256-51.255,51.256c-28.306,0-51.255-22.948-51.255-51.256
			s22.949-51.255,51.255-51.255C2824.367,1234.378,2847.314,1257.326,2847.314,1285.633z"/>
	</g>
	<path style="fill:#E0E1E0;" d="M3691.452,2185.779h-1782.65c-30.093,0-59.389-28.295-59.389-58.478V368.427
		c0-14.37,7.041-27.523,19.06-36.922c10.759-8.412,25.727-13.302,40.329-13.302h1782.65c30.267,0,50.457,20.26,50.457,50.224
		v1758.875c0,14.497-4.8,28.91-13.293,39.75C3719.095,2179.206,3705.941,2185.779,3691.452,2185.779z M1908.802,333.431
		c-21.317,0-42.776,13.138-42.776,34.996v1758.875c0,21.566,21.295,43.249,42.776,43.249h1782.65
		c21.879,0,35.229-22.309,35.229-43.249V368.427c0-21.538-13.378-34.996-35.229-34.996H1908.802z"/>
	<rect x="2220.436" y="553.553" style="fill:#FFFFFF;" width="20.766" height="1322.117"/>
	<rect x="2603.919" y="431.725" style="fill:#FFFFFF;" width="19.382" height="1641.917"/>
	<rect x="2995.709" y="427.571" style="fill:#FFFFFF;" width="20.766" height="1643.301"/>
	<rect x="3372.27" y="592.317" style="fill:#FFFFFF;" width="20.767" height="1320.732"/>
	<rect x="2191.363" y="507.867" style="fill:#FFFFFF;" width="1225.208" height="12.46"/>
	<rect x="2191.363" y="567.397" style="fill:#FFFFFF;" width="1225.208" height="12.46"/>
	<rect x="2191.363" y="628.312" style="fill:#FFFFFF;" width="1225.208" height="12.46"/>
	<rect x="2191.363" y="689.226" style="fill:#FFFFFF;" width="1225.208" height="11.076"/>
	<rect x="2066.766" y="748.756" style="fill:#FFFFFF;" width="1474.403" height="12.459"/>
	<rect x="2066.766" y="811.054" style="fill:#FFFFFF;" width="1474.403" height="11.076"/>
	<rect x="1946.322" y="870.584" style="fill:#FFFFFF;" width="1716.675" height="12.459"/>
	<rect x="1946.322" y="931.498" style="fill:#FFFFFF;" width="1716.675" height="12.46"/>
	<rect x="1946.322" y="991.028" style="fill:#FFFFFF;" width="1716.675" height="12.46"/>
	<rect x="1946.322" y="1051.943" style="fill:#FFFFFF;" width="1716.675" height="12.459"/>
	<rect x="2171.981" y="1967.042" style="fill:#FFFFFF;" width="1223.823" height="12.46"/>
	<rect x="2171.981" y="1906.127" style="fill:#FFFFFF;" width="1223.823" height="12.46"/>
	<rect x="2171.981" y="1846.597" style="fill:#FFFFFF;" width="1223.823" height="11.075"/>
	<rect x="2171.981" y="1785.683" style="fill:#FFFFFF;" width="1223.823" height="12.46"/>
	<rect x="2046" y="1724.769" style="fill:#FFFFFF;" width="1475.787" height="12.46"/>
	<rect x="2046" y="1665.239" style="fill:#FFFFFF;" width="1475.787" height="11.075"/>
	<rect x="1925.556" y="1602.94" style="fill:#FFFFFF;" width="1716.675" height="12.46"/>
	<rect x="1925.556" y="1543.41" style="fill:#FFFFFF;" width="1716.675" height="12.46"/>
	<rect x="1925.556" y="1482.496" style="fill:#FFFFFF;" width="1716.675" height="12.46"/>
	<rect x="1925.556" y="1422.966" style="fill:#FFFFFF;" width="1716.675" height="11.075"/>
	<rect x="1957.397" y="1244.376" style="fill:#FFFFFF;" width="1716.675" height="12.46"/>
	<rect x="1957.397" y="1305.291" style="fill:#FFFFFF;" width="1716.675" height="12.46"/>
	<rect x="1957.397" y="1366.205" style="fill:#FFFFFF;" width="1716.675" height="11.075"/>
	<rect x="1928.324" y="1117.01" style="fill:#FFFFFF;" width="1716.676" height="13.844"/>
	<rect x="1928.324" y="1179.309" style="fill:#FFFFFF;" width="1716.676" height="9.691"/>
	<rect x="2021.08" y="2225.927" style="fill:#FFFFFF;" width="418.094" height="127.366"/>
	<rect x="3971.722" y="2227.312" style="fill:#FFFFFF;" width="418.094" height="125.982"/>
	<path style="fill:#E0E1E0;" d="M4536.563,711.413c0,18.33-14.859,33.189-33.189,33.189h-621.676
		c-18.33,0-33.189-14.86-33.189-33.189v-0.073c0-18.33,14.859-33.189,33.189-33.189h621.676c18.33,0,33.189,14.859,33.189,33.189
		V711.413z"/>
	<path style="fill:#E0E1E0;" d="M4536.563,1051.979c0,18.33-14.859,33.189-33.189,33.189h-621.676
		c-18.33,0-33.189-14.859-33.189-33.189v-0.073c0-18.33,14.859-33.189,33.189-33.189h621.676c18.33,0,33.189,14.859,33.189,33.189
		V1051.979z"/>
	<path style="fill:#E0E1E0;" d="M4536.563,1393.93c0,18.33-14.859,33.189-33.189,33.189h-621.676
		c-18.33,0-33.189-14.859-33.189-33.189v-0.073c0-18.33,14.859-33.189,33.189-33.189h621.676c18.33,0,33.189,14.859,33.189,33.189
		V1393.93z"/>
	<path style="fill:#E0E1E0;" d="M4536.563,1734.496c0,18.33-14.859,33.189-33.189,33.189h-621.676
		c-18.33,0-33.189-14.859-33.189-33.189v-0.073c0-18.33,14.859-33.189,33.189-33.189h621.676c18.33,0,33.189,14.859,33.189,33.189
		V1734.496z"/>
	<path style="fill:#E0E1E0;" d="M4536.563,2076.447c0,18.33-14.859,33.189-33.189,33.189h-621.676
		c-18.33,0-33.189-14.859-33.189-33.189v-0.073c0-18.33,14.859-33.189,33.189-33.189h621.676c18.33,0,33.189,14.859,33.189,33.189
		V2076.447z"/>
</g>
<g>
	<g>
		<path style="fill:#FFFFFF;" d="M1236.78,2101.76c0,56.198-45.556,101.754-101.754,101.754H633.505
			c-56.198,0-101.758-45.556-101.758-101.754V512.592c0-56.194,45.56-101.754,101.758-101.754h501.521
			c56.198,0,101.754,45.56,101.754,101.754V2101.76z"/>
		<g>
			<rect x="621.394" y="549.186" style="fill:#B0D7E5;" width="525.74" height="581.82"/>
			<path style="fill:#898888;" d="M1147.135,549.186v581.82h-525.74v-581.82H1147.135 M1169.329,526.991h-22.194h-525.74H599.2
				v22.195v581.82v22.196h22.194h525.74h22.194v-22.196v-581.82V526.991L1169.329,526.991z"/>
		</g>
		<g>
			<path style="fill:#C7CCD3;" d="M812.998,1304.499c0,24.834-20.132,44.966-44.965,44.966H644.165
				c-24.835,0-44.965-20.132-44.965-44.966l0,0c0-24.835,20.13-44.966,44.965-44.966h123.868
				C792.866,1259.533,812.998,1279.664,812.998,1304.499L812.998,1304.499z"/>
			<path style="fill:#C7CCD3;" d="M1169.329,1307.169c0,24.833-20.132,44.965-44.967,44.965h-123.87
				c-24.832,0-44.964-20.133-44.964-44.965l0,0c0-24.835,20.132-44.969,44.964-44.969h123.87
				C1149.197,1262.201,1169.329,1282.334,1169.329,1307.169L1169.329,1307.169z"/>
		</g>
		<g>
			<path style="fill:#C7CCD3;" d="M672.101,1503.064c0,43.358,82.498,78.507,184.265,78.507v-157.013
				C754.599,1424.558,672.101,1459.706,672.101,1503.064z"/>
			<path style="fill:#C7CCD3;" d="M912.163,1424.558v157.013c101.768,0,184.264-35.149,184.264-78.507
				C1096.427,1459.706,1013.931,1424.558,912.163,1424.558z"/>
		</g>
		<path style="fill:#C7CCD3;" d="M785.831,1675.737c0,21.679-17.572,39.253-39.25,39.253H638.452
			c-21.68,0-39.252-17.574-39.252-39.253l0,0c0-21.679,17.572-39.253,39.252-39.253h108.129
			C768.259,1636.484,785.831,1654.058,785.831,1675.737L785.831,1675.737z"/>
		<path style="fill:#C7CCD3;" d="M1169.329,1678.068c0,21.678-17.574,39.252-39.252,39.252h-108.13
			c-21.678,0-39.25-17.575-39.25-39.252l0,0c0-21.678,17.571-39.253,39.25-39.253h108.13
			C1151.755,1638.814,1169.329,1656.39,1169.329,1678.068L1169.329,1678.068z"/>
		<path style="fill:#C7CCD3;" d="M785.831,1800.604c0,21.679-17.574,39.253-39.252,39.253H638.452
			c-21.68,0-39.252-17.574-39.252-39.253l0,0c0-21.678,17.572-39.252,39.252-39.252h108.127
			C768.257,1761.352,785.831,1778.926,785.831,1800.604L785.831,1800.604z"/>
		<path style="fill:#C7CCD3;" d="M1169.329,1802.934c0,21.679-17.574,39.253-39.252,39.253h-108.13
			c-21.678,0-39.25-17.574-39.25-39.253l0,0c0-21.678,17.571-39.252,39.25-39.252h108.13
			C1151.755,1763.682,1169.329,1781.256,1169.329,1802.934L1169.329,1802.934z"/>
		<g>
			<path style="fill:#C7CCD3;" d="M731.408,1962.783c0,5.242-4.25,9.491-9.491,9.491H608.69c-5.242,0-9.489-4.249-9.489-9.491
				v-41.207c0-5.242,4.248-9.49,9.489-9.49h113.227c5.241,0,9.491,4.248,9.491,9.49V1962.783z"/>
			<path style="fill:#C7CCD3;" d="M1169.329,1962.783c0,5.242-4.252,9.491-9.493,9.491h-113.228c-5.242,0-9.49-4.249-9.49-9.491
				v-41.207c0-5.242,4.249-9.49,9.49-9.49h113.228c5.241,0,9.493,4.248,9.493,9.49V1962.783z"/>
			<path style="fill:#C7CCD3;" d="M950.367,1962.783c0,5.242-4.249,9.491-9.49,9.491H827.649c-5.241,0-9.49-4.249-9.49-9.491
				v-41.207c0-5.242,4.249-9.49,9.49-9.49h113.228c5.241,0,9.49,4.248,9.49,9.49V1962.783z"/>
		</g>
		<g>
			<path style="fill:#C7CCD3;" d="M731.408,2102.309c0,5.243-4.25,9.491-9.491,9.491H608.69c-5.242,0-9.489-4.248-9.489-9.491
				v-41.207c0-5.241,4.248-9.489,9.489-9.489h113.227c5.241,0,9.491,4.248,9.491,9.489V2102.309z"/>
			<path style="fill:#C7CCD3;" d="M1169.329,2102.309c0,5.243-4.252,9.491-9.493,9.491h-113.228c-5.242,0-9.49-4.248-9.49-9.491
				v-41.207c0-5.241,4.249-9.489,9.49-9.489h113.228c5.241,0,9.493,4.248,9.493,9.489V2102.309z"/>
			<path style="fill:#C7CCD3;" d="M950.367,2102.309c0,5.243-4.248,9.491-9.489,9.491H827.65c-5.241,0-9.49-4.248-9.49-9.491
				v-41.207c0-5.241,4.249-9.489,9.49-9.489h113.227c5.241,0,9.489,4.248,9.489,9.489V2102.309z"/>
		</g>
		<g>
			<g>
				<path style="fill:#FFFFFF;" d="M657.993,1303.225c0,9.805-5.943,15.75-14.684,15.75c-8.873,0-14.065-6.699-14.065-15.218
					c0-8.961,5.724-15.659,14.552-15.659C652.98,1288.098,657.993,1294.974,657.993,1303.225z M636.389,1303.625
					c0,5.855,2.75,9.98,7.275,9.98c4.569,0,7.187-4.348,7.187-10.16c0-5.368-2.572-9.981-7.231-9.981
					C639.05,1293.465,636.389,1297.813,636.389,1303.625z"/>
				<path style="fill:#FFFFFF;" d="M662.447,1318.486v-29.902h7.898l6.21,10.958c1.774,3.151,3.55,6.876,4.88,10.249h0.133
					c-0.443-3.949-0.576-7.987-0.576-12.466v-8.741h6.21v29.902h-7.098l-6.389-11.534c-1.774-3.195-3.728-7.055-5.191-10.56
					l-0.133,0.044c0.177,3.949,0.267,8.164,0.267,13.044v9.006H662.447z"/>
				<path style="fill:#FFFFFF;" d="M690.857,1320.26l9.494-32.163h4.48l-9.494,32.163H690.857z"/>
				<path style="fill:#FFFFFF;" d="M735.141,1303.225c0,9.805-5.943,15.75-14.684,15.75c-8.873,0-14.064-6.699-14.064-15.218
					c0-8.961,5.723-15.659,14.552-15.659C730.128,1288.098,735.141,1294.974,735.141,1303.225z M713.535,1303.625
					c0,5.855,2.751,9.98,7.276,9.98c4.569,0,7.187-4.348,7.187-10.16c0-5.368-2.572-9.981-7.23-9.981
					C716.197,1293.465,713.535,1297.813,713.535,1303.625z"/>
				<path style="fill:#FFFFFF;" d="M739.595,1288.584h18.279v5.546h-11.491v6.833h10.737v5.502h-10.737v12.021h-6.788V1288.584z"/>
				<path style="fill:#FFFFFF;" d="M762.987,1288.584h18.279v5.546h-11.491v6.833h10.736v5.502h-10.736v12.021h-6.788V1288.584z"/>
			</g>
		</g>
		<g>
			<g>
				<path style="fill:#FFFFFF;" d="M1025.779,1308.326c-0.134-3.593-0.268-7.941-0.268-12.289h-0.134
					c-0.932,3.814-2.175,8.074-3.327,11.58l-3.638,11.668h-5.281l-3.193-11.58c-0.975-3.504-1.998-7.763-2.706-11.668h-0.09
					c-0.177,4.037-0.311,8.652-0.531,12.378l-0.531,11.357h-6.256l1.907-29.901h9.006l2.929,9.98
					c0.932,3.461,1.864,7.19,2.529,10.693h0.134c0.842-3.46,1.86-7.409,2.84-10.736l3.193-9.938h8.829l1.641,29.901h-6.611
					L1025.779,1308.326z"/>
				<path style="fill:#FFFFFF;" d="M1065.415,1304.51c0,9.807-5.942,15.75-14.685,15.75c-8.872,0-14.063-6.7-14.063-15.217
					c0-8.96,5.722-15.66,14.551-15.66C1060.404,1289.383,1065.415,1296.26,1065.415,1304.51z M1043.809,1304.911
					c0,5.855,2.753,9.981,7.275,9.981c4.57,0,7.189-4.347,7.189-10.159c0-5.368-2.572-9.981-7.232-9.981
					C1046.471,1294.751,1043.809,1299.099,1043.809,1304.911z"/>
				<path style="fill:#FFFFFF;" d="M1069.869,1290.27c2.485-0.398,5.725-0.621,9.139-0.621c5.679,0,9.363,1.021,12.246,3.195
					c3.106,2.307,5.058,5.987,5.058,11.268c0,5.724-2.084,9.672-4.971,12.111c-3.15,2.617-7.94,3.861-13.796,3.861
					c-3.504,0-5.989-0.222-7.676-0.444V1290.27z M1076.656,1314.67c0.578,0.133,1.51,0.133,2.352,0.133
					c6.123,0.045,10.115-3.328,10.115-10.47c0.047-6.21-3.591-9.494-9.403-9.494c-1.51,0-2.485,0.134-3.063,0.266V1314.67z"/>
				<path style="fill:#FFFFFF;" d="M1118.557,1307.129h-11.003v7.098h12.289v5.545h-19.077v-29.901h18.456v5.545h-11.667v6.21
					h11.003V1307.129z"/>
			</g>
		</g>
	</g>
	<g>
		<polygon style="fill:#FFFFFF;" points="807.001,1503.064 807.001,1540.742 774.372,1521.903 741.743,1503.064 774.372,1484.226 
			807.001,1465.387 		"/>
		<polygon style="fill:#FFFFFF;" points="961.527,1503.064 961.527,1540.742 994.156,1521.903 1026.785,1503.064 994.156,1484.226 
			961.527,1465.387 		"/>
	</g>
	<g>
		<g>
			<path style="fill:#FFFFFF;" d="M651.351,1661.089h18.279v5.544h-11.491v6.833h10.738v5.502h-10.738v12.021h-6.788V1661.089z"/>
			<path style="fill:#FFFFFF;" d="M678.737,1683.317l-2.13,7.673h-7.01l9.14-29.901h8.872l9.273,29.901h-7.275l-2.308-7.673H678.737
				z M686.323,1678.259l-1.864-6.345c-0.531-1.774-1.064-3.994-1.508-5.768h-0.088c-0.444,1.774-0.887,4.037-1.375,5.768
				l-1.775,6.345H686.323z"/>
			<path style="fill:#FFFFFF;" d="M700.89,1690.99v-29.901h7.898l6.211,10.958c1.774,3.151,3.549,6.877,4.881,10.249h0.132
				c-0.442-3.948-0.577-7.986-0.577-12.466v-8.741h6.211v29.901h-7.098l-6.389-11.534c-1.775-3.194-3.726-7.055-5.191-10.559
				l-0.134,0.043c0.179,3.95,0.268,8.164,0.268,13.045v9.005H700.89z"/>
		</g>
	</g>
	<g>
		<g>
			<path style="fill:#FFFFFF;" d="M640.407,1812.503c1.819,0.929,4.615,1.86,7.498,1.86c3.106,0,4.746-1.285,4.746-3.236
				c0-1.864-1.419-2.926-5.012-4.212c-4.969-1.734-8.208-4.483-8.208-8.829c0-5.105,4.26-9.009,11.313-9.009
				c3.372,0,5.856,0.711,7.631,1.51l-1.508,5.454c-1.197-0.574-3.327-1.416-6.255-1.416c-2.93,0-4.35,1.33-4.35,2.883
				c0,1.908,1.688,2.749,5.547,4.213c5.28,1.954,7.763,4.703,7.763,8.917c0,5.015-3.86,9.274-12.067,9.274
				c-3.416,0-6.788-0.889-8.473-1.82L640.407,1812.503z"/>
			<path style="fill:#FFFFFF;" d="M671.122,1811.791l-2.13,7.677h-7.01l9.14-29.9h8.872l9.273,29.9h-7.277l-2.307-7.677H671.122z
				 M678.708,1806.734l-1.864-6.344c-0.533-1.773-1.064-3.995-1.508-5.766h-0.088c-0.445,1.771-0.887,4.036-1.375,5.766
				l-1.776,6.344H678.708z"/>
			<path style="fill:#FFFFFF;" d="M697.711,1819.468l-9.584-29.9h7.409l3.638,12.642c1.021,3.548,1.953,6.965,2.663,10.693h0.133
				c0.753-3.597,1.686-7.145,2.706-10.562l3.814-12.773h7.189l-10.072,29.9H697.711z"/>
			<path style="fill:#FFFFFF;" d="M736.678,1806.825h-11.003v7.098h12.289v5.545h-19.077v-29.9h18.456v5.542h-11.668v6.213h11.003
				V1806.825z"/>
		</g>
	</g>
	<g>
		<g>
			<path style="fill:#FFFFFF;" d="M630.839,1957.816l-2.431-4.863c-0.996-1.871-1.633-3.266-2.39-4.822h-0.08
				c-0.558,1.556-1.236,2.952-2.072,4.822l-2.231,4.863H614.7l7.77-13.59l-7.492-13.269h6.974l2.352,4.902
				c0.797,1.632,1.394,2.948,2.031,4.462h0.081c0.638-1.712,1.154-2.908,1.832-4.462l2.273-4.902h6.933l-7.57,13.11l7.97,13.749
				H630.839z"/>
			<path style="fill:#FFFFFF;" d="M649.415,1945.342v4.024h-10.439v-4.024H649.415z"/>
			<path style="fill:#FFFFFF;" d="M653.244,1930.958h16.418v4.981h-10.321v6.137h9.645v4.943h-9.645v10.797h-6.097V1930.958z"/>
			<path style="fill:#FFFFFF;" d="M677.836,1950.924l-1.913,6.893h-6.297l8.209-26.859h7.97l8.329,26.859H687.6l-2.072-6.893
				H677.836z M684.65,1946.379l-1.674-5.697c-0.478-1.597-0.956-3.587-1.354-5.185h-0.08c-0.398,1.598-0.797,3.627-1.234,5.185
				l-1.594,5.697H684.65z"/>
			<path style="fill:#FFFFFF;" d="M697.728,1957.816v-26.859h7.094l5.578,9.844c1.594,2.828,3.188,6.177,4.384,9.204h0.119
				c-0.398-3.547-0.518-7.174-0.518-11.198v-7.85h5.579v26.859h-6.376l-5.738-10.361c-1.595-2.867-3.348-6.336-4.663-9.485
				l-0.119,0.039c0.159,3.548,0.239,7.333,0.239,11.719v8.089H697.728z"/>
		</g>
	</g>
	<g>
		<g>
			<path style="fill:#FFFFFF;" d="M609.542,2075.005h-7.212v-5.1h20.642v5.1h-7.332v21.759h-6.098V2075.005z"/>
			<path style="fill:#FFFFFF;" d="M632.263,2069.905v15.461c0,4.624,1.753,6.976,4.862,6.976c3.188,0,4.941-2.233,4.941-6.976
				v-15.461h6.058v15.063c0,8.288-4.185,12.233-11.198,12.233c-6.773,0-10.759-3.747-10.759-12.312v-14.984H632.263z"/>
			<path style="fill:#FFFFFF;" d="M653.39,2070.263c1.953-0.317,4.862-0.556,8.09-0.556c3.984,0,6.774,0.595,8.687,2.11
				c1.594,1.274,2.472,3.15,2.472,5.621c0,3.427-2.432,5.775-4.742,6.614v0.119c1.873,0.759,2.908,2.55,3.586,5.021
				c0.837,3.026,1.673,6.534,2.192,7.572h-6.217c-0.438-0.759-1.075-2.948-1.873-6.257c-0.717-3.349-1.872-4.263-4.343-4.302h-1.833
				v10.559h-6.017V2070.263z M659.407,2081.82h2.391c3.028,0,4.822-1.514,4.822-3.866c0-2.472-1.675-3.706-4.463-3.746
				c-1.476,0-2.313,0.12-2.75,0.198V2081.82z"/>
			<path style="fill:#FFFFFF;" d="M677.026,2070.263c1.594-0.317,4.821-0.556,7.851-0.556c3.706,0,5.977,0.357,7.93,1.513
				c1.873,0.996,3.228,2.829,3.228,5.26c0,2.391-1.396,4.623-4.424,5.74v0.08c3.069,0.833,5.34,3.146,5.34,6.614
				c0,2.431-1.116,4.342-2.789,5.696c-1.953,1.558-5.22,2.433-10.561,2.433c-2.989,0-5.22-0.199-6.575-0.398V2070.263z
				 M683.043,2080.544h1.993c3.188,0,4.902-1.315,4.902-3.306c0-2.033-1.555-3.109-4.305-3.109c-1.315,0-2.072,0.079-2.59,0.159
				V2080.544z M683.043,2092.46c0.598,0.081,1.315,0.081,2.352,0.081c2.749,0,5.18-1.038,5.18-3.866
				c0-2.709-2.431-3.786-5.459-3.786h-2.073V2092.46z"/>
			<path style="fill:#FFFFFF;" d="M725.689,2083.054c0,8.807-5.34,14.147-13.19,14.147c-7.97,0-12.632-6.016-12.632-13.667
				c0-8.052,5.14-14.066,13.07-14.066C721.186,2069.469,725.689,2075.642,725.689,2083.054z M706.282,2083.416
				c0,5.259,2.471,8.966,6.536,8.966c4.104,0,6.455-3.906,6.455-9.129c0-4.818-2.311-8.965-6.495-8.965
				C708.674,2074.288,706.282,2078.192,706.282,2083.416z"/>
		</g>
	</g>
	<g>
		<g>
			<path style="fill:#FFFFFF;" d="M833.906,2090.546c1.633,0.838,4.145,1.672,6.734,1.672c2.79,0,4.263-1.152,4.263-2.907
				c0-1.673-1.275-2.63-4.502-3.786c-4.463-1.553-7.372-4.024-7.372-7.93c0-4.584,3.825-8.087,10.162-8.087
				c3.028,0,5.259,0.635,6.854,1.355l-1.356,4.9c-1.075-0.52-2.988-1.277-5.618-1.277s-3.906,1.195-3.906,2.593
				c0,1.712,1.515,2.467,4.982,3.785c4.743,1.751,6.974,4.223,6.974,8.009c0,4.501-3.467,8.328-10.839,8.328
				c-3.069,0-6.097-0.795-7.611-1.632L833.906,2090.546z"/>
			<path style="fill:#FFFFFF;" d="M855.231,2069.946h6.096v21.757h10.68v5.101h-16.776V2069.946z"/>
			<path style="fill:#FFFFFF;" d="M891.579,2085.446h-9.883v6.376h11.039v4.981H875.6v-26.858h16.577v4.981h-10.48v5.577h9.883
				V2085.446z"/>
			<path style="fill:#FFFFFF;" d="M912.864,2085.446h-9.883v6.376h11.039v4.981h-17.136v-26.858h16.577v4.981h-10.48v5.577h9.883
				V2085.446z"/>
			<path style="fill:#FFFFFF;" d="M918.17,2070.302c1.873-0.318,4.503-0.556,8.209-0.556c3.746,0,6.416,0.716,8.21,2.149
				c1.713,1.358,2.869,3.587,2.869,6.218c0,2.629-0.877,4.861-2.471,6.375c-2.072,1.956-5.14,2.832-8.727,2.832
				c-0.797,0-1.515-0.038-2.072-0.122v9.605h-6.018V2070.302z M924.188,2082.498c0.519,0.119,1.156,0.159,2.033,0.159
				c3.227,0,5.219-1.633,5.219-4.386c0-2.467-1.713-3.944-4.742-3.944c-1.235,0-2.073,0.119-2.51,0.242V2082.498z"/>
		</g>
	</g>
	<g>
		<g>
			<path style="fill:#FFFFFF;" d="M843.818,1936.156h-7.212v-5.102h20.642v5.102h-7.332v21.758h-6.098V1936.156z"/>
			<path style="fill:#FFFFFF;" d="M876.461,1946.557h-9.883v6.375h11.039v4.983h-17.136v-26.859h16.577v4.983h-10.481v5.577h9.883
				V1946.557z"/>
			<path style="fill:#FFFFFF;" d="M904.481,1947.633c-0.12-3.229-0.239-7.135-0.239-11.04h-0.12
				c-0.836,3.429-1.952,7.254-2.988,10.4l-3.268,10.483h-4.742l-2.869-10.4c-0.877-3.15-1.793-6.975-2.431-10.483h-0.08
				c-0.159,3.627-0.278,7.771-0.477,11.12l-0.479,10.202h-5.619l1.714-26.859h8.089l2.63,8.967c0.837,3.106,1.674,6.455,2.271,9.605
				h0.12c0.756-3.11,1.673-6.658,2.55-9.645l2.869-8.927h7.93l1.475,26.859h-5.938L904.481,1947.633z"/>
			<path style="fill:#FFFFFF;" d="M915.489,1931.413c1.872-0.318,4.502-0.556,8.209-0.556c3.746,0,6.415,0.716,8.209,2.149
				c1.713,1.358,2.869,3.587,2.869,6.217s-0.877,4.862-2.471,6.376c-2.073,1.954-5.141,2.832-8.727,2.832
				c-0.797,0-1.515-0.04-2.073-0.122v9.605h-6.017V1931.413z M921.506,1943.608c0.518,0.119,1.156,0.159,2.033,0.159
				c3.228,0,5.22-1.633,5.22-4.386c0-2.468-1.714-3.944-4.742-3.944c-1.236,0-2.073,0.119-2.511,0.242V1943.608z"/>
		</g>
	</g>
	<g>
		<g>
			<path style="fill:#FFFFFF;" d="M1053.434,1936.156h-7.212v-5.102h20.642v5.102h-7.332v21.758h-6.098V1936.156z"/>
			<path style="fill:#FFFFFF;" d="M1076.194,1931.055v26.859h-6.098v-26.859H1076.194z"/>
			<path style="fill:#FFFFFF;" d="M1104.172,1947.633c-0.119-3.229-0.238-7.135-0.238-11.04h-0.121
				c-0.836,3.429-1.952,7.254-2.989,10.4l-3.266,10.483h-4.743l-2.868-10.4c-0.878-3.15-1.795-6.975-2.431-10.483h-0.08
				c-0.16,3.627-0.28,7.771-0.479,11.12l-0.479,10.202h-5.619l1.713-26.859h8.088l2.63,8.967c0.838,3.106,1.676,6.455,2.272,9.605
				h0.119c0.759-3.11,1.675-6.658,2.551-9.645l2.87-8.927h7.931l1.474,26.859h-5.938L1104.172,1947.633z"/>
			<path style="fill:#FFFFFF;" d="M1131.158,1946.557h-9.881v6.375h11.038v4.983h-17.136v-26.859h16.578v4.983h-10.48v5.577h9.881
				V1946.557z"/>
			<path style="fill:#FFFFFF;" d="M1136.464,1931.413c1.954-0.318,4.862-0.556,8.092-0.556c3.984,0,6.772,0.597,8.686,2.11
				c1.595,1.274,2.471,3.149,2.471,5.62c0,3.429-2.431,5.777-4.741,6.615v0.119c1.871,0.758,2.908,2.551,3.585,5.021
				c0.836,3.027,1.674,6.535,2.191,7.572h-6.217c-0.438-0.759-1.075-2.948-1.872-6.257c-0.719-3.348-1.873-4.262-4.343-4.302h-1.834
				v10.56h-6.018V1931.413z M1142.481,1942.969h2.392c3.027,0,4.822-1.514,4.822-3.865c0-2.471-1.674-3.706-4.464-3.746
				c-1.474,0-2.31,0.119-2.75,0.2V1942.969z"/>
		</g>
	</g>
	<g>
		<g>
			<path style="fill:#FFFFFF;" d="M1054.418,2070.064h6.098v21.758h10.678v5.101h-16.776V2070.064z"/>
			<path style="fill:#FFFFFF;" d="M1080.883,2070.064v26.859h-6.096v-26.859H1080.883z"/>
			<path style="fill:#FFFFFF;" d="M1108.583,2095.687c-1.875,0.64-5.42,1.515-8.968,1.515c-4.9,0-8.448-1.236-10.918-3.627
				c-2.471-2.309-3.825-5.817-3.785-9.761c0.039-8.927,6.534-14.027,15.342-14.027c3.467,0,6.137,0.675,7.452,1.315l-1.275,4.861
				c-1.474-0.639-3.307-1.155-6.257-1.155c-5.061,0-8.886,2.868-8.886,8.684c0,5.542,3.468,8.807,8.45,8.807
				c1.395,0,2.51-0.159,2.987-0.397v-5.618h-4.144v-4.743h10.002V2095.687z"/>
			<path style="fill:#FFFFFF;" d="M1119.427,2070.064v10.32h10.002v-10.32h6.058v26.859h-6.058v-11.239h-10.002v11.239h-6.096
				v-26.859H1119.427z"/>
			<path style="fill:#FFFFFF;" d="M1145.975,2075.165h-7.212v-5.101h20.644v5.101h-7.334v21.758h-6.098V2075.165z"/>
		</g>
	</g>
	<g>
		<g>
			<path style="fill:#FFFFFF;" d="M1083.851,1664.037v14.863h14.251v6.41h-14.251v15h-6.682v-15h-14.251v-6.41h14.251v-14.863
				H1083.851z"/>
		</g>
	</g>
	<g>
		<g>
			<path style="fill:#FFFFFF;" d="M1093.169,1802.27v6.892h-24.781v-6.892H1093.169z"/>
		</g>
	</g>
	<path style="fill:#FFFFFF;" d="M689.666,659.135l-21.481-10.711v-45.639l21.481-18.427V659.135z M689.666,738.852l-21.481-18.479
		v-47.274l21.481-9.238V738.852z"/>
	<path style="fill:#FFFFFF;" d="M738.852,649.958l-21.481,9.233V605.94l10.659-9.234l10.822,9.234V649.958z M805.794,729.405
		l-10.992,9.447h-72.935l20.648-18.465h52.286L805.794,729.405z M814.79,661.572l-19.924,8.347l-52.124-0.208l-20.085-8.036
		l20.575-10.428h51.217L814.79,661.572z M805.794,593.915l-10.992,9.019h-52.286l-10.99-9.019l10.99-9.45h52.286L805.794,593.915z
		 M819.78,659.191l-21.481-9.233V605.94l10.658-9.234l10.823,9.234V659.191z M819.78,717.167l-10.823,9.234l-10.658-9.234V674.65
		l21.481-10.736V717.167z"/>
	<path style="fill:#FFFFFF;" d="M871.435,692.1l-11.296,4.855v-28.007l5.605-4.854l5.691,4.854V692.1z M871.435,727.448
		l-5.691,4.857l-5.605-4.857v-28.007l11.296,5.646V727.448z M912.16,657.656l-11.299,9.71h-27.499l-5.779-4.741l5.779-4.969H912.16z
		 M912.16,738.852h-38.798l-5.779-4.967l5.779-4.744h27.499L912.16,738.852z"/>
	<path style="fill:#FFFFFF;" d="M847.68,661.773c-6.324,0-11.468-5.146-11.468-11.468c0-6.325,5.145-11.47,11.468-11.47
		c6.323,0,11.467,5.144,11.467,11.47C859.147,656.627,854.003,661.773,847.68,661.773z M847.68,642.271
		c-4.429,0-8.032,3.605-8.032,8.034s3.603,8.032,8.032,8.032c4.43,0,8.034-3.604,8.034-8.032S852.11,642.271,847.68,642.271z"/>
	<path style="fill:#FFFFFF;" d="M1139.02,757.001c0,2.483-2.58,5.877-4.94,5.877H626.717c-2.361,0-5.784-3.394-5.784-5.877v-0.441
		c0-2.486,3.423-4.272,5.784-4.272h507.362c2.361,0,4.94,1.786,4.94,4.272V757.001z"/>
	<path style="fill:#FFFFFF;" d="M1042.852,590.618c0.304-0.604,0.477-1.28,0.477-2.001c0-0.312-0.032-0.619-0.096-0.913
		c1.595-1.591,4.246-3.878,5.713-3.153c2.195,1.082,8.731,7.873,14.215,1.833c5.482-6.037,5.82-11.146,2.604-14.389
		c0,0-8.562-8.558-15.321-4.746c-6.114,3.448-5.392,12.145-9.293,17.561c-0.658-0.391-1.426-0.615-2.245-0.615
		c-0.743,0-1.444,0.185-2.058,0.507c-1.926-1.18-4.694-3.179-4.344-4.754c0.53-2.39,5.575-10.35-1.592-14.244
		c-7.166-3.892-12.209-3.007-14.597,0.886c0,0-6.282,10.351-0.974,16.011c4.809,5.13,13.104,2.345,19.292,4.868
		c-0.099,0.366-0.151,0.75-0.151,1.148c0,0.946,0.296,1.823,0.802,2.54c-1.589,1.596-4.28,3.938-5.764,3.207
		c-2.194-1.084-8.732-7.873-14.213-1.836c-5.483,6.037-5.821,11.144-2.608,14.388c0,0,8.564,8.562,15.324,4.749
		c6.557-3.698,5.253-13.426,10.209-18.674c0.22,0.034,0.446,0.051,0.674,0.051c0.359,0,0.71-0.044,1.047-0.127
		c1.606,0.886,5.954,3.49,5.52,5.438c-0.529,2.391-5.572,10.352,1.591,14.244c7.167,3.893,12.21,3.009,14.598-0.884
		c0,0,6.282-10.351,0.976-16.012C1057.696,590.433,1049.083,593.509,1042.852,590.618z"/>
	<g>
		<rect x="1036.38" y="636.615" style="fill:#FFFFFF;" width="10.59" height="41.545"/>
		<rect x="1054.301" y="621.952" style="fill:#FFFFFF;" width="10.59" height="56.208"/>
		<rect x="1073.037" y="607.289" style="fill:#FFFFFF;" width="14.663" height="70.871"/>
		<rect x="1095.031" y="592.627" style="fill:#FFFFFF;" width="14.663" height="85.533"/>
		<rect x="1112.952" y="577.963" style="fill:#FFFFFF;" width="12.219" height="100.196"/>
	</g>
	<path style="fill:#FFFFFF;" d="M952.057,708.981l-8.761,3.103V694.19l4.347-3.101l4.414,3.101V708.981z M952.057,731.565
		l-4.414,3.104l-4.347-3.104v-17.894l8.761,3.607V731.565z M983.644,686.975l-8.762,6.205h-21.329l-4.483-3.03l4.483-3.175H983.644z
		 M983.644,738.852h-30.091l-4.483-3.172l4.483-3.033h21.329L983.644,738.852z"/>
	<path style="fill:#FFFFFF;" d="M997.435,708.475l-8.762,3.609V694.19l4.346-3.101l4.416,3.101V708.475z M997.435,731.565
		l-4.416,3.104l-4.346-3.104v-17.894l8.762,3.102V731.565z M1024.74,690.149l-4.484,3.03h-21.328l-4.482-3.03l4.482-3.175h21.328
		L1024.74,690.149z M1024.74,735.68l-4.484,3.172h-21.328l-4.482-3.172l4.482-3.033h21.328L1024.74,735.68z M1030.444,712.084
		l-8.759-3.609V694.19l4.345-3.101l4.414,3.101V712.084z M1030.444,731.565l-4.414,3.104l-4.345-3.104v-14.792l8.759-3.102V731.565z
		"/>
	<path style="fill:#FFFFFF;" d="M1047.903,708.475l-8.762,3.609V694.19l4.346-3.101l4.416,3.101V708.475z M1047.903,731.565
		l-4.416,3.104l-4.346-3.104v-17.894l8.762,3.102V731.565z M1075.21,690.149l-4.483,3.03h-21.329l-4.483-3.03l4.483-3.175h21.329
		L1075.21,690.149z M1075.21,735.68l-4.483,3.172h-21.329l-4.483-3.172l4.483-3.033h21.329L1075.21,735.68z M1080.915,712.084
		l-8.761-3.609V694.19l4.347-3.101l4.414,3.101V712.084z M1080.915,731.565l-4.414,3.104l-4.347-3.104v-14.792l8.761-3.102V731.565z
		"/>
	<path style="fill:#FFFFFF;" d="M1098.372,708.487l-8.762,3.597v-25.126l8.762,6.19V708.487z M1098.372,731.538l-8.762,6.328
		v-24.194l8.762,3.098V731.538z M1130.001,738.852h-38.966l8.833-6.205h21.349L1130.001,738.852z"/>
	<rect x="928.038" y="559.227" style="fill:#FFFFFF;" width="4.073" height="199.578"/>
	<g>
		<path style="fill:#FFFFFF;" d="M939.976,838.896l-8.519-4.157v-17.714l8.519-7.151V838.896z M939.976,869.836l-8.519-7.172
			v-18.349l8.519-3.583V869.836z"/>
		<path style="fill:#FFFFFF;" d="M972.983,835.314l-8.516,3.581V818.23l4.227-3.586l4.289,3.586V835.314z M999.524,866.148
			l-4.356,3.667H966.25l8.186-7.167h20.731L999.524,866.148z M1003.092,839.821l-7.9,3.24l-20.665-0.08l-7.964-3.121l8.157-4.048
			h20.307L1003.092,839.821z M999.524,813.563l-4.356,3.498h-20.731l-4.355-3.498l4.355-3.667h20.731L999.524,813.563z
			 M1005.069,838.896l-8.517-3.581V818.23l4.227-3.586l4.29,3.586V838.896z M1005.069,861.398l-4.29,3.583l-4.227-3.583v-16.501
			l8.517-4.166V861.398z"/>
		<path style="fill:#FFFFFF;" d="M1020.651,843.145h-8.518v-12.333h8.518V843.145z M1020.651,869.815h-8.518v-12.918h8.518V869.815z
			"/>
		<path style="fill:#FFFFFF;" d="M1058.48,813.563l-4.358,3.498h-20.729l-8.188-7.164h28.917L1058.48,813.563z M1058.48,866.148
			l-4.358,3.667h-28.917l8.188-7.167h20.729L1058.48,866.148z M1062.048,839.807l-7.888,3.317l-20.757-0.143l-8-3.297l7.924-3.872
			h20.56L1062.048,839.807z M1064.023,838.896l-8.516-4.165V818.23l4.227-3.586l4.289,3.586V838.896z M1064.023,861.398
			l-4.289,3.583l-4.227-3.583v-17.085l8.516-3.582V861.398z"/>
		<path style="fill:#FFFFFF;" d="M1084.555,834.731l-8.515,4.165V818.23l4.226-3.586l4.289,3.586V834.731z M1084.555,861.398
			l-4.289,3.583l-4.226-3.583v-20.667l8.515,3.582V861.398z M1114.689,839.795l-7.911,3.329l-20.813,0.025l-7.947-3.343l8.158-3.995
			h20.583L1114.689,839.795z M1114.859,809.896l-8.121,7.164h-20.729l-4.356-3.498l4.356-3.667H1114.859z M1111.097,866.148
			l-4.358,3.667h-20.729l-4.356-3.667l4.356-3.5h20.729L1111.097,866.148z M1116.642,861.398l-4.29,3.583l-4.227-3.583v-17.085
			l8.516-3.582V861.398z"/>
	</g>
	<path style="fill:#FFFFFF;" d="M745.348,821.743c0,19.929-10.772,26.992-24.059,26.992c-13.288,0-24.059-7.063-24.059-26.992
		c0-19.934,24.059-45.184,24.059-45.184S745.348,801.809,745.348,821.743z"/>
	<path style="fill:#FFFFFF;" d="M679.148,888.416l-8.199-7.187c0.949-1.083,23.557-26.486,50.532-19.739
		c6.08,1.519,11.959,3.76,17.643,5.928c17.74,6.758,34.496,13.149,59.796,0.497l4.877,9.751
		c-12.313,6.154-23.088,8.382-32.788,8.382c-13.609,0-25.101-4.38-35.767-8.447c-5.634-2.146-10.953-4.175-16.402-5.54
		C698.356,866.947,679.337,888.203,679.148,888.416z"/>
	<path style="fill:#FFFFFF;" d="M679.148,916.232l-8.199-7.186c0.949-1.083,23.557-26.482,50.532-19.742
		c6.08,1.522,11.959,3.761,17.643,5.929c17.74,6.763,34.496,13.15,59.796,0.498l4.877,9.754
		c-12.313,6.156-23.088,8.384-32.788,8.384c-13.609,0-25.101-4.385-35.767-8.449c-5.634-2.149-10.953-4.175-16.402-5.541
		C698.356,894.759,679.337,916.019,679.148,916.232z"/>
	<path style="fill:#FFFFFF;" d="M679.148,945.18l-8.199-7.186c0.949-1.083,23.557-26.487,50.532-19.74
		c6.08,1.519,11.959,3.759,17.643,5.926c17.74,6.762,34.496,13.148,59.796,0.502l4.877,9.747
		c-12.313,6.154-23.088,8.382-32.788,8.382c-13.609,0.003-25.101-4.377-35.767-8.446c-5.634-2.146-10.953-4.176-16.402-5.539
		C698.356,923.706,679.337,944.961,679.148,945.18z"/>
	<g>
		<path style="fill:#FFFFFF;" d="M726.084,1008.563l-7.38,5.955h-52.013l16.89-12.192h35.123L726.084,1008.563z M681.122,1089.911
			l-7.271,6.094l-7.16-6.094v-35.15l14.431,6.099V1089.911z M732.197,1053.226l-13.544,5.368l-35.145,0.289l-13.448-5.683
			l13.42-6.795h34.829L732.197,1053.226z M735.48,1104.225h-51.899l-7.382-6.238l7.382-5.952h38.143L735.48,1104.225z
			 M735.48,1051.645l-14.429-7.084v-28.059l7.161-6.094l7.268,6.094V1051.645z"/>
		<path style="fill:#FFFFFF;" d="M764.226,1044.561l-14.427,7.084v-35.143l7.16-6.094l7.267,6.094V1044.561z M764.226,1089.911
			l-7.267,6.094l-7.16-6.094v-35.15l14.427,6.099V1089.911z M815.238,1053.193l-13.361,5.646l-35.265,0.044l-13.462-5.689
			l13.825-6.788h34.438L815.238,1053.193z M809.193,1008.563l-7.384,5.955h-35.121l-7.381-5.955l7.381-6.237h35.121
			L809.193,1008.563z M809.193,1097.987l-7.384,6.238h-35.121l-7.381-6.238l7.381-5.952h35.121L809.193,1097.987z M818.588,1051.645
			l-14.43-7.084v-28.059l7.159-6.094l7.271,6.094V1051.645z M818.588,1089.911l-7.271,6.094l-7.159-6.094v-29.052l14.43-6.099
			V1089.911z"/>
	</g>
	<g>
		<path style="fill:#FFFFFF;" d="M1088.224,1025.479l-12.003-6.668l8.925-2.693c1.008-0.304,1.577-1.366,1.28-2.383
			c-0.229-0.804-0.959-1.363-1.768-1.363c-0.176,0-0.351,0.029-0.522,0.078l-12.557,3.794l-7.837-4.346l14.754-4.305
			c1.002-0.293,1.611-1.373,1.324-2.348c-0.244-0.818-0.974-1.373-1.806-1.373c-0.181,0-0.366,0.029-0.551,0.076l-18.398,5.36
			l-28.48-15.862l19.975-2.191c1.024-0.107,1.782-1.053,1.705-2.1c-0.131-1.038-1.042-1.788-2.07-1.68l-22.709,2.475l27.595-18.305
			l16.946,4.559c0.206,0.059,0.444,0.079,0.585,0.079c0.833-0.029,1.55-0.594,1.748-1.408l0.011-0.036
			c0.142-0.494,0.082-1.011-0.171-1.45c-0.244-0.434-0.637-0.741-1.111-0.867l-13.75-3.712l7.38-4.9l11.953,3.133
			c0.17,0.034,0.346,0.068,0.497,0.052l0.087-0.007c0.819,0,1.538-0.599,1.762-1.443c0.137-0.486,0.075-0.988-0.173-1.417
			c-0.255-0.434-0.668-0.745-1.165-0.867l-8.7-2.289l11.651-7.707c0.862-0.578,1.111-1.788,0.546-2.634l-0.023-0.036
			c-0.318-0.516-0.887-0.823-1.524-0.823c-0.376,0-0.746,0.113-1.067,0.321l-11.525,7.678l1.851-9.264
			c0.195-1.044-0.468-2.023-1.504-2.221c-0.112-0.02-0.224-0.029-0.336-0.029c-0.906,0-1.686,0.644-1.906,1.572l-2.542,12.895
			l-7.546,4.958l3.226-15.115c0.213-1.008-0.444-2.013-1.472-2.254c-0.112-0.021-0.229-0.029-0.342-0.029
			c-0.915,0-1.694,0.632-1.854,1.504l-3.995,18.895l-24.924,16.526l9.741-18.206c0.255-0.464,0.308-0.979,0.161-1.477
			c-0.145-0.477-0.457-0.867-0.882-1.092c-0.281-0.154-0.579-0.235-0.876-0.235c-0.706,0-1.363,0.402-1.682,1.016l-10.097,18.821
			l-0.482-33.805l13.108-12.195c0.76-0.712,0.794-1.926,0.083-2.695c-0.356-0.394-0.837-0.609-1.354-0.609
			c-0.477,0-0.939,0.186-1.31,0.517l-10.615,9.906l-0.144-8.894l9.195-8.715c0.385-0.356,0.6-0.821,0.619-1.33
			c0.015-0.507-0.171-0.988-0.521-1.36c-0.371-0.404-0.853-0.614-1.369-0.614c-0.477,0-0.934,0.187-1.286,0.523l-6.712,6.395
			l-0.186-14.427c-0.029-1.027-0.852-1.846-1.875-1.846h-0.058c-1.028,0.019-1.872,0.906-1.852,1.928l0.219,14.059l-6.643-6.324
			c-0.351-0.331-0.809-0.516-1.286-0.516c-0.531,0-1.022,0.22-1.387,0.61c-0.727,0.764-0.708,1.983,0.043,2.703l9.278,8.875
			l0.189,9.021l-10.905-10.559c-0.342-0.341-0.79-0.516-1.267-0.516c-0.522,0-1.013,0.205-1.389,0.594
			c-0.721,0.764-0.701,1.979,0.054,2.708l13.556,13.182l0.508,32.977l-11.064-17.886c-0.336-0.538-0.949-0.877-1.597-0.877
			c-0.352,0-0.683,0.107-0.964,0.293l-0.031,0.008c-0.436,0.274-0.744,0.702-0.861,1.199c-0.118,0.496-0.034,1.014,0.238,1.447
			l11.198,18.114l-26.677-14.836l-3.766-17.436c-0.175-0.877-0.935-1.492-1.82-1.492c-0.138,0-0.275,0.01-0.41,0.044
			c-1.039,0.234-1.665,1.248-1.441,2.304l3.021,14.131l-7.688-4.273l-2.771-12.332c-0.171-0.847-0.916-1.454-1.768-1.454
			c-0.146,0-0.288,0.021-0.425,0.051c-0.54,0.127-0.979,0.427-1.251,0.867c-0.259,0.423-0.331,0.925-0.214,1.408l2.036,9.005
			l-12.5-6.916c-0.271-0.167-0.574-0.244-0.876-0.244c-0.691,0-1.335,0.384-1.675,1.003c-0.246,0.447-0.303,0.975-0.151,1.467
			c0.141,0.473,0.457,0.863,0.887,1.09l12.178,6.778l-8.821,2.655c-1.014,0.31-1.599,1.45-1.307,2.458
			c0.225,0.779,0.99,1.404,1.817,1.404h0.049c0.187,0,0.258-0.078,0.434-0.137l0.049-0.048l12.367-3.73l7.886,4.309l-14.646,4.245
			c-0.99,0.3-1.564,1.367-1.271,2.371c0.22,0.823,0.945,1.378,1.768,1.378h0.049c0.107,0,0.278-0.01,0.506-0.079l18.223-5.308
			l28.009,15.526l-22.649,0.643c-1.019,0.04-1.852,1.02-1.852,2.087c0.015,1.013,0.847,1.905,1.894,1.905h0.044l19.884-0.651
			l-27.639,18.315l-17.098-4.635c-0.15-0.039-0.321-0.073-0.491-0.073c-0.872,0-1.617,0.559-1.851,1.407
			c-0.264,1.033,0.296,2.069,1.28,2.339l13.942,3.74l-7.391,4.881l-12.164-3.146c-0.129-0.029-0.276-0.048-0.428-0.048
			c-0.866,0-1.656,0.593-1.869,1.417c-0.132,0.491-0.064,1.004,0.195,1.441c0.253,0.445,0.662,0.755,1.144,0.881l8.836,2.29
			l-11.969,7.936c-0.857,0.568-1.11,1.797-0.554,2.675c0.345,0.523,0.945,0.845,1.602,0.845c0.342-0.014,0.695-0.135,1.033-0.345
			l11.676-7.769l-1.832,9.086c-0.107,0.508-0.015,1.01,0.258,1.435c0.279,0.418,0.686,0.701,1.163,0.807
			c0.158,0.022,0.298,0.03,0.464,0.03c0.896-0.03,1.628-0.651,1.777-1.518l2.578-12.759l7.536-4.994l-3.132,14.965
			c-0.104,0.513-0.006,1.029,0.276,1.453c0.272,0.41,0.683,0.678,1.154,0.769l0.054,0.01c0.054,0.019,0.2,0.041,0.414,0.041
			c0.717-0.015,1.592-0.597,1.797-1.539l3.883-18.658l28.306-18.751l-10.113,18.732c-0.242,0.449-0.291,0.966-0.144,1.446
			c0.141,0.484,0.472,0.882,0.925,1.116l0.04,0.026c0.227,0.13,0.517,0.209,0.793,0.209h0.045c0.73-0.01,1.329-0.371,1.654-0.989
			l10.016-18.574l0.482,31.428l-12.981,12.061c-0.778,0.723-0.833,1.939-0.126,2.718c0.341,0.39,0.803,0.594,1.309,0.594
			c0.477,0,0.95-0.185,1.329-0.525l10.538-9.792l0.112,8.915l-9.088,8.598c-0.746,0.69-0.781,1.922-0.089,2.703
			c0.359,0.37,0.838,0.571,1.354,0.571c0.486,0,0.959-0.185,1.33-0.531l6.551-6.235l0.252,14.072c0,1.058,0.785,1.906,1.823,1.906
			h0.038c1.033,0,1.871-0.964,1.871-2.046l-0.185-13.874l6.766,6.426c0.379,0.359,0.793,0.531,1.192,0.501l0.08-0.009
			c0.515,0,0.997-0.206,1.393-0.596c0.345-0.38,0.531-0.857,0.511-1.363c-0.014-0.498-0.235-0.97-0.609-1.326l-9.455-9.002
			l-0.078-9.002l10.983,10.61c0.342,0.341,0.752,0.462,1.254,0.462h0.043c0.54,0,0.979-0.159,1.364-0.554
			c0.442-0.434,0.525-0.902,0.525-1.241c0-0.517-0.225-1.016-0.609-1.384l-13.664-13.336l-0.477-31.443l12.071,18.45
			c0.327,0.525,0.916,0.844,1.544,0.844c0.414-0.035,0.715-0.132,1.033-0.321c0.871-0.621,1.134-1.795,0.598-2.69l-11.885-18.15
			l30.142,16.766l3.737,17.239c0.204,0.872,0.954,1.407,1.875,1.407h0.033c0.143,0,0.215,0.039,0.235,0.036l0.103,0.003
			c0.492-0.106,0.916-0.394,1.188-0.837c0.273-0.428,0.36-0.915,0.244-1.398l-2.962-13.975l7.651,4.232l2.743,12.214
			c0.195,0.837,0.936,1.435,1.783,1.435h0.097c0.087,0,0.195-0.019,0.322-0.038l0.086-0.014c0.468-0.123,0.878-0.42,1.151-0.858
			s0.36-0.944,0.244-1.436l-2.008-8.803l12.062,6.712c0.347,0.167,0.637,0.244,0.916,0.244h0.088
			c0.867-0.009,1.362-0.561,1.631-1.018c0.248-0.433,0.308-0.95,0.17-1.448C1088.969,1026.121,1088.657,1025.723,1088.224,1025.479z
			"/>
	</g>
</g>
</svg>
