<?xml version="1.0" encoding="utf-8"?>
<!-- Generator: Adobe Illustrator 27.5.0, SVG Export Plug-In . SVG Version: 6.00 Build 0)  -->
<svg version="1.1" xmlns="http://www.w3.org/2000/svg" xmlns:xlink="http://www.w3.org/1999/xlink" x="0px" y="0px"
	 viewBox="0 0 1000 700" style="enable-background:new 0 0 1000 700;" xml:space="preserve">
<g id="BG">
	<rect style="fill:#2E354C;" width="1000" height="700"/>
</g>
<g id="Object">
	<g style="opacity:0.8;">
		<defs>
			<rect id="SVGID_1_" style="opacity:0.8;" width="1000" height="700"/>
		</defs>
		<clipPath id="SVGID_00000011738099872533576450000001928456861372099261_">
			<use xlink:href="#SVGID_1_"  style="overflow:visible;"/>
		</clipPath>
		<g style="opacity:0.15;clip-path:url(#SVGID_00000011738099872533576450000001928456861372099261_);">
			<g>
				<g>
					<path style="fill:#E8D9BC;" d="M1074.02,403.335l-37.95,4.508c-1.062,0.126-0.867,1.776,0.196,1.65l37.95-4.508
						C1075.278,404.859,1075.083,403.209,1074.02,403.335z"/>
					<path style="fill:#E8D9BC;" d="M1111.42,398.892l-23.1,2.744c-1.062,0.126-0.867,1.776,0.196,1.65l23.1-2.744
						C1112.678,400.416,1112.484,398.766,1111.42,398.892z"/>
				</g>
				<g>
					<path style="fill:#E8D9BC;" d="M990.531,339.069l4.508,37.95c0.126,1.062,1.776,0.867,1.65-0.196l-4.508-37.95
						C992.055,337.812,990.404,338.006,990.531,339.069z"/>
					<path style="fill:#E8D9BC;" d="M986.088,301.669l2.744,23.1c0.126,1.062,1.776,0.867,1.65-0.196l-2.744-23.1
						C987.612,300.411,985.962,300.606,986.088,301.669z"/>
				</g>
				<g>
					<path style="fill:#E8D9BC;" d="M926.265,422.559l37.95-4.508c1.062-0.126,0.867-1.776-0.196-1.65l-37.95,4.508
						C925.008,421.035,925.202,422.685,926.265,422.559z"/>
					<path style="fill:#E8D9BC;" d="M888.865,427.001l23.1-2.744c1.062-0.126,0.867-1.776-0.196-1.65l-23.1,2.744
						C887.607,425.477,887.802,427.128,888.865,427.001z"/>
				</g>
				<g>
					<path style="fill:#E8D9BC;" d="M1009.755,486.824l-4.508-37.95c-0.126-1.062-1.776-0.867-1.65,0.196l4.508,37.95
						C1008.231,488.082,1009.881,487.888,1009.755,486.824z"/>
					<path style="fill:#E8D9BC;" d="M1014.197,524.224l-2.744-23.1c-0.126-1.062-1.776-0.867-1.65,0.196l2.744,23.1
						C1012.673,525.482,1014.323,525.288,1014.197,524.224z"/>
				</g>
			</g>
			<g>
				<g>
					<path style="fill:#E8D9BC;" d="M1027.228,347.724l-13.979,32.575c-0.422,0.983,1.104,1.639,1.527,0.655l13.979-32.575
						C1029.177,347.397,1027.651,346.74,1027.228,347.724z"/>
				</g>
				<g>
					<path style="fill:#E8D9BC;" d="M957.201,356.879l21.221,28.394c0.64,0.856,1.972-0.137,1.331-0.995l-21.221-28.394
						C957.892,355.027,956.56,356.021,957.201,356.879z"/>
				</g>
				<g>
					<path style="fill:#E8D9BC;" d="M973.057,478.17l13.979-32.575c0.422-0.982-1.104-1.639-1.527-0.655l-13.979,32.575
						C971.109,478.497,972.635,479.154,973.057,478.17z"/>
				</g>
				<g>
					<path style="fill:#E8D9BC;" d="M1043.084,469.015l-21.221-28.394c-0.64-0.857-1.972,0.137-1.331,0.995l21.221,28.394
						C1042.394,470.866,1043.726,469.873,1043.084,469.015z"/>
				</g>
			</g>
			<g>
				<g>
					<path style="fill:#E8D9BC;" d="M990.988,342.919l4.181,35.2c0.126,1.062,1.776,0.867,1.65-0.196l-4.181-35.2
						C992.512,341.662,990.862,341.856,990.988,342.919z"/>
				</g>
				<g>
					<path style="fill:#E8D9BC;" d="M934.92,385.861l32.575,13.979c0.982,0.422,1.639-1.104,0.655-1.527l-32.575-13.979
						C934.593,383.913,933.936,385.439,934.92,385.861z"/>
				</g>
				<g>
					<path style="fill:#E8D9BC;" d="M944.075,455.889l28.394-21.221c0.857-0.64-0.137-1.972-0.995-1.331l-28.394,21.221
						C942.223,455.198,943.217,456.53,944.075,455.889z"/>
				</g>
				<g>
					<path style="fill:#E8D9BC;" d="M1009.297,482.974l-4.181-35.2c-0.126-1.062-1.776-0.868-1.65,0.196l4.181,35.2
						C1007.773,484.232,1009.424,484.038,1009.297,482.974z"/>
				</g>
				<g>
					<path style="fill:#E8D9BC;" d="M1065.365,440.032l-32.575-13.979c-0.983-0.422-1.639,1.104-0.655,1.527l32.575,13.979
						C1065.693,441.981,1066.35,440.455,1065.365,440.032z"/>
				</g>
				<g>
					<path style="fill:#E8D9BC;" d="M1056.211,370.005l-28.394,21.221c-0.856,0.64,0.137,1.972,0.995,1.331l28.394-21.221
						C1058.062,370.696,1057.069,369.364,1056.211,370.005z"/>
				</g>
			</g>
			<g>
				<g>
					<path style="fill:#E8D9BC;" d="M938.931,365.791l29.152,22.962c0.84,0.662,1.87-0.643,1.028-1.305l-29.152-22.962
						C939.12,363.824,938.09,365.128,938.931,365.791z"/>
					<path style="fill:#E8D9BC;" d="M923.703,353.796l9.137,7.197c0.84,0.662,1.87-0.643,1.028-1.305l-9.137-7.197
						C923.891,351.829,922.861,353.133,923.703,353.796z"/>
				</g>
				<g>
					<path style="fill:#E8D9BC;" d="M928.698,442.379l34.462-13.766c0.993-0.397,0.378-1.94-0.616-1.543l-34.462,13.766
						C927.089,441.233,927.704,442.777,928.698,442.379z"/>
					<path style="fill:#E8D9BC;" d="M910.696,449.57l10.802-4.315c0.993-0.397,0.378-1.94-0.616-1.543l-10.801,4.315
						C909.087,448.424,909.702,449.968,910.696,449.57z"/>
				</g>
				<g>
					<path style="fill:#E8D9BC;" d="M989.91,489.536l5.31-36.728c0.153-1.058-1.491-1.298-1.644-0.238l-5.31,36.727
						C988.112,490.356,989.757,490.595,989.91,489.536z"/>
					<path style="fill:#E8D9BC;" d="M987.136,508.721l1.664-11.512c0.153-1.058-1.491-1.298-1.644-0.238l-1.664,11.512
						C985.339,509.542,986.983,509.781,987.136,508.721z"/>
				</g>
				<g>
					<path style="fill:#E8D9BC;" d="M1061.354,460.103l-29.152-22.962c-0.84-0.662-1.87,0.643-1.028,1.305l29.152,22.962
						C1061.166,462.07,1062.195,460.766,1061.354,460.103z"/>
					<path style="fill:#E8D9BC;" d="M1076.583,472.098l-9.137-7.197c-0.84-0.661-1.87,0.643-1.028,1.305l9.137,7.197
						C1076.395,474.065,1077.424,472.761,1076.583,472.098z"/>
				</g>
				<g>
					<path style="fill:#E8D9BC;" d="M1071.587,383.514l-34.462,13.765c-0.993,0.397-0.378,1.94,0.616,1.543l34.462-13.766
						C1073.196,384.661,1072.581,383.117,1071.587,383.514z"/>
					<path style="fill:#E8D9BC;" d="M1089.589,376.323l-10.801,4.314c-0.993,0.397-0.378,1.94,0.616,1.543l10.801-4.315
						C1091.198,377.47,1090.584,375.926,1089.589,376.323z"/>
				</g>
				<g>
					<path style="fill:#E8D9BC;" d="M1010.375,336.358l-5.31,36.727c-0.153,1.058,1.491,1.298,1.644,0.238l5.31-36.728
						C1012.173,335.538,1010.529,335.298,1010.375,336.358z"/>
					<path style="fill:#E8D9BC;" d="M1013.149,317.172l-1.664,11.511c-0.153,1.058,1.491,1.298,1.644,0.238l1.664-11.511
						C1014.947,316.352,1013.302,316.112,1013.149,317.172z"/>
				</g>
			</g>
			<g>
				<g>
					<path style="fill:#E8D9BC;" d="M1047.299,351.735l-22.962,29.152c-0.661,0.84,0.643,1.869,1.305,1.028l22.962-29.152
						C1049.266,351.924,1047.962,350.894,1047.299,351.735z"/>
					<path style="fill:#E8D9BC;" d="M1059.294,336.507l-7.197,9.137c-0.662,0.84,0.643,1.87,1.305,1.028l7.197-9.137
						C1061.261,336.695,1059.957,335.665,1059.294,336.507z"/>
				</g>
				<g>
					<path style="fill:#E8D9BC;" d="M970.71,341.503l13.766,34.462c0.397,0.993,1.94,0.378,1.543-0.616l-13.766-34.462
						C971.857,339.893,970.313,340.508,970.71,341.503z"/>
					<path style="fill:#E8D9BC;" d="M963.519,323.5l4.314,10.801c0.397,0.993,1.94,0.378,1.543-0.616l-4.315-10.801
						C964.666,321.891,963.122,322.506,963.519,323.5z"/>
				</g>
				<g>
					<path style="fill:#E8D9BC;" d="M923.554,402.714l36.727,5.309c1.058,0.153,1.298-1.491,0.238-1.645l-36.728-5.309
						C922.734,400.917,922.494,402.561,923.554,402.714z"/>
					<path style="fill:#E8D9BC;" d="M904.368,399.94l11.512,1.664c1.058,0.153,1.298-1.491,0.238-1.645l-11.512-1.664
						C903.548,398.143,903.308,399.787,904.368,399.94z"/>
				</g>
				<g>
					<path style="fill:#E8D9BC;" d="M952.987,474.158l22.962-29.152c0.662-0.84-0.643-1.869-1.305-1.028l-22.962,29.152
						C951.02,473.97,952.324,475,952.987,474.158z"/>
					<path style="fill:#E8D9BC;" d="M940.992,489.387l7.197-9.137c0.661-0.84-0.643-1.869-1.305-1.028l-7.197,9.137
						C939.025,489.199,940.329,490.228,940.992,489.387z"/>
				</g>
				<g>
					<path style="fill:#E8D9BC;" d="M1029.575,484.391l-13.765-34.462c-0.397-0.993-1.94-0.378-1.543,0.616l13.766,34.462
						C1028.429,486,1029.973,485.385,1029.575,484.391z"/>
					<path style="fill:#E8D9BC;" d="M1036.766,502.393l-4.315-10.802c-0.397-0.993-1.94-0.378-1.543,0.616l4.315,10.801
						C1035.62,504.003,1037.163,503.388,1036.766,502.393z"/>
				</g>
				<g>
					<path style="fill:#E8D9BC;" d="M1076.731,423.18l-36.727-5.31c-1.058-0.153-1.298,1.491-0.238,1.645l36.727,5.31
						C1077.552,424.977,1077.791,423.333,1076.731,423.18z"/>
					<path style="fill:#E8D9BC;" d="M1095.917,425.953l-11.512-1.664c-1.058-0.153-1.298,1.491-0.238,1.645l11.511,1.664
						C1096.738,427.751,1096.977,426.106,1095.917,425.953z"/>
				</g>
			</g>
		</g>
		<g style="opacity:0.4;clip-path:url(#SVGID_00000011738099872533576450000001928456861372099261_);">
			<g>
				<g>
					<path style="fill:#E8D9BC;" d="M775.636,545.652l99.796,77.912c1.66,1.296,3.7-1.265,2.037-2.563l-99.796-77.912
						C776.012,541.792,773.972,544.354,775.636,545.652z"/>
					<path style="fill:#E8D9BC;" d="M726.598,507.368l31.832,24.851c1.661,1.297,3.701-1.265,2.037-2.563l-31.832-24.852
						C726.974,503.508,724.934,506.069,726.598,507.368z"/>
				</g>
				<g>
					<path style="fill:#E8D9BC;" d="M740.648,628.484l125.81,17.913c2.094,0.298,2.571-2.929,0.474-3.227l-125.81-17.913
						C739.029,624.958,738.551,628.185,740.648,628.484z"/>
					<path style="fill:#E8D9BC;" d="M678.828,619.682l40.129,5.714c2.094,0.298,2.571-2.929,0.474-3.228l-40.129-5.714
						C677.208,616.156,676.731,619.383,678.828,619.682z"/>
				</g>
				<g>
					<path style="fill:#E8D9BC;" d="M752.077,717.482l118.113-46.886c1.966-0.78,0.752-3.808-1.216-3.027L750.86,714.456
						C748.895,715.236,750.108,718.264,752.077,717.482z"/>
					<path style="fill:#E8D9BC;" d="M694.039,740.521l37.674-14.955c1.966-0.78,0.752-3.808-1.217-3.027l-37.674,14.955
						C690.857,738.274,692.07,741.303,694.039,740.521z"/>
				</g>
				<g>
					<path style="fill:#E8D9BC;" d="M806.859,788.801l78.768-99.122c1.311-1.65-1.268-3.667-2.581-2.015l-78.768,99.122
						C802.967,788.435,805.546,790.453,806.859,788.801z"/>
					<path style="fill:#E8D9BC;" d="M768.154,837.508l25.124-31.617c1.311-1.65-1.268-3.667-2.581-2.015l-25.124,31.617
						C764.262,837.142,766.841,839.16,768.154,837.508z"/>
				</g>
				<g>
					<path style="fill:#E8D9BC;" d="M890.315,823.33l18.317-124.799c0.305-2.077-2.949-2.543-3.254-0.463l-18.317,124.799
						C886.757,824.943,890.01,825.41,890.315,823.33z"/>
					<path style="fill:#E8D9BC;" d="M881.315,884.654l5.842-39.807c0.305-2.077-2.948-2.544-3.254-0.463l-5.842,39.807
						C877.756,886.267,881.009,886.734,881.315,884.654z"/>
				</g>
				<g>
					<path style="fill:#E8D9BC;" d="M980.084,811.817l-47.042-117.035c-0.783-1.948-3.839-0.738-3.054,1.213l47.042,117.035
						C977.812,814.977,980.868,813.768,980.084,811.817z"/>
					<path style="fill:#E8D9BC;" d="M1003.2,869.326l-15.005-37.33c-0.783-1.947-3.839-0.738-3.055,1.213l15.005,37.33
						C1000.928,872.486,1003.984,871.277,1003.2,869.326z"/>
				</g>
				<g>
					<path style="fill:#E8D9BC;" d="M1052.112,757.348l-99.796-77.912c-1.661-1.296-3.701,1.265-2.037,2.564l99.796,77.912
						C1051.736,761.208,1053.776,758.646,1052.112,757.348z"/>
					<path style="fill:#E8D9BC;" d="M1101.15,795.632l-31.831-24.852c-1.661-1.297-3.701,1.265-2.037,2.563l31.832,24.852
						C1100.774,799.492,1102.813,796.931,1101.15,795.632z"/>
				</g>
				<g>
					<path style="fill:#E8D9BC;" d="M1087.099,674.516l-125.81-17.913c-2.094-0.298-2.571,2.929-0.474,3.227l125.81,17.913
						C1088.719,678.042,1089.196,674.815,1087.099,674.516z"/>
					<path style="fill:#E8D9BC;" d="M1148.92,683.318l-40.129-5.714c-2.094-0.298-2.571,2.929-0.474,3.228l40.129,5.714
						C1150.539,686.844,1151.017,683.617,1148.92,683.318z"/>
				</g>
				<g>
					<path style="fill:#E8D9BC;" d="M1075.671,585.518l-118.113,46.886c-1.965,0.78-0.752,3.808,1.217,3.027l118.113-46.886
						C1078.853,587.764,1077.64,584.736,1075.671,585.518z"/>
					<path style="fill:#E8D9BC;" d="M1133.709,562.479l-37.674,14.955c-1.966,0.78-0.752,3.808,1.217,3.027l37.674-14.955
						C1136.891,564.726,1135.678,561.697,1133.709,562.479z"/>
				</g>
				<g>
					<path style="fill:#E8D9BC;" d="M1020.889,514.199l-78.768,99.123c-1.311,1.649,1.268,3.667,2.581,2.015l78.768-99.122
						C1024.781,514.565,1022.202,512.547,1020.889,514.199z"/>
					<path style="fill:#E8D9BC;" d="M1059.594,465.492l-25.124,31.617c-1.311,1.65,1.268,3.667,2.581,2.015l25.124-31.617
						C1063.485,465.858,1060.907,463.84,1059.594,465.492z"/>
				</g>
				<g>
					<path style="fill:#E8D9BC;" d="M937.432,479.67l-18.317,124.799c-0.305,2.077,2.948,2.544,3.253,0.463l18.317-124.799
						C940.991,478.056,937.738,477.59,937.432,479.67z"/>
					<path style="fill:#E8D9BC;" d="M946.433,418.346l-5.842,39.807c-0.305,2.077,2.948,2.543,3.254,0.463l5.843-39.807
						C949.992,416.733,946.738,416.266,946.433,418.346z"/>
				</g>
				<g>
					<path style="fill:#E8D9BC;" d="M847.664,491.183l47.042,117.035c0.783,1.948,3.839,0.738,3.055-1.213L850.718,489.97
						C849.935,488.023,846.879,489.232,847.664,491.183z"/>
					<path style="fill:#E8D9BC;" d="M824.548,433.674l15.005,37.33c0.783,1.947,3.839,0.738,3.055-1.213l-15.005-37.33
						C826.82,430.514,823.764,431.723,824.548,433.674z"/>
				</g>
			</g>
			<g>
				<g>
					<path style="fill:#E8D9BC;" d="M831.886,662.88l45.716-5.43c2.101-0.25,1.72-3.487-0.385-3.237l-45.716,5.43
						C829.4,659.892,829.781,663.13,831.886,662.88z"/>
					<path style="fill:#E8D9BC;" d="M745.896,673.094l68.574-8.145c2.101-0.25,1.72-3.487-0.385-3.237l-68.574,8.145
						C743.41,670.106,743.791,673.344,745.896,673.094z"/>
					<path style="fill:#E8D9BC;" d="M715.419,676.714l15.239-1.81c2.101-0.25,1.72-3.487-0.385-3.237l-15.239,1.81
						C712.933,673.727,713.314,676.964,715.419,676.714z"/>
				</g>
				<g>
					<path style="fill:#E8D9BC;" d="M848.526,701.997l36.899-27.365c1.696-1.258-0.267-3.87-1.966-2.61l-36.899,27.365
						C844.864,700.645,846.827,703.257,848.526,701.997z"/>
					<path style="fill:#E8D9BC;" d="M779.119,753.469l55.349-41.048c1.696-1.258-0.267-3.87-1.966-2.61l-55.349,41.048
						C775.458,752.117,777.421,754.729,779.119,753.469z"/>
					<path style="fill:#E8D9BC;" d="M754.52,771.713l12.3-9.122c1.696-1.258-0.267-3.87-1.966-2.61l-12.3,9.122
						C750.858,770.361,752.821,772.972,754.52,771.713z"/>
				</g>
				<g>
					<path style="fill:#E8D9BC;" d="M882.675,727.583l18.196-41.968c0.836-1.929-2.182-3.215-3.02-1.283L879.655,726.3
						C878.819,728.229,881.838,729.515,882.675,727.583z"/>
					<path style="fill:#E8D9BC;" d="M848.45,806.522l27.294-62.951c0.836-1.929-2.183-3.215-3.02-1.283l-27.293,62.951
						C844.594,807.168,847.612,808.454,848.45,806.522z"/>
					<path style="fill:#E8D9BC;" d="M836.32,834.5l6.065-13.989c0.836-1.929-2.183-3.215-3.02-1.283l-6.065,13.989
						C832.463,835.146,835.482,836.432,836.32,834.5z"/>
				</g>
				<g>
					<path style="fill:#E8D9BC;" d="M925.185,732.783l-5.384-45.325c-0.247-2.083-3.513-1.699-3.266,0.388l5.384,45.325
						C922.167,735.254,925.432,734.869,925.185,732.783z"/>
					<path style="fill:#E8D9BC;" d="M935.311,818.036l-8.076-67.987c-0.247-2.083-3.513-1.699-3.266,0.388l8.076,67.987
						C932.293,820.507,935.559,820.123,935.311,818.036z"/>
					<path style="fill:#E8D9BC;" d="M938.9,848.253l-1.795-15.108c-0.247-2.083-3.513-1.699-3.266,0.388l1.795,15.108
						C935.882,850.724,939.148,850.339,938.9,848.253z"/>
				</g>
				<g>
					<path style="fill:#E8D9BC;" d="M964.663,716.203l-27.521-36.537c-1.265-1.679-3.903,0.273-2.636,1.955l27.521,36.537
						C963.292,719.837,965.93,717.885,964.663,716.203z"/>
					<path style="fill:#E8D9BC;" d="M1016.428,784.927l-41.281-54.806c-1.265-1.679-3.903,0.273-2.636,1.955l41.281,54.806
						C1015.057,788.561,1017.695,786.609,1016.428,784.927z"/>
					<path style="fill:#E8D9BC;" d="M1034.775,809.286l-9.173-12.179c-1.265-1.679-3.903,0.272-2.636,1.955l9.173,12.179
						C1033.404,812.92,1036.042,810.968,1034.775,809.286z"/>
				</g>
				<g>
					<path style="fill:#E8D9BC;" d="M990.533,682.286l-42.283-17.96c-1.943-0.825-3.246,2.171-1.3,2.998l42.283,17.96
						C991.177,686.109,992.479,683.112,990.533,682.286z"/>
					<path style="fill:#E8D9BC;" d="M1070.066,716.067l-63.425-26.94c-1.943-0.825-3.246,2.171-1.3,2.998l63.425,26.939
						C1070.709,719.89,1072.012,716.894,1070.066,716.067z"/>
					<path style="fill:#E8D9BC;" d="M1098.255,728.04l-14.095-5.986c-1.943-0.826-3.246,2.171-1.3,2.998l14.094,5.986
						C1098.898,731.863,1100.201,728.867,1098.255,728.04z"/>
				</g>
				<g>
					<path style="fill:#E8D9BC;" d="M995.862,640.12l-45.716,5.43c-2.101,0.25-1.72,3.487,0.384,3.237l45.716-5.43
						C998.347,643.108,997.966,639.87,995.862,640.12z"/>
					<path style="fill:#E8D9BC;" d="M1081.852,629.906l-68.574,8.145c-2.101,0.25-1.72,3.487,0.384,3.237l68.574-8.145
						C1084.337,632.894,1083.956,629.656,1081.852,629.906z"/>
					<path style="fill:#E8D9BC;" d="M1112.329,626.286l-15.239,1.81c-2.101,0.25-1.72,3.487,0.385,3.237l15.239-1.81
						C1114.815,629.273,1114.434,626.036,1112.329,626.286z"/>
				</g>
				<g>
					<path style="fill:#E8D9BC;" d="M979.222,601.003l-36.899,27.365c-1.696,1.258,0.267,3.87,1.966,2.61l36.899-27.365
						C982.884,602.355,980.921,599.743,979.222,601.003z"/>
					<path style="fill:#E8D9BC;" d="M1048.628,549.531l-55.349,41.048c-1.696,1.258,0.267,3.87,1.966,2.61l55.349-41.048
						C1052.29,550.883,1050.327,548.271,1048.628,549.531z"/>
					<path style="fill:#E8D9BC;" d="M1073.228,531.287l-12.3,9.122c-1.696,1.258,0.267,3.87,1.966,2.61l12.3-9.122
						C1076.89,532.639,1074.927,530.028,1073.228,531.287z"/>
				</g>
				<g>
					<path style="fill:#E8D9BC;" d="M945.073,575.417l-18.196,41.968c-0.836,1.929,2.183,3.215,3.02,1.283l18.196-41.968
						C948.929,574.771,945.91,573.485,945.073,575.417z"/>
					<path style="fill:#E8D9BC;" d="M979.298,496.478l-27.293,62.951c-0.836,1.929,2.182,3.215,3.02,1.283l27.293-62.951
						C983.154,495.832,980.135,494.546,979.298,496.478z"/>
					<path style="fill:#E8D9BC;" d="M991.428,468.5l-6.065,13.989c-0.836,1.929,2.183,3.215,3.02,1.283l6.065-13.989
						C995.284,467.854,992.266,466.568,991.428,468.5z"/>
				</g>
				<g>
					<path style="fill:#E8D9BC;" d="M902.563,570.217l5.384,45.325c0.247,2.083,3.513,1.699,3.266-0.388l-5.384-45.325
						C905.581,567.746,902.315,568.131,902.563,570.217z"/>
					<path style="fill:#E8D9BC;" d="M892.437,484.964l8.076,67.987c0.247,2.083,3.513,1.699,3.265-0.388l-8.076-67.987
						C895.455,482.493,892.189,482.877,892.437,484.964z"/>
					<path style="fill:#E8D9BC;" d="M888.847,454.747l1.795,15.108c0.247,2.083,3.513,1.699,3.266-0.388l-1.795-15.108
						C891.866,452.276,888.6,452.661,888.847,454.747z"/>
				</g>
				<g>
					<path style="fill:#E8D9BC;" d="M863.085,586.797l27.52,36.537c1.265,1.679,3.903-0.273,2.636-1.955l-27.521-36.537
						C864.455,583.163,861.818,585.115,863.085,586.797z"/>
					<path style="fill:#E8D9BC;" d="M811.32,518.073l41.281,54.806c1.265,1.679,3.903-0.273,2.636-1.955l-41.281-54.806
						C812.69,514.439,810.053,516.391,811.32,518.073z"/>
					<path style="fill:#E8D9BC;" d="M792.973,493.714l9.174,12.179c1.265,1.679,3.903-0.272,2.636-1.955l-9.174-12.179
						C794.344,490.08,791.706,492.032,792.973,493.714z"/>
				</g>
				<g>
					<path style="fill:#E8D9BC;" d="M837.215,620.714l42.283,17.96c1.943,0.826,3.246-2.171,1.3-2.998l-42.283-17.96
						C836.571,616.891,835.268,619.888,837.215,620.714z"/>
					<path style="fill:#E8D9BC;" d="M757.682,586.933l63.425,26.94c1.944,0.825,3.246-2.171,1.3-2.998l-63.425-26.939
						C757.038,583.11,755.735,586.106,757.682,586.933z"/>
					<path style="fill:#E8D9BC;" d="M729.493,574.96l14.094,5.986c1.943,0.826,3.246-2.171,1.3-2.998l-14.094-5.986
						C728.85,571.137,727.547,574.133,729.493,574.96z"/>
				</g>
			</g>
		</g>
		<g style="opacity:0.1;clip-path:url(#SVGID_00000011738099872533576450000001928456861372099261_);">
			<g>
				<g>
					<path style="fill:#E8D9BC;" d="M691.154,672.674l-43.847,55.668c-1.017,1.291,0.988,2.873,2.006,1.58l43.847-55.668
						C694.177,672.963,692.172,671.381,691.154,672.674z"/>
					<path style="fill:#E8D9BC;" d="M727.013,627.147l-20.936,26.58c-1.017,1.291,0.988,2.873,2.006,1.58l20.936-26.58
						C730.036,627.437,728.032,625.854,727.013,627.147z"/>
				</g>
				<g>
					<path style="fill:#E8D9BC;" d="M596.137,646.934l8.358,70.368c0.194,1.632,2.73,1.333,2.536-0.301l-8.358-70.368
						C598.479,645.001,595.943,645.3,596.137,646.934z"/>
					<path style="fill:#E8D9BC;" d="M589.301,589.386l3.991,33.599c0.194,1.632,2.73,1.333,2.536-0.301l-3.991-33.599
						C591.643,587.453,589.107,587.751,589.301,589.386z"/>
				</g>
				<g>
					<path style="fill:#E8D9BC;" d="M510.749,695.921l55.668,43.847c1.291,1.017,2.873-0.988,1.58-2.006l-55.668-43.848
						C511.038,692.898,509.456,694.903,510.749,695.921z"/>
					<path style="fill:#E8D9BC;" d="M465.222,660.062l26.58,20.936c1.291,1.017,2.873-0.988,1.58-2.006l-26.58-20.936
						C465.511,657.039,463.929,659.043,465.222,660.062z"/>
				</g>
				<g>
					<path style="fill:#E8D9BC;" d="M485.009,790.938l70.368-8.358c1.632-0.194,1.333-2.73-0.301-2.536l-70.368,8.359
						C483.076,788.596,483.374,791.132,485.009,790.938z"/>
					<path style="fill:#E8D9BC;" d="M427.461,797.774l33.599-3.991c1.632-0.194,1.333-2.73-0.301-2.536l-33.599,3.991
						C425.528,795.432,425.826,797.968,427.461,797.774z"/>
				</g>
				<g>
					<path style="fill:#E8D9BC;" d="M533.996,876.326l43.847-55.668c1.017-1.291-0.988-2.873-2.006-1.58l-43.847,55.668
						C530.973,876.037,532.977,877.619,533.996,876.326z"/>
					<path style="fill:#E8D9BC;" d="M498.136,921.853l20.936-26.58c1.017-1.291-0.988-2.873-2.006-1.58l-20.936,26.58
						C495.114,921.564,497.118,923.146,498.136,921.853z"/>
				</g>
				<g>
					<path style="fill:#E8D9BC;" d="M629.013,902.066l-8.359-70.368c-0.194-1.632-2.73-1.333-2.536,0.301l8.358,70.368
						C626.671,903.999,629.207,903.701,629.013,902.066z"/>
					<path style="fill:#E8D9BC;" d="M635.849,959.614l-3.991-33.599c-0.194-1.632-2.73-1.333-2.536,0.301l3.991,33.599
						C633.507,961.547,636.043,961.249,635.849,959.614z"/>
				</g>
				<g>
					<path style="fill:#E8D9BC;" d="M714.401,853.079l-55.668-43.848c-1.291-1.016-2.873,0.988-1.58,2.006l55.668,43.847
						C714.112,856.102,715.694,854.098,714.401,853.079z"/>
					<path style="fill:#E8D9BC;" d="M759.928,888.938l-26.58-20.936c-1.291-1.016-2.873,0.988-1.58,2.006l26.58,20.936
						C759.638,891.961,761.221,889.957,759.928,888.938z"/>
				</g>
				<g>
					<path style="fill:#E8D9BC;" d="M740.141,758.062l-70.368,8.358c-1.632,0.194-1.333,2.73,0.301,2.536l70.368-8.358
						C742.074,760.404,741.775,757.867,740.141,758.062z"/>
					<path style="fill:#E8D9BC;" d="M797.689,751.226l-33.599,3.991c-1.632,0.194-1.333,2.73,0.301,2.536l33.599-3.991
						C799.622,753.568,799.324,751.032,797.689,751.226z"/>
				</g>
			</g>
			<g>
				<g>
					<path style="fill:#E8D9BC;" d="M672.937,660.667l-19.802,36.466c-0.784,1.444,1.459,2.665,2.244,1.219l19.802-36.466
						C675.965,660.442,673.722,659.221,672.937,660.667z"/>
					<path style="fill:#E8D9BC;" d="M694.872,620.274l-9.444,17.392c-0.784,1.444,1.459,2.665,2.244,1.219l9.444-17.392
						C697.9,620.049,695.657,618.828,694.872,620.274z"/>
				</g>
				<g>
					<path style="fill:#E8D9BC;" d="M574.765,651.326l11.783,39.788c0.466,1.575,2.916,0.853,2.448-0.725l-11.783-39.788
						C576.747,649.025,574.298,649.748,574.765,651.326z"/>
					<path style="fill:#E8D9BC;" d="M561.713,607.253l5.62,18.976c0.467,1.576,2.916,0.853,2.448-0.725l-5.62-18.976
						C563.695,604.953,561.246,605.675,561.713,607.253z"/>
				</g>
				<g>
					<path style="fill:#E8D9BC;" d="M498.742,714.138l36.466,19.802c1.444,0.784,2.665-1.459,1.219-2.244l-36.466-19.802
						C498.517,711.11,497.296,713.353,498.742,714.138z"/>
					<path style="fill:#E8D9BC;" d="M458.349,692.203l17.392,9.444c1.444,0.784,2.665-1.459,1.219-2.244l-17.392-9.444
						C458.123,689.175,456.902,691.418,458.349,692.203z"/>
				</g>
				<g>
					<path style="fill:#E8D9BC;" d="M489.401,812.31l39.788-11.783c1.576-0.467,0.853-2.916-0.725-2.449l-39.788,11.783
						C487.1,810.328,487.823,812.777,489.401,812.31z"/>
					<path style="fill:#E8D9BC;" d="M445.328,825.362l18.976-5.619c1.575-0.467,0.853-2.916-0.725-2.449l-18.976,5.62
						C443.027,823.38,443.75,825.829,445.328,825.362z"/>
				</g>
				<g>
					<path style="fill:#E8D9BC;" d="M552.213,888.333l19.802-36.466c0.784-1.444-1.459-2.665-2.244-1.219l-19.803,36.466
						C549.185,888.558,551.428,889.779,552.213,888.333z"/>
					<path style="fill:#E8D9BC;" d="M530.278,928.726l9.444-17.392c0.784-1.444-1.459-2.665-2.244-1.219l-9.444,17.392
						C527.25,928.951,529.493,930.172,530.278,928.726z"/>
				</g>
				<g>
					<path style="fill:#E8D9BC;" d="M650.384,897.674l-11.783-39.788c-0.466-1.576-2.916-0.853-2.448,0.725l11.783,39.788
						C648.403,899.975,650.852,899.252,650.384,897.674z"/>
					<path style="fill:#E8D9BC;" d="M663.437,941.747l-5.62-18.976c-0.466-1.575-2.916-0.853-2.448,0.725l5.62,18.976
						C661.455,944.047,663.904,943.325,663.437,941.747z"/>
				</g>
				<g>
					<path style="fill:#E8D9BC;" d="M726.407,834.862l-36.466-19.802c-1.444-0.784-2.665,1.459-1.219,2.244l36.466,19.802
						C726.633,837.89,727.854,835.647,726.407,834.862z"/>
					<path style="fill:#E8D9BC;" d="M766.801,856.797l-17.392-9.444c-1.444-0.784-2.665,1.459-1.219,2.244l17.392,9.444
						C767.026,859.825,768.247,857.582,766.801,856.797z"/>
				</g>
				<g>
					<path style="fill:#E8D9BC;" d="M735.749,736.69l-39.788,11.783c-1.575,0.466-0.853,2.916,0.725,2.448l39.788-11.783
						C738.049,738.672,737.327,736.223,735.749,736.69z"/>
					<path style="fill:#E8D9BC;" d="M779.822,723.638l-18.976,5.62c-1.576,0.467-0.853,2.916,0.725,2.448l18.976-5.62
						C782.122,725.62,781.4,723.171,779.822,723.638z"/>
				</g>
			</g>
			<g>
				<g>
					<path style="fill:#E8D9BC;" d="M698.838,705.268l-14.571,11.421c-1.293,1.013,0.28,3.025,1.575,2.01l14.572-11.421
						C701.707,706.264,700.134,704.253,698.838,705.268z"/>
					<path style="fill:#E8D9BC;" d="M734.513,677.307l-24.621,19.297c-1.293,1.014,0.28,3.025,1.575,2.01l24.621-19.297
						C737.382,678.303,735.808,676.292,734.513,677.307z"/>
				</g>
				<g>
					<path style="fill:#E8D9BC;" d="M624.618,664.548l-2.228,18.379c-0.198,1.631,2.337,1.941,2.535,0.307l2.228-18.379
						C627.35,663.224,624.816,662.914,624.618,664.548z"/>
					<path style="fill:#E8D9BC;" d="M630.072,619.551l-3.764,31.054c-0.198,1.631,2.337,1.941,2.535,0.307l3.765-31.054
						C632.805,618.227,630.271,617.917,630.072,619.551z"/>
				</g>
				<g>
					<path style="fill:#E8D9BC;" d="M543.343,688.237l11.421,14.572c1.013,1.293,3.025-0.28,2.01-1.575l-11.421-14.572
						C544.339,685.368,542.327,686.941,543.343,688.237z"/>
					<path style="fill:#E8D9BC;" d="M515.382,652.562l19.297,24.621c1.014,1.293,3.025-0.28,2.01-1.575l-19.297-24.621
						C516.378,649.693,514.367,651.266,515.382,652.562z"/>
				</g>
				<g>
					<path style="fill:#E8D9BC;" d="M502.623,762.457l18.379,2.228c1.631,0.198,1.941-2.337,0.307-2.535l-18.379-2.228
						C501.299,759.724,500.989,762.259,502.623,762.457z"/>
					<path style="fill:#E8D9BC;" d="M457.626,757.003l31.054,3.765c1.631,0.198,1.941-2.337,0.307-2.535l-31.054-3.765
						C456.302,754.27,455.992,756.804,457.626,757.003z"/>
				</g>
				<g>
					<path style="fill:#E8D9BC;" d="M526.312,843.732l14.571-11.42c1.293-1.013-0.28-3.025-1.575-2.01l-14.571,11.421
						C523.443,842.736,525.016,844.748,526.312,843.732z"/>
					<path style="fill:#E8D9BC;" d="M490.637,871.693l24.621-19.297c1.293-1.013-0.28-3.025-1.575-2.01l-24.621,19.297
						C487.768,870.697,489.341,872.708,490.637,871.693z"/>
				</g>
				<g>
					<path style="fill:#E8D9BC;" d="M600.532,884.452l2.228-18.379c0.198-1.631-2.337-1.941-2.535-0.307l-2.228,18.379
						C597.799,885.776,600.334,886.086,600.532,884.452z"/>
					<path style="fill:#E8D9BC;" d="M595.077,929.449l3.765-31.054c0.198-1.631-2.337-1.941-2.535-0.307l-3.765,31.054
						C592.344,930.773,594.879,931.083,595.077,929.449z"/>
				</g>
				<g>
					<path style="fill:#E8D9BC;" d="M681.807,860.763l-11.421-14.571c-1.013-1.293-3.025,0.28-2.01,1.575l11.42,14.571
						C680.811,863.632,682.822,862.059,681.807,860.763z"/>
					<path style="fill:#E8D9BC;" d="M709.768,896.438l-19.297-24.621c-1.013-1.293-3.025,0.28-2.01,1.575l19.297,24.621
						C708.771,899.307,710.783,897.734,709.768,896.438z"/>
				</g>
				<g>
					<path style="fill:#E8D9BC;" d="M722.527,786.543l-18.379-2.228c-1.631-0.198-1.941,2.337-0.307,2.535l18.379,2.228
						C723.851,789.276,724.161,786.741,722.527,786.543z"/>
					<path style="fill:#E8D9BC;" d="M767.524,791.998l-31.054-3.765c-1.631-0.198-1.941,2.337-0.307,2.535l31.054,3.764
						C768.848,794.73,769.158,792.196,767.524,791.998z"/>
				</g>
			</g>
			<g>
				<g>
					<path style="fill:#E8D9BC;" d="M716.985,720.076l-53.389,27.401c-1.462,0.75-0.298,3.023,1.166,2.272l53.389-27.401
						C719.613,721.598,718.449,719.325,716.985,720.076z"/>
					<path style="fill:#E8D9BC;" d="M739.136,708.708l-10.791,5.538c-1.462,0.75-0.298,3.023,1.166,2.272l10.792-5.538
						C741.763,710.23,740.6,707.956,739.136,708.708z"/>
				</g>
				<g>
					<path style="fill:#E8D9BC;" d="M646.98,661.923l-18.376,57.127c-0.503,1.564,1.927,2.349,2.431,0.782l18.377-57.127
						C649.914,661.141,647.484,660.356,646.98,661.923z"/>
					<path style="fill:#E8D9BC;" d="M654.604,638.221l-3.714,11.547c-0.503,1.564,1.927,2.349,2.431,0.782l3.714-11.547
						C657.538,637.439,655.108,636.654,654.604,638.221z"/>
				</g>
				<g>
					<path style="fill:#E8D9BC;" d="M556.358,670.303l27.401,53.389c0.75,1.462,3.023,0.298,2.272-1.166l-27.401-53.389
						C557.88,667.675,555.607,668.839,556.358,670.303z"/>
					<path style="fill:#E8D9BC;" d="M544.99,648.152l5.539,10.791c0.75,1.462,3.023,0.298,2.272-1.166l-5.539-10.791
						C546.511,645.524,544.238,646.688,544.99,648.152z"/>
				</g>
				<g>
					<path style="fill:#E8D9BC;" d="M498.204,740.308l57.127,18.376c1.564,0.503,2.349-1.927,0.782-2.431l-57.127-18.376
						C497.422,737.374,496.638,739.804,498.204,740.308z"/>
					<path style="fill:#E8D9BC;" d="M474.503,732.684l11.547,3.714c1.564,0.503,2.349-1.927,0.782-2.431l-11.547-3.714
						C473.721,729.75,472.936,732.18,474.503,732.684z"/>
				</g>
				<g>
					<path style="fill:#E8D9BC;" d="M506.585,830.93l53.389-27.401c1.462-0.75,0.298-3.023-1.166-2.272l-53.389,27.401
						C503.957,829.408,505.121,831.681,506.585,830.93z"/>
					<path style="fill:#E8D9BC;" d="M484.434,842.298l10.791-5.539c1.462-0.75,0.298-3.023-1.166-2.272l-10.792,5.539
						C481.806,840.776,482.97,843.05,484.434,842.298z"/>
				</g>
				<g>
					<path style="fill:#E8D9BC;" d="M576.59,889.083l18.377-57.127c0.503-1.564-1.927-2.349-2.431-0.782l-18.376,57.127
						C573.656,889.865,576.086,890.65,576.59,889.083z"/>
					<path style="fill:#E8D9BC;" d="M568.965,912.785l3.715-11.547c0.503-1.564-1.927-2.349-2.431-0.782l-3.714,11.547
						C566.031,913.567,568.461,914.352,568.965,912.785z"/>
				</g>
				<g>
					<path style="fill:#E8D9BC;" d="M667.211,880.703l-27.401-53.389c-0.75-1.462-3.023-0.298-2.272,1.166l27.401,53.389
						C665.69,883.331,667.963,882.167,667.211,880.703z"/>
					<path style="fill:#E8D9BC;" d="M678.58,902.854l-5.538-10.791c-0.75-1.462-3.023-0.298-2.272,1.166l5.539,10.792
						C677.058,905.482,679.331,904.318,678.58,902.854z"/>
				</g>
				<g>
					<path style="fill:#E8D9BC;" d="M725.365,810.698l-57.127-18.377c-1.564-0.503-2.349,1.927-0.782,2.431l57.127,18.376
						C726.147,813.632,726.932,811.202,725.365,810.698z"/>
					<path style="fill:#E8D9BC;" d="M749.067,818.322l-11.547-3.714c-1.564-0.503-2.349,1.927-0.782,2.431l11.547,3.715
						C749.849,821.257,750.633,818.826,749.067,818.322z"/>
				</g>
			</g>
		</g>
		<g style="opacity:0.1;clip-path:url(#SVGID_00000011738099872533576450000001928456861372099261_);">
			<g>
				<g>
					<path style="fill:#E8D9BC;" d="M51.588,77.12l-57.141,22.896c-1.599,0.641-0.606,3.126,0.995,2.484l57.141-22.896
						C54.182,78.964,53.189,76.478,51.588,77.12z"/>
					<path style="fill:#E8D9BC;" d="M107.901,54.556L73.119,68.492c-1.598,0.64-0.606,3.126,0.995,2.484l34.782-13.937
						C110.495,56.399,109.502,53.914,107.901,54.556z"/>
				</g>
				<g>
					<path style="fill:#E8D9BC;" d="M-105.172,12.106l22.896,57.141c0.641,1.599,3.126,0.606,2.485-0.995l-22.896-57.141
						C-103.328,9.512-105.814,10.505-105.172,12.106z"/>
					<path style="fill:#E8D9BC;" d="M-127.736-44.207l13.937,34.782c0.64,1.598,3.126,0.606,2.484-0.996l-13.937-34.782
						C-125.892-46.801-128.378-45.808-127.736-44.207z"/>
				</g>
				<g>
					<path style="fill:#E8D9BC;" d="M-170.186,168.866l57.142-22.896c1.599-0.64,0.606-3.126-0.996-2.484l-57.141,22.896
						C-172.78,167.022-171.787,169.508-170.186,168.866z"/>
					<path style="fill:#E8D9BC;" d="M-226.499,191.43l34.782-13.937c1.599-0.641,0.606-3.126-0.995-2.485l-34.782,13.937
						C-229.093,189.586-228.1,192.072-226.499,191.43z"/>
				</g>
				<g>
					<path style="fill:#E8D9BC;" d="M-13.426,233.88l-22.896-57.141c-0.641-1.599-3.126-0.606-2.485,0.995l22.896,57.141
						C-15.27,236.474-12.784,235.481-13.426,233.88z"/>
					<path style="fill:#E8D9BC;" d="M9.139,290.193l-13.937-34.782c-0.641-1.599-3.126-0.606-2.484,0.995l13.937,34.782
						C7.295,292.787,9.78,291.794,9.139,290.193z"/>
				</g>
			</g>
			<g>
				<g>
					<path style="fill:#E8D9BC;" d="M-44.47,10.207l-8.109,56.518c-0.245,1.705,2.404,2.088,2.649,0.38l8.109-56.518
						C-41.576,8.883-44.225,8.5-44.47,10.207z"/>
				</g>
				<g>
					<path style="fill:#E8D9BC;" d="M-149.559,53.758l44.892,35.282c1.354,1.064,3.01-1.038,1.654-2.104l-44.892-35.282
						C-149.26,50.589-150.916,52.692-149.559,53.758z"/>
				</g>
				<g>
					<path style="fill:#E8D9BC;" d="M-74.128,235.778l8.108-56.518c0.245-1.705-2.404-2.088-2.649-0.38l-8.108,56.518
						C-77.022,237.103-74.373,237.486-74.128,235.778z"/>
				</g>
				<g>
					<path style="fill:#E8D9BC;" d="M30.962,192.228l-44.892-35.281c-1.354-1.064-3.01,1.038-1.654,2.104l44.892,35.282
						C30.662,195.397,32.318,193.294,30.962,192.228z"/>
				</g>
			</g>
			<g>
				<g>
					<path style="fill:#E8D9BC;" d="M-102.849,17.903l21.237,53.001c0.641,1.599,3.126,0.606,2.484-0.995l-21.237-53.001
						C-101.005,15.309-103.491,16.302-102.849,17.903z"/>
				</g>
				<g>
					<path style="fill:#E8D9BC;" d="M-172.084,108.164l56.518,8.109c1.705,0.245,2.088-2.404,0.38-2.649l-56.518-8.108
						C-173.409,105.27-173.792,107.919-172.084,108.164z"/>
				</g>
				<g>
					<path style="fill:#E8D9BC;" d="M-128.534,213.253l35.281-44.892c1.064-1.354-1.038-3.01-2.104-1.654l-35.282,44.892
						C-131.703,212.954-129.6,214.61-128.534,213.253z"/>
				</g>
				<g>
					<path style="fill:#E8D9BC;" d="M-15.749,228.083l-21.237-53.001c-0.641-1.599-3.126-0.606-2.484,0.995l21.237,53.001
						C-17.593,230.677-15.107,229.684-15.749,228.083z"/>
				</g>
				<g>
					<path style="fill:#E8D9BC;" d="M53.487,137.822l-56.518-8.109c-1.705-0.245-2.088,2.404-0.38,2.649l56.518,8.109
						C54.811,140.716,55.194,138.067,53.487,137.822z"/>
				</g>
				<g>
					<path style="fill:#E8D9BC;" d="M9.936,32.732l-35.282,44.892c-1.064,1.354,1.038,3.01,2.104,1.654l35.282-44.892
						C13.105,33.032,11.002,31.376,9.936,32.732z"/>
				</g>
			</g>
			<g>
				<g>
					<path style="fill:#E8D9BC;" d="M-174.246,75.267l54.955,23.513c1.583,0.677,2.639-1.782,1.053-2.461l-54.955-23.513
						C-174.776,72.129-175.832,74.588-174.246,75.267z"/>
					<path style="fill:#E8D9BC;" d="M-202.954,62.984l17.225,7.37c1.583,0.677,2.639-1.782,1.053-2.461l-17.225-7.37
						C-203.484,59.846-204.54,62.305-202.954,62.984z"/>
				</g>
				<g>
					<path style="fill:#E8D9BC;" d="M-158.105,198.677l47.841-35.836c1.378-1.032-0.224-3.176-1.605-2.142l-47.841,35.835
						C-161.088,197.567-159.485,199.711-158.105,198.677z"/>
					<path style="fill:#E8D9BC;" d="M-183.096,217.397l14.995-11.232c1.378-1.032-0.224-3.176-1.605-2.142l-14.995,11.232
						C-186.079,216.287-184.477,218.431-183.096,217.397z"/>
				</g>
				<g>
					<path style="fill:#E8D9BC;" d="M-43.158,246.403l-7.114-59.349c-0.205-1.71-2.863-1.394-2.658,0.318l7.114,59.349
						C-45.61,248.432-42.952,248.116-43.158,246.403z"/>
					<path style="fill:#E8D9BC;" d="M-39.441,277.406l-2.23-18.602c-0.205-1.71-2.863-1.394-2.657,0.318l2.23,18.602
						C-41.894,279.435-39.236,279.119-39.441,277.406z"/>
				</g>
				<g>
					<path style="fill:#E8D9BC;" d="M55.648,170.719L0.693,147.206c-1.583-0.678-2.639,1.782-1.053,2.461l54.954,23.513
						C56.179,173.857,57.234,171.398,55.648,170.719z"/>
					<path style="fill:#E8D9BC;" d="M84.356,183.002l-17.224-7.37c-1.583-0.677-2.639,1.782-1.053,2.461l17.225,7.37
						C84.886,186.14,85.942,183.681,84.356,183.002z"/>
				</g>
				<g>
					<path style="fill:#E8D9BC;" d="M39.507,47.309l-47.84,35.836c-1.378,1.033,0.224,3.176,1.605,2.142l47.84-35.835
						C42.49,48.419,40.887,46.275,39.507,47.309z"/>
					<path style="fill:#E8D9BC;" d="M64.498,28.589L49.503,39.821c-1.378,1.033,0.224,3.176,1.604,2.142l14.995-11.232
						C67.481,29.698,65.879,27.555,64.498,28.589z"/>
				</g>
				<g>
					<path style="fill:#E8D9BC;" d="M-75.44-0.417l7.114,59.349c0.205,1.71,2.863,1.394,2.657-0.319l-7.114-59.349
						C-72.988-2.446-75.646-2.13-75.44-0.417z"/>
					<path style="fill:#E8D9BC;" d="M-79.157-31.42l2.23,18.602c0.205,1.71,2.863,1.394,2.657-0.319l-2.23-18.602
						C-76.704-33.449-79.362-33.133-79.157-31.42z"/>
				</g>
			</g>
			<g>
				<g>
					<path style="fill:#E8D9BC;" d="M-11.573,8.046L-35.086,63c-0.678,1.583,1.782,2.639,2.461,1.053L-9.112,9.099
						C-8.434,7.515-10.894,6.46-11.573,8.046z"/>
					<path style="fill:#E8D9BC;" d="M0.71-20.662L-6.66-3.437c-0.677,1.583,1.782,2.639,2.461,1.053l7.37-17.225
						C3.849-21.192,1.389-22.248,0.71-20.662z"/>
				</g>
				<g>
					<path style="fill:#E8D9BC;" d="M-134.983,24.187l35.836,47.84c1.033,1.378,3.176-0.224,2.142-1.605l-35.835-47.84
						C-133.873,21.204-136.017,22.807-134.983,24.187z"/>
					<path style="fill:#E8D9BC;" d="M-153.703-0.804l11.232,14.995c1.032,1.378,3.176-0.224,2.142-1.604l-11.232-14.995
						C-152.593-3.787-154.737-2.185-153.703-0.804z"/>
				</g>
				<g>
					<path style="fill:#E8D9BC;" d="M-182.709,139.134l59.349-7.114c1.71-0.205,1.394-2.863-0.319-2.657l-59.349,7.114
						C-184.738,136.682-184.422,139.339-182.709,139.134z"/>
					<path style="fill:#E8D9BC;" d="M-213.712,142.851l18.602-2.23c1.71-0.205,1.394-2.863-0.318-2.657l-18.602,2.23
						C-215.741,140.398-215.425,143.056-213.712,142.851z"/>
				</g>
				<g>
					<path style="fill:#E8D9BC;" d="M-107.025,237.94l23.513-54.955c0.677-1.583-1.782-2.639-2.461-1.053l-23.513,54.955
						C-110.163,238.47-107.704,239.526-107.025,237.94z"/>
					<path style="fill:#E8D9BC;" d="M-119.308,266.648l7.37-17.225c0.677-1.583-1.782-2.639-2.461-1.053l-7.37,17.224
						C-122.446,267.178-119.987,268.234-119.308,266.648z"/>
				</g>
				<g>
					<path style="fill:#E8D9BC;" d="M16.385,221.799l-35.836-47.84c-1.032-1.378-3.176,0.224-2.142,1.605l35.835,47.84
						C15.275,224.782,17.419,223.179,16.385,221.799z"/>
					<path style="fill:#E8D9BC;" d="M35.105,246.79l-11.232-14.995c-1.033-1.378-3.176,0.224-2.142,1.605l11.232,14.995
						C33.995,249.773,36.139,248.171,35.105,246.79z"/>
				</g>
				<g>
					<path style="fill:#E8D9BC;" d="M64.111,106.852l-59.349,7.114c-1.71,0.205-1.394,2.863,0.319,2.658l59.349-7.114
						C66.14,109.304,65.824,106.646,64.111,106.852z"/>
					<path style="fill:#E8D9BC;" d="M95.114,103.135l-18.602,2.23c-1.71,0.205-1.394,2.863,0.319,2.657l18.602-2.23
						C97.143,105.588,96.827,102.93,95.114,103.135z"/>
				</g>
			</g>
		</g>
		<g style="opacity:0.25;clip-path:url(#SVGID_00000011738099872533576450000001928456861372099261_);">
			<g>
				<g>
					<path style="fill:#E8D9BC;" d="M508.418,26.969L470.879-1.694c-1.05-0.802-2.298,0.829-1.246,1.632l37.539,28.663
						C508.222,29.403,509.47,27.772,508.418,26.969z"/>
					<path style="fill:#E8D9BC;" d="M545.412,55.216l-22.85-17.447c-1.05-0.802-2.298,0.829-1.246,1.632l22.85,17.447
						C545.216,57.65,546.464,56.019,545.412,55.216z"/>
				</g>
				<g>
					<path style="fill:#E8D9BC;" d="M489.677-101.882l-28.663,37.539c-0.802,1.05,0.829,2.298,1.632,1.246l28.662-37.539
						C492.111-101.686,490.48-102.934,489.677-101.882z"/>
					<path style="fill:#E8D9BC;" d="M517.924-138.877l-17.447,22.85c-0.802,1.05,0.829,2.298,1.632,1.246l17.447-22.85
						C520.358-138.681,518.727-139.929,517.924-138.877z"/>
				</g>
				<g>
					<path style="fill:#E8D9BC;" d="M360.826-83.141l37.538,28.663c1.05,0.802,2.298-0.829,1.246-1.632l-37.539-28.662
						C361.022-85.575,359.774-83.945,360.826-83.141z"/>
					<path style="fill:#E8D9BC;" d="M323.831-111.388l22.849,17.447c1.05,0.802,2.298-0.829,1.246-1.632l-22.85-17.447
						C324.027-113.822,322.779-112.192,323.831-111.388z"/>
				</g>
				<g>
					<path style="fill:#E8D9BC;" d="M379.567,45.71l28.662-37.538c0.802-1.05-0.829-2.298-1.632-1.246l-28.663,37.539
						C377.133,45.514,378.764,46.762,379.567,45.71z"/>
					<path style="fill:#E8D9BC;" d="M351.32,82.704l17.447-22.85c0.802-1.05-0.829-2.298-1.632-1.246l-17.447,22.85
						C348.886,82.508,350.517,83.756,351.32,82.704z"/>
				</g>
			</g>
			<g>
				<g>
					<path style="fill:#E8D9BC;" d="M514.776-62.624l-40.433,16.861c-1.22,0.509-0.431,2.405,0.79,1.895l40.433-16.861
						C516.786-61.237,515.998-63.133,514.776-62.624z"/>
				</g>
				<g>
					<path style="fill:#E8D9BC;" d="M444.789-114.771l-5.615,43.446c-0.169,1.311,1.867,1.576,2.036,0.263l5.615-43.446
						C446.995-115.818,444.958-116.084,444.789-114.771z"/>
				</g>
				<g>
					<path style="fill:#E8D9BC;" d="M354.467,6.451L394.9-10.41c1.219-0.508,0.431-2.405-0.79-1.895L353.677,4.556
						C352.457,5.064,353.246,6.96,354.467,6.451z"/>
				</g>
				<g>
					<path style="fill:#E8D9BC;" d="M424.455,58.598l5.615-43.446c0.169-1.31-1.867-1.576-2.036-0.263l-5.615,43.446
						C422.249,59.646,424.285,59.911,424.455,58.598z"/>
				</g>
			</g>
			<g>
				<g>
					<path style="fill:#E8D9BC;" d="M486.769-98.074l-26.585,34.818c-0.802,1.05,0.829,2.298,1.632,1.246l26.585-34.818
						C489.203-97.878,487.572-99.126,486.769-98.074z"/>
				</g>
				<g>
					<path style="fill:#E8D9BC;" d="M400.084-108.241l16.861,40.433c0.508,1.22,2.405,0.431,1.895-0.79l-16.861-40.433
						C401.471-110.251,399.575-109.463,400.084-108.241z"/>
				</g>
				<g>
					<path style="fill:#E8D9BC;" d="M347.937-38.253l43.446,5.615c1.31,0.169,1.576-1.867,0.263-2.036L348.2-40.29
						C346.89-40.459,346.624-38.423,347.937-38.253z"/>
				</g>
				<g>
					<path style="fill:#E8D9BC;" d="M382.475,41.901L409.06,7.083c0.802-1.05-0.829-2.298-1.632-1.246l-26.585,34.818
						C380.04,41.705,381.671,42.953,382.475,41.901z"/>
				</g>
				<g>
					<path style="fill:#E8D9BC;" d="M469.159,52.068l-16.861-40.433c-0.509-1.22-2.405-0.431-1.895,0.79l16.861,40.433
						C467.772,54.078,469.669,53.29,469.159,52.068z"/>
				</g>
				<g>
					<path style="fill:#E8D9BC;" d="M521.307-17.92l-43.446-5.615c-1.31-0.169-1.576,1.867-0.263,2.037l43.446,5.614
						C522.354-15.714,522.619-17.75,521.307-17.92z"/>
				</g>
			</g>
			<g>
				<g>
					<path style="fill:#E8D9BC;" d="M420.915-122.59l6.094,45.454c0.176,1.31,2.211,1.039,2.035-0.273l-6.094-45.454
						C422.775-124.172,420.739-123.902,420.915-122.59z"/>
					<path style="fill:#E8D9BC;" d="M417.731-146.335l1.91,14.247c0.175,1.31,2.211,1.039,2.035-0.273l-1.91-14.247
						C419.591-147.917,417.555-147.646,417.731-146.335z"/>
				</g>
				<g>
					<path style="fill:#E8D9BC;" d="M345.926-63.468l42.412,17.449c1.222,0.503,2.005-1.396,0.781-1.899l-42.412-17.449
						C345.485-65.87,344.702-63.971,345.926-63.468z"/>
					<path style="fill:#E8D9BC;" d="M323.77-72.583l13.293,5.469c1.222,0.503,2.005-1.395,0.781-1.899l-13.293-5.469
						C323.33-74.985,322.547-73.087,323.77-72.583z"/>
				</g>
				<g>
					<path style="fill:#E8D9BC;" d="M359.633,31.036L395.95,3.031c1.046-0.807-0.206-2.434-1.254-1.626L358.379,29.41
						C357.332,30.216,358.585,31.844,359.633,31.036z"/>
					<path style="fill:#E8D9BC;" d="M340.661,45.665l11.383-8.778c1.046-0.807-0.206-2.434-1.254-1.626l-11.383,8.778
						C338.361,44.846,339.613,46.473,340.661,45.665z"/>
				</g>
				<g>
					<path style="fill:#E8D9BC;" d="M448.328,66.417l-6.094-45.454c-0.176-1.31-2.211-1.039-2.035,0.273l6.094,45.454
						C446.469,68,448.504,67.729,448.328,66.417z"/>
					<path style="fill:#E8D9BC;" d="M451.512,90.162l-1.91-14.247c-0.176-1.31-2.211-1.039-2.035,0.273l1.91,14.247
						C449.652,91.744,451.688,91.474,451.512,90.162z"/>
				</g>
				<g>
					<path style="fill:#E8D9BC;" d="M523.318,7.295l-42.412-17.449c-1.222-0.503-2.005,1.396-0.781,1.899l42.412,17.449
						C523.758,9.697,524.542,7.799,523.318,7.295z"/>
					<path style="fill:#E8D9BC;" d="M545.473,16.41l-13.293-5.469c-1.222-0.503-2.005,1.395-0.781,1.899l13.293,5.469
						C545.914,18.812,546.697,16.914,545.473,16.41z"/>
				</g>
				<g>
					<path style="fill:#E8D9BC;" d="M509.611-87.209l-36.317,28.005c-1.046,0.807,0.206,2.434,1.254,1.626l36.317-28.005
						C511.911-86.389,510.659-88.017,509.611-87.209z"/>
					<path style="fill:#E8D9BC;" d="M528.583-101.838L517.2-93.06c-1.046,0.807,0.206,2.434,1.254,1.626l11.383-8.778
						C530.883-101.019,529.631-102.646,528.583-101.838z"/>
				</g>
			</g>
			<g>
				<g>
					<path style="fill:#E8D9BC;" d="M529.125-41.793l-45.454,6.094c-1.31,0.175-1.039,2.211,0.273,2.035l45.454-6.094
						C530.708-39.933,530.437-41.969,529.125-41.793z"/>
					<path style="fill:#E8D9BC;" d="M552.87-44.977l-14.247,1.91c-1.31,0.176-1.039,2.211,0.273,2.035l14.247-1.91
						C554.453-43.117,554.182-45.153,552.87-44.977z"/>
				</g>
				<g>
					<path style="fill:#E8D9BC;" d="M470.003-116.782L452.554-74.37c-0.503,1.222,1.396,2.005,1.899,0.781l17.449-42.412
						C472.405-117.223,470.507-118.006,470.003-116.782z"/>
					<path style="fill:#E8D9BC;" d="M479.118-138.938l-5.469,13.293c-0.503,1.222,1.396,2.005,1.899,0.781l5.469-13.293
						C481.52-139.378,479.622-140.162,479.118-138.938z"/>
				</g>
				<g>
					<path style="fill:#E8D9BC;" d="M375.5-103.076l28.005,36.317c0.807,1.046,2.434-0.206,1.626-1.254l-28.005-36.317
						C376.319-105.376,374.691-104.124,375.5-103.076z"/>
					<path style="fill:#E8D9BC;" d="M360.87-122.047l8.778,11.383c0.807,1.046,2.435-0.206,1.626-1.254l-8.778-11.383
						C361.689-124.348,360.062-123.095,360.87-122.047z"/>
				</g>
				<g>
					<path style="fill:#E8D9BC;" d="M340.118-14.38l45.454-6.094c1.31-0.176,1.039-2.211-0.273-2.035l-45.454,6.094
						C338.536-16.239,338.806-14.204,340.118-14.38z"/>
					<path style="fill:#E8D9BC;" d="M316.373-11.196l14.247-1.91c1.31-0.176,1.039-2.211-0.273-2.035l-14.247,1.91
						C314.791-13.056,315.062-11.02,316.373-11.196z"/>
				</g>
				<g>
					<path style="fill:#E8D9BC;" d="M399.24,60.609l17.449-42.412c0.503-1.222-1.396-2.005-1.899-0.781l-17.449,42.412
						C396.839,61.05,398.737,61.833,399.24,60.609z"/>
					<path style="fill:#E8D9BC;" d="M390.125,82.765l5.469-13.293c0.503-1.222-1.396-2.005-1.899-0.781l-5.469,13.293
						C387.723,83.205,389.621,83.989,390.125,82.765z"/>
				</g>
				<g>
					<path style="fill:#E8D9BC;" d="M493.744,46.903l-28.005-36.317c-0.807-1.046-2.434,0.206-1.626,1.254l28.005,36.317
						C492.925,49.203,494.552,47.951,493.744,46.903z"/>
					<path style="fill:#E8D9BC;" d="M508.373,65.874l-8.778-11.383c-0.807-1.046-2.434,0.206-1.626,1.254l8.778,11.383
						C507.554,68.175,509.182,66.923,508.373,65.874z"/>
				</g>
			</g>
		</g>
		<g style="opacity:0.35;clip-path:url(#SVGID_00000011738099872533576450000001928456861372099261_);">
			<g>
				<g>
					<path style="fill:#E8D9BC;" d="M276.897-101.154L221.091,30.508c-1.048,2.474,2.794,4.107,3.844,1.629l55.806-131.662
						C281.789-101.998,277.947-103.632,276.897-101.154z"/>
					<path style="fill:#E8D9BC;" d="M294.005-141.518l-7.332,17.299c-1.049,2.474,2.794,4.107,3.844,1.629l7.332-17.299
						C298.898-142.362,295.055-143.995,294.005-141.518z"/>
				</g>
				<g>
					<path style="fill:#E8D9BC;" d="M100.661-77.317l86.12,114.16c1.618,2.145,4.954-0.367,3.333-2.514l-86.12-114.161
						C102.376-81.977,99.04-79.466,100.661-77.317z"/>
					<path style="fill:#E8D9BC;" d="M74.259-112.316l11.315,14.999c1.618,2.145,4.954-0.366,3.333-2.515L77.592-114.83
						C75.974-116.975,72.638-114.464,74.259-112.316z"/>
				</g>
				<g>
					<path style="fill:#E8D9BC;" d="M33.186,87.226l141.926-17.502c2.666-0.329,2.16-4.473-0.511-4.144L32.675,83.082
						C30.008,83.41,30.514,87.555,33.186,87.226z"/>
					<path style="fill:#E8D9BC;" d="M-10.325,92.591l18.647-2.299c2.666-0.329,2.16-4.473-0.511-4.144l-18.647,2.299
						C-13.502,88.776-12.995,92.92-10.325,92.591z"/>
				</g>
				<g>
					<path style="fill:#E8D9BC;" d="M141.947,227.932L197.752,96.27c1.048-2.473-2.794-4.107-3.844-1.63l-55.806,131.663
						C137.054,228.776,140.896,230.41,141.947,227.932z"/>
					<path style="fill:#E8D9BC;" d="M124.838,268.296l7.332-17.299c1.049-2.474-2.794-4.107-3.844-1.63l-7.332,17.299
						C119.946,269.14,123.788,270.774,124.838,268.296z"/>
				</g>
				<g>
					<path style="fill:#E8D9BC;" d="M318.182,204.096l-86.12-114.16c-1.618-2.145-4.954,0.366-3.333,2.514l86.12,114.161
						C316.467,208.755,319.803,206.244,318.182,204.096z"/>
					<path style="fill:#E8D9BC;" d="M344.584,239.094l-11.315-14.999c-1.618-2.145-4.954,0.366-3.333,2.514l11.315,14.999
						C342.869,243.753,346.205,241.242,344.584,239.094z"/>
				</g>
				<g>
					<path style="fill:#E8D9BC;" d="M385.658,39.553L243.732,57.055c-2.666,0.329-2.16,4.473,0.511,4.144l141.926-17.502
						C388.835,43.368,388.328,39.223,385.658,39.553z"/>
					<path style="fill:#E8D9BC;" d="M429.168,34.187l-18.647,2.3c-2.666,0.329-2.16,4.473,0.511,4.144l18.647-2.3
						C432.345,38.002,431.839,33.858,429.168,34.187z"/>
				</g>
			</g>
			<g>
				<g>
					<path style="fill:#E8D9BC;" d="M159.055-55.518l32.366,79.988c1.008,2.49,4.88,0.928,3.87-1.566l-32.366-79.988
						C161.918-59.575,158.046-58.013,159.055-55.518z"/>
					<path style="fill:#E8D9BC;" d="M147.048-85.191l4.959,12.256c1.008,2.491,4.88,0.929,3.87-1.566l-4.959-12.256
						C149.911-89.247,146.039-87.686,147.048-85.191z"/>
					<path style="fill:#E8D9BC;" d="M127.641-133.153l4.959,12.256c1.008,2.49,4.88,0.928,3.87-1.566l-4.959-12.256
						C130.504-137.209,126.632-135.647,127.641-133.153z"/>
				</g>
				<g>
					<path style="fill:#E8D9BC;" d="M81.262,47.554l85.454,11.964c2.66,0.372,3.244-3.762,0.579-4.135L81.84,43.419
						C79.18,43.047,78.597,47.181,81.262,47.554z"/>
					<path style="fill:#E8D9BC;" d="M49.561,43.116l13.094,1.833c2.661,0.372,3.244-3.762,0.579-4.135L50.14,38.981
						C47.479,38.608,46.896,42.743,49.561,43.116z"/>
					<path style="fill:#E8D9BC;" d="M-1.679,35.942l13.094,1.833c2.66,0.372,3.244-3.762,0.579-4.135L-1.1,31.807
						C-3.76,31.434-4.344,35.569-1.679,35.942z"/>
				</g>
				<g>
					<path style="fill:#E8D9BC;" d="M131.628,166.462l53.088-68.024c1.653-2.118-1.636-4.69-3.291-2.569l-53.088,68.023
						C126.683,166.011,129.972,168.583,131.628,166.462z"/>
					<path style="fill:#E8D9BC;" d="M111.934,191.696l8.134-10.423c1.653-2.118-1.636-4.69-3.291-2.568l-8.134,10.423
						C106.989,191.245,110.278,193.817,111.934,191.696z"/>
					<path style="fill:#E8D9BC;" d="M80.101,232.484l8.135-10.423c1.653-2.118-1.636-4.69-3.291-2.569l-8.135,10.423
						C75.157,232.033,78.446,234.605,80.101,232.484z"/>
				</g>
				<g>
					<path style="fill:#E8D9BC;" d="M259.788,182.296l-32.366-79.988c-1.008-2.491-4.88-0.928-3.87,1.566l32.366,79.987
						C256.925,186.353,260.797,184.791,259.788,182.296z"/>
					<path style="fill:#E8D9BC;" d="M271.794,211.969l-4.959-12.256c-1.008-2.49-4.88-0.928-3.871,1.566l4.959,12.256
						C268.932,216.026,272.804,214.464,271.794,211.969z"/>
					<path style="fill:#E8D9BC;" d="M291.202,259.931l-4.959-12.256c-1.008-2.491-4.88-0.929-3.871,1.566l4.959,12.256
						C288.339,263.987,292.211,262.426,291.202,259.931z"/>
				</g>
				<g>
					<path style="fill:#E8D9BC;" d="M337.582,79.224L252.127,67.26c-2.661-0.372-3.244,3.762-0.579,4.135l85.454,11.964
						C339.663,83.732,340.246,79.597,337.582,79.224z"/>
					<path style="fill:#E8D9BC;" d="M369.282,83.663l-13.094-1.833c-2.661-0.373-3.244,3.762-0.579,4.135l13.094,1.833
						C371.364,88.17,371.947,84.036,369.282,83.663z"/>
					<path style="fill:#E8D9BC;" d="M420.522,90.836l-13.094-1.833c-2.661-0.373-3.244,3.762-0.579,4.135l13.094,1.833
						C422.603,95.344,423.187,91.209,420.522,90.836z"/>
				</g>
				<g>
					<path style="fill:#E8D9BC;" d="M287.215-39.683l-53.088,68.024c-1.653,2.118,1.636,4.69,3.292,2.569l53.088-68.024
						C292.159-39.232,288.871-41.804,287.215-39.683z"/>
					<path style="fill:#E8D9BC;" d="M306.909-64.917l-8.134,10.423c-1.653,2.118,1.636,4.69,3.291,2.569l8.135-10.423
						C311.853-64.467,308.565-67.039,306.909-64.917z"/>
					<path style="fill:#E8D9BC;" d="M338.741-105.705l-8.134,10.423c-1.653,2.118,1.636,4.69,3.292,2.569l8.134-10.423
						C343.686-105.255,340.397-107.827,338.741-105.705z"/>
				</g>
			</g>
			<g>
				<g>
					<path style="fill:#E8D9BC;" d="M309.826,20.509l-47.734,19.315c-2.49,1.008-0.928,4.88,1.566,3.87l47.734-19.315
						C313.883,23.372,312.321,19.5,309.826,20.509z"/>
					<path style="fill:#E8D9BC;" d="M343.37,6.937l-20.642,8.352c-2.491,1.008-0.929,4.88,1.566,3.87l20.642-8.352
						C347.426,9.799,345.864,5.927,343.37,6.937z"/>
					<path style="fill:#E8D9BC;" d="M413.036-21.253L375.623-6.114c-2.49,1.008-0.928,4.88,1.566,3.87l37.414-15.139
						C417.093-18.39,415.531-22.263,413.036-21.253z"/>
				</g>
				<g>
					<path style="fill:#E8D9BC;" d="M222.489-45.004l-7.14,50.997c-0.372,2.661,3.762,3.244,4.135,0.579l7.14-50.997
						C226.997-47.086,222.862-47.669,222.489-45.004z"/>
					<path style="fill:#E8D9BC;" d="M227.506-80.84l-3.087,22.053c-0.372,2.661,3.762,3.244,4.135,0.579l3.087-22.052
						C232.014-82.922,227.88-83.505,227.506-80.84z"/>
					<path style="fill:#E8D9BC;" d="M237.927-155.268l-5.596,39.971c-0.372,2.661,3.762,3.244,4.135,0.579l5.596-39.971
						C242.434-157.349,238.3-157.932,237.927-155.268z"/>
				</g>
				<g>
					<path style="fill:#E8D9BC;" d="M122.084-2.124l40.595,31.682c2.118,1.653,4.69-1.636,2.569-3.292L124.653-5.416
						C122.535-7.069,119.963-3.78,122.084-2.124z"/>
					<path style="fill:#E8D9BC;" d="M93.558-24.387l17.554,13.7c2.118,1.653,4.69-1.636,2.569-3.291l-17.554-13.7
						C94.009-29.332,91.437-26.043,93.558-24.387z"/>
					<path style="fill:#E8D9BC;" d="M34.312-70.625l31.817,24.832c2.118,1.653,4.691-1.636,2.569-3.291L36.881-73.917
						C34.763-75.57,32.19-72.281,34.312-70.625z"/>
				</g>
				<g>
					<path style="fill:#E8D9BC;" d="M109.016,106.269l47.734-19.315c2.49-1.008,0.928-4.88-1.566-3.87l-47.734,19.315
						C104.96,103.406,106.522,107.278,109.016,106.269z"/>
					<path style="fill:#E8D9BC;" d="M75.473,119.841l20.642-8.352c2.49-1.008,0.928-4.88-1.566-3.87l-20.642,8.353
						C71.417,116.979,72.979,120.851,75.473,119.841z"/>
					<path style="fill:#E8D9BC;" d="M5.807,148.031l37.414-15.139c2.491-1.008,0.929-4.88-1.566-3.87L4.24,144.161
						C1.75,145.169,3.312,149.041,5.807,148.031z"/>
				</g>
				<g>
					<path style="fill:#E8D9BC;" d="M196.354,171.782l7.14-50.997c0.372-2.66-3.762-3.244-4.135-0.579l-7.14,50.997
						C191.846,173.864,195.981,174.447,196.354,171.782z"/>
					<path style="fill:#E8D9BC;" d="M191.337,207.618l3.088-22.053c0.372-2.661-3.762-3.244-4.135-0.579l-3.088,22.053
						C186.829,209.7,190.964,210.283,191.337,207.618z"/>
					<path style="fill:#E8D9BC;" d="M180.916,282.046l5.596-39.97c0.373-2.661-3.762-3.244-4.135-0.579l-5.596,39.97
						C176.409,284.128,180.543,284.711,180.916,282.046z"/>
				</g>
				<g>
					<path style="fill:#E8D9BC;" d="M296.759,128.903l-40.595-31.682c-2.118-1.653-4.69,1.636-2.569,3.291l40.595,31.682
						C296.308,133.847,298.88,130.558,296.759,128.903z"/>
					<path style="fill:#E8D9BC;" d="M325.285,151.165l-17.554-13.7c-2.118-1.653-4.69,1.636-2.569,3.292l17.554,13.7
						C324.834,156.11,327.406,152.821,325.285,151.165z"/>
					<path style="fill:#E8D9BC;" d="M384.531,197.404l-31.817-24.832c-2.118-1.653-4.69,1.636-2.569,3.292l31.817,24.832
						C384.08,202.348,386.652,199.059,384.531,197.404z"/>
				</g>
			</g>
			<g>
				<path style="fill:#E8D9BC;" d="M149.263,40.158l19.862,8.419c2.473,1.048,4.107-2.794,1.629-3.844l-19.862-8.418
					C148.419,35.265,146.785,39.108,149.263,40.158z"/>
				<g>
					<path style="fill:#E8D9BC;" d="M60.255,2.431l70.476,29.872c2.474,1.049,4.107-2.794,1.629-3.844L61.884-1.413
						C59.411-2.461,57.777,1.381,60.255,2.431z"/>
					<path style="fill:#E8D9BC;" d="M-5.736-25.539l33.957,14.393c2.474,1.048,4.107-2.794,1.629-3.844L-4.107-29.383
						C-6.58-30.432-8.214-26.59-5.736-25.539z"/>
				</g>
				<path style="fill:#E8D9BC;" d="M159.223,103.873l17.221-12.991c2.145-1.618-0.366-4.954-2.514-3.333l-17.222,12.991
					C154.564,102.157,157.075,105.493,159.223,103.873z"/>
				<g>
					<path style="fill:#E8D9BC;" d="M82.048,162.092l61.108-46.098c2.145-1.618-0.366-4.954-2.515-3.333l-61.108,46.098
						C77.388,160.377,79.899,163.713,82.048,162.092z"/>
					<path style="fill:#E8D9BC;" d="M24.828,205.257l29.443-22.211c2.145-1.618-0.366-4.954-2.514-3.333l-29.443,22.211
						C20.169,203.542,22.68,206.878,24.828,205.257z"/>
				</g>
				<path style="fill:#E8D9BC;" d="M219.382,127.104l-2.64-21.41c-0.329-2.666-4.473-2.16-4.144,0.511l2.64,21.41
					C215.567,130.281,219.711,129.775,219.382,127.104z"/>
				<g>
					<path style="fill:#E8D9BC;" d="M231.214,223.05l-9.368-75.97c-0.329-2.666-4.473-2.16-4.144,0.511l9.368,75.97
						C227.399,226.227,231.543,225.721,231.214,223.05z"/>
					<path style="fill:#E8D9BC;" d="M239.986,294.185l-4.514-36.604c-0.329-2.666-4.473-2.16-4.144,0.511l4.514,36.604
						C236.171,297.363,240.315,296.856,239.986,294.185z"/>
				</g>
				<path style="fill:#E8D9BC;" d="M269.58,86.62l-19.861-8.418c-2.474-1.048-4.107,2.794-1.629,3.844l19.861,8.418
					C270.424,91.513,272.058,87.671,269.58,86.62z"/>
				<g>
					<path style="fill:#E8D9BC;" d="M358.588,124.347l-70.476-29.872c-2.474-1.048-4.107,2.794-1.629,3.844l70.476,29.872
						C359.432,129.239,361.065,125.397,358.588,124.347z"/>
					<path style="fill:#E8D9BC;" d="M424.579,152.318l-33.957-14.393c-2.474-1.048-4.107,2.794-1.629,3.844l33.957,14.393
						C425.423,157.21,427.057,153.368,424.579,152.318z"/>
				</g>
				<path style="fill:#E8D9BC;" d="M259.62,22.906l-17.221,12.991c-2.145,1.618,0.366,4.954,2.514,3.333l17.221-12.992
					C264.279,24.621,261.768,21.285,259.62,22.906z"/>
				<g>
					<path style="fill:#E8D9BC;" d="M336.796-35.314l-61.108,46.098c-2.145,1.618,0.366,4.954,2.514,3.333l61.108-46.098
						C341.455-33.599,338.944-36.935,336.796-35.314z"/>
					<path style="fill:#E8D9BC;" d="M394.015-78.479l-29.443,22.211c-2.145,1.618,0.366,4.954,2.515,3.333l29.443-22.211
						C398.674-76.764,396.163-80.099,394.015-78.479z"/>
				</g>
				<path style="fill:#E8D9BC;" d="M199.461-0.326l2.64,21.41c0.329,2.666,4.473,2.16,4.144-0.511l-2.64-21.41
					C203.276-3.503,199.132-2.996,199.461-0.326z"/>
				<g>
					<path style="fill:#E8D9BC;" d="M187.629-96.271l9.368,75.97c0.329,2.666,4.473,2.16,4.144-0.511l-9.368-75.97
						C191.444-99.449,187.3-98.942,187.629-96.271z"/>
					<path style="fill:#E8D9BC;" d="M178.857-167.407l4.514,36.604c0.329,2.666,4.473,2.16,4.144-0.511l-4.514-36.604
						C182.672-170.585,178.528-170.078,178.857-167.407z"/>
				</g>
			</g>
		</g>
	</g>
</g>
</svg>
