<?xml version="1.0" encoding="utf-8"?>
<!-- Generator: Adobe Illustrator 27.5.0, SVG Export Plug-In . SVG Version: 6.00 Build 0)  -->
<svg version="1.1" xmlns="http://www.w3.org/2000/svg" xmlns:xlink="http://www.w3.org/1999/xlink" x="0px" y="0px"
	 viewBox="0 0 1000 700" style="enable-background:new 0 0 1000 700;" xml:space="preserve">
<g id="BG">
	<rect style="fill:#272525;" width="1000" height="700"/>
</g>
<g id="Object">
	<g style="opacity:0.8;">
		<defs>
			<rect id="SVGID_1_" style="opacity:0.8;" width="1000" height="700"/>
		</defs>
		<clipPath id="SVGID_00000137092620177760536480000017458538075351480737_">
			<use xlink:href="#SVGID_1_"  style="overflow:visible;"/>
		</clipPath>
		<g style="opacity:0.1;clip-path:url(#SVGID_00000137092620177760536480000017458538075351480737_);">
			<g>
				<g>
					<path style="fill:#E8D9BC;" d="M51.948,177.215l-45.414,6.244c-1.053,0.145-0.83,1.781,0.225,1.637l45.414-6.244
						C53.226,178.707,53.002,177.07,51.948,177.215z"/>
					<path style="fill:#E8D9BC;" d="M89.088,172.109l-21.684,2.981c-1.053,0.145-0.83,1.781,0.225,1.636l21.684-2.981
						C90.366,173.601,90.143,171.964,89.088,172.109z"/>
				</g>
				<g>
					<path style="fill:#E8D9BC;" d="M19.247,122.57l-27.698,36.528c-0.642,0.847,0.673,1.846,1.316,0.998l27.698-36.528
						C21.205,122.721,19.89,121.721,19.247,122.57z"/>
					<path style="fill:#E8D9BC;" d="M41.899,92.697l-13.225,17.441c-0.642,0.847,0.673,1.846,1.316,0.998l13.225-17.441
						C43.857,92.848,42.542,91.848,41.899,92.697z"/>
				</g>
				<g>
					<path style="fill:#E8D9BC;" d="M-42.516,107.052l6.244,45.414c0.145,1.053,1.782,0.83,1.637-0.225l-6.244-45.414
						C-41.024,105.774-42.661,105.998-42.516,107.052z"/>
					<path style="fill:#E8D9BC;" d="M-47.622,69.912l2.981,21.684c0.145,1.053,1.782,0.83,1.637-0.225l-2.981-21.684
						C-46.131,68.634-47.767,68.857-47.622,69.912z"/>
				</g>
				<g>
					<path style="fill:#E8D9BC;" d="M-97.161,139.753l36.528,27.698c0.847,0.642,1.847-0.673,0.998-1.316l-36.528-27.698
						C-97.01,137.794-98.01,139.11-97.161,139.753z"/>
					<path style="fill:#E8D9BC;" d="M-127.034,117.101l17.441,13.225c0.847,0.642,1.847-0.673,0.998-1.316l-17.441-13.225
						C-126.883,115.143-127.883,116.458-127.034,117.101z"/>
				</g>
				<g>
					<path style="fill:#E8D9BC;" d="M-112.679,201.516l45.414-6.244c1.053-0.145,0.83-1.781-0.225-1.637l-45.414,6.244
						C-113.957,200.024-113.734,201.661-112.679,201.516z"/>
					<path style="fill:#E8D9BC;" d="M-149.819,206.622l21.684-2.981c1.053-0.145,0.83-1.782-0.225-1.637l-21.684,2.981
						C-151.097,205.13-150.874,206.767-149.819,206.622z"/>
				</g>
				<g>
					<path style="fill:#E8D9BC;" d="M-79.978,256.161l27.698-36.528c0.642-0.847-0.673-1.846-1.316-0.998l-27.698,36.527
						C-81.937,256.01-80.621,257.01-79.978,256.161z"/>
					<path style="fill:#E8D9BC;" d="M-102.63,286.034l13.225-17.441c0.642-0.847-0.673-1.846-1.316-0.998l-13.225,17.441
						C-104.588,285.883-103.273,286.883-102.63,286.034z"/>
				</g>
				<g>
					<path style="fill:#E8D9BC;" d="M-18.215,271.679l-6.244-45.414c-0.145-1.053-1.782-0.83-1.637,0.225l6.244,45.414
						C-19.707,272.957-18.07,272.733-18.215,271.679z"/>
					<path style="fill:#E8D9BC;" d="M-13.109,308.819l-2.981-21.684c-0.145-1.053-1.782-0.83-1.637,0.225l2.981,21.684
						C-14.601,310.097-12.964,309.874-13.109,308.819z"/>
				</g>
				<g>
					<path style="fill:#E8D9BC;" d="M36.43,238.978L-0.097,211.28c-0.847-0.642-1.846,0.673-0.998,1.316l36.528,27.698
						C36.279,240.937,37.279,239.621,36.43,238.978z"/>
					<path style="fill:#E8D9BC;" d="M66.303,261.63l-17.441-13.225c-0.847-0.642-1.847,0.673-0.998,1.316l17.441,13.225
						C66.152,263.588,67.152,262.273,66.303,261.63z"/>
				</g>
			</g>
			<g>
				<g>
					<path style="fill:#E8D9BC;" d="M48.853,163.445l-25.594,8.095c-1.013,0.321-0.517,1.896,0.498,1.575l25.594-8.095
						C50.364,164.699,49.868,163.124,48.853,163.445z"/>
					<path style="fill:#E8D9BC;" d="M77.203,154.478l-12.207,3.861c-1.013,0.321-0.517,1.896,0.498,1.575l12.207-3.861
						C78.715,155.732,78.218,154.157,77.203,154.478z"/>
				</g>
				<g>
					<path style="fill:#E8D9BC;" d="M7.321,115.021l-12.374,23.822c-0.49,0.943,0.975,1.706,1.466,0.761l12.374-23.822
						C9.277,114.839,7.812,114.076,7.321,115.021z"/>
					<path style="fill:#E8D9BC;" d="M21.028,88.634l-5.901,11.361c-0.49,0.943,0.975,1.706,1.466,0.762l5.901-11.361
						C22.984,88.452,21.519,87.689,21.028,88.634z"/>
				</g>
				<g>
					<path style="fill:#E8D9BC;" d="M-56.286,110.147l8.095,25.594c0.321,1.013,1.896,0.517,1.575-0.498l-8.095-25.594
						C-55.032,108.636-56.608,109.132-56.286,110.147z"/>
					<path style="fill:#E8D9BC;" d="M-65.253,81.797l3.861,12.207c0.321,1.013,1.896,0.517,1.575-0.498l-3.861-12.206
						C-63.999,80.285-65.574,80.782-65.253,81.797z"/>
				</g>
				<g>
					<path style="fill:#E8D9BC;" d="M-104.71,151.679l23.822,12.374c0.943,0.49,1.706-0.975,0.761-1.466l-23.822-12.374
						C-104.892,149.723-105.655,151.188-104.71,151.679z"/>
					<path style="fill:#E8D9BC;" d="M-131.097,137.972l11.361,5.902c0.943,0.49,1.706-0.975,0.761-1.466l-11.361-5.901
						C-131.279,136.016-132.042,137.481-131.097,137.972z"/>
				</g>
				<g>
					<path style="fill:#E8D9BC;" d="M-109.584,215.286l25.594-8.095c1.013-0.321,0.517-1.896-0.498-1.575l-25.594,8.095
						C-111.095,214.032-110.599,215.608-109.584,215.286z"/>
					<path style="fill:#E8D9BC;" d="M-137.934,224.253l12.206-3.861c1.013-0.32,0.517-1.896-0.498-1.575l-12.206,3.861
						C-139.446,222.999-138.949,224.574-137.934,224.253z"/>
				</g>
				<g>
					<path style="fill:#E8D9BC;" d="M-68.052,263.71l12.374-23.822c0.49-0.943-0.975-1.706-1.466-0.762l-12.374,23.822
						C-70.008,263.892-68.543,264.655-68.052,263.71z"/>
					<path style="fill:#E8D9BC;" d="M-81.759,290.097l5.901-11.361c0.49-0.943-0.975-1.706-1.466-0.761l-5.901,11.361
						C-83.715,290.279-82.25,291.042-81.759,290.097z"/>
				</g>
				<g>
					<path style="fill:#E8D9BC;" d="M-4.444,268.584l-8.095-25.594c-0.32-1.014-1.896-0.517-1.575,0.498l8.095,25.594
						C-5.699,270.095-4.123,269.599-4.444,268.584z"/>
					<path style="fill:#E8D9BC;" d="M4.522,296.934l-3.861-12.207c-0.321-1.013-1.896-0.517-1.575,0.498l3.861,12.207
						C3.267,298.446,4.843,297.949,4.522,296.934z"/>
				</g>
				<g>
					<path style="fill:#E8D9BC;" d="M43.979,227.052l-23.822-12.374c-0.943-0.49-1.706,0.975-0.762,1.466l23.822,12.374
						C44.161,229.008,44.924,227.543,43.979,227.052z"/>
					<path style="fill:#E8D9BC;" d="M70.366,240.759l-11.361-5.901c-0.943-0.49-1.706,0.975-0.762,1.466l11.361,5.902
						C70.548,242.715,71.311,241.25,70.366,240.759z"/>
				</g>
			</g>
			<g>
				<g>
					<path style="fill:#E8D9BC;" d="M40.894,195.846l-11.914-1.222c-1.057-0.108-1.228,1.535-0.169,1.643l11.914,1.222
						C41.783,197.598,41.953,195.955,40.894,195.846z"/>
					<path style="fill:#E8D9BC;" d="M70.063,198.839l-20.13-2.065c-1.057-0.109-1.228,1.535-0.169,1.643l20.131,2.065
						C70.951,200.59,71.122,198.947,70.063,198.839z"/>
				</g>
				<g>
					<path style="fill:#E8D9BC;" d="M24.605,143.56l-9.289,7.56c-0.824,0.671,0.217,1.953,1.043,1.281l9.289-7.56
						C26.472,144.17,25.431,142.888,24.605,143.56z"/>
					<path style="fill:#E8D9BC;" d="M47.347,125.05l-15.695,12.774c-0.824,0.671,0.217,1.953,1.043,1.281l15.695-12.774
						C49.214,125.661,48.172,124.378,47.347,125.05z"/>
				</g>
				<g>
					<path style="fill:#E8D9BC;" d="M-23.885,118.106l-1.222,11.914c-0.109,1.057,1.535,1.228,1.643,0.169l1.222-11.914
						C-22.133,117.217-23.776,117.047-23.885,118.106z"/>
					<path style="fill:#E8D9BC;" d="M-20.892,88.937l-2.065,20.131c-0.108,1.057,1.535,1.228,1.643,0.169l2.065-20.131
						C-19.141,88.048-20.784,87.878-20.892,88.937z"/>
				</g>
				<g>
					<path style="fill:#E8D9BC;" d="M-76.171,134.395l7.56,9.289c0.671,0.824,1.953-0.217,1.281-1.043l-7.56-9.289
						C-75.561,132.528-76.843,133.569-76.171,134.395z"/>
					<path style="fill:#E8D9BC;" d="M-94.681,111.654l12.774,15.695c0.671,0.824,1.953-0.217,1.281-1.043l-12.774-15.695
						C-94.07,109.786-95.353,110.828-94.681,111.654z"/>
				</g>
				<g>
					<path style="fill:#E8D9BC;" d="M-101.625,182.885l11.914,1.222c1.057,0.109,1.228-1.535,0.169-1.643l-11.914-1.222
						C-102.514,181.133-102.684,182.776-101.625,182.885z"/>
					<path style="fill:#E8D9BC;" d="M-130.794,179.893l20.131,2.065c1.057,0.109,1.228-1.535,0.169-1.643l-20.131-2.065
						C-131.683,178.141-131.853,179.784-130.794,179.893z"/>
				</g>
				<g>
					<path style="fill:#E8D9BC;" d="M-85.336,235.171l9.289-7.56c0.824-0.671-0.217-1.953-1.043-1.281l-9.289,7.56
						C-87.203,234.561-86.162,235.843-85.336,235.171z"/>
					<path style="fill:#E8D9BC;" d="M-108.078,253.681l15.695-12.774c0.824-0.671-0.217-1.953-1.043-1.281l-15.695,12.774
						C-109.945,253.07-108.903,254.353-108.078,253.681z"/>
				</g>
				<g>
					<path style="fill:#E8D9BC;" d="M-36.846,260.625l1.222-11.914c0.108-1.057-1.535-1.228-1.643-0.169l-1.222,11.914
						C-38.598,261.514-36.955,261.684-36.846,260.625z"/>
					<path style="fill:#E8D9BC;" d="M-39.839,289.794l2.065-20.131c0.108-1.057-1.535-1.228-1.643-0.169l-2.065,20.131
						C-41.59,290.683-39.947,290.853-39.839,289.794z"/>
				</g>
				<g>
					<path style="fill:#E8D9BC;" d="M15.44,244.336l-7.56-9.289c-0.671-0.824-1.953,0.217-1.281,1.043l7.56,9.289
						C14.83,246.203,16.112,245.162,15.44,244.336z"/>
					<path style="fill:#E8D9BC;" d="M33.949,267.078l-12.774-15.695c-0.671-0.824-1.953,0.217-1.281,1.043l12.774,15.695
						C33.339,268.945,34.622,267.903,33.949,267.078z"/>
				</g>
			</g>
			<g>
				<g>
					<path style="fill:#E8D9BC;" d="M42.698,210.89L5.53,199.684c-1.018-0.307-1.496,1.274-0.477,1.582l37.168,11.206
						C43.239,212.779,43.717,211.197,42.698,210.89z"/>
					<path style="fill:#E8D9BC;" d="M58.119,215.539l-7.513-2.265c-1.018-0.307-1.496,1.274-0.477,1.581l7.513,2.265
						C58.66,217.428,59.138,215.847,58.119,215.539z"/>
				</g>
				<g>
					<path style="fill:#E8D9BC;" d="M36.199,152.376L1.994,170.734c-0.937,0.503-0.157,1.959,0.781,1.455l34.206-18.358
						C37.917,153.329,37.137,151.873,36.199,152.376z"/>
					<path style="fill:#E8D9BC;" d="M50.391,144.76l-6.914,3.711c-0.937,0.503-0.157,1.959,0.781,1.456l6.914-3.711
						C52.109,145.713,51.329,144.256,50.391,144.76z"/>
				</g>
				<g>
					<path style="fill:#E8D9BC;" d="M-9.772,115.596l-11.206,37.168c-0.307,1.018,1.274,1.496,1.582,0.477l11.206-37.168
						C-7.883,115.055-9.464,114.577-9.772,115.596z"/>
					<path style="fill:#E8D9BC;" d="M-5.122,100.175l-2.265,7.513c-0.307,1.018,1.274,1.496,1.582,0.477l2.265-7.513
						C-3.234,99.635-4.815,99.156-5.122,100.175z"/>
				</g>
				<g>
					<path style="fill:#E8D9BC;" d="M-68.285,122.095l18.358,34.206c0.503,0.937,1.959,0.157,1.456-0.781l-18.358-34.205
						C-67.333,120.377-68.789,121.157-68.285,122.095z"/>
					<path style="fill:#E8D9BC;" d="M-75.902,107.903l3.711,6.914c0.503,0.937,1.959,0.157,1.456-0.781l-3.711-6.914
						C-74.949,106.186-76.406,106.965-75.902,107.903z"/>
				</g>
				<g>
					<path style="fill:#E8D9BC;" d="M-105.066,168.066l37.168,11.206c1.018,0.307,1.496-1.274,0.477-1.582l-37.168-11.206
						C-105.606,166.178-106.085,167.759-105.066,168.066z"/>
					<path style="fill:#E8D9BC;" d="M-120.486,163.417l7.513,2.265c1.018,0.307,1.496-1.274,0.477-1.581l-7.513-2.265
						C-121.027,161.528-121.506,163.109-120.486,163.417z"/>
				</g>
				<g>
					<path style="fill:#E8D9BC;" d="M-98.567,226.58l34.206-18.358c0.936-0.503,0.157-1.959-0.781-1.456l-34.205,18.358
						C-100.285,225.627-99.505,227.083-98.567,226.58z"/>
					<path style="fill:#E8D9BC;" d="M-112.758,234.196l6.914-3.711c0.937-0.503,0.157-1.959-0.781-1.456l-6.914,3.711
						C-114.476,233.243-113.697,234.7-112.758,234.196z"/>
				</g>
				<g>
					<path style="fill:#E8D9BC;" d="M-52.596,263.36l11.206-37.168c0.307-1.018-1.274-1.496-1.582-0.477l-11.206,37.168
						C-54.484,263.901-52.903,264.379-52.596,263.36z"/>
					<path style="fill:#E8D9BC;" d="M-57.245,278.781l2.265-7.513c0.307-1.018-1.274-1.496-1.582-0.477l-2.265,7.513
						C-59.134,279.322-57.553,279.8-57.245,278.781z"/>
				</g>
				<g>
					<path style="fill:#E8D9BC;" d="M5.918,256.861l-18.358-34.206c-0.503-0.937-1.959-0.157-1.456,0.781l18.358,34.206
						C4.965,258.579,6.421,257.799,5.918,256.861z"/>
					<path style="fill:#E8D9BC;" d="M13.535,271.053l-3.711-6.914c-0.503-0.937-1.959-0.157-1.455,0.781l3.711,6.914
						C12.582,272.77,14.038,271.991,13.535,271.053z"/>
				</g>
			</g>
		</g>
		<g style="opacity:0.1;clip-path:url(#SVGID_00000137092620177760536480000017458538075351480737_);">
			<g>
				<g>
					<path style="fill:#E8D9BC;" d="M1154.047,421.15l-51.262,7.048c-1.189,0.163-0.937,2.011,0.254,1.847l51.262-7.048
						C1155.49,422.834,1155.238,420.987,1154.047,421.15z"/>
					<path style="fill:#E8D9BC;" d="M1195.971,415.387l-24.477,3.365c-1.189,0.163-0.937,2.011,0.254,1.847l24.477-3.365
						C1197.413,417.07,1197.161,415.223,1195.971,415.387z"/>
				</g>
				<g>
					<path style="fill:#E8D9BC;" d="M1117.136,359.468l-31.264,41.231c-0.725,0.956,0.76,2.084,1.486,1.127l31.264-41.231
						C1119.347,359.639,1117.862,358.51,1117.136,359.468z"/>
					<path style="fill:#E8D9BC;" d="M1142.704,325.748l-14.928,19.687c-0.725,0.956,0.76,2.084,1.486,1.127l14.928-19.687
						C1144.915,325.919,1143.431,324.79,1142.704,325.748z"/>
				</g>
				<g>
					<path style="fill:#E8D9BC;" d="M1047.419,341.953l7.048,51.262c0.163,1.189,2.011,0.937,1.847-0.254l-7.048-51.262
						C1049.103,340.51,1047.256,340.762,1047.419,341.953z"/>
					<path style="fill:#E8D9BC;" d="M1041.656,300.029l3.365,24.477c0.163,1.189,2.011,0.937,1.847-0.254l-3.365-24.477
						C1043.339,298.587,1041.492,298.839,1041.656,300.029z"/>
				</g>
				<g>
					<path style="fill:#E8D9BC;" d="M985.737,378.864l41.231,31.264c0.956,0.725,2.084-0.76,1.127-1.486l-41.231-31.264
						C985.907,376.653,984.779,378.138,985.737,378.864z"/>
					<path style="fill:#E8D9BC;" d="M952.017,353.296l19.687,14.928c0.956,0.725,2.084-0.76,1.127-1.486l-19.687-14.928
						C952.188,351.085,951.06,352.569,952.017,353.296z"/>
				</g>
				<g>
					<path style="fill:#E8D9BC;" d="M968.221,448.581l51.262-7.048c1.189-0.163,0.937-2.011-0.254-1.847l-51.262,7.048
						C966.779,446.897,967.031,448.744,968.221,448.581z"/>
					<path style="fill:#E8D9BC;" d="M926.298,454.345l24.477-3.365c1.189-0.163,0.937-2.011-0.254-1.847l-24.477,3.365
						C924.856,452.661,925.107,454.508,926.298,454.345z"/>
				</g>
				<g>
					<path style="fill:#E8D9BC;" d="M1005.133,510.263l31.264-41.231c0.725-0.956-0.76-2.084-1.486-1.127l-31.264,41.231
						C1002.922,510.092,1004.407,511.221,1005.133,510.263z"/>
					<path style="fill:#E8D9BC;" d="M979.564,543.983l14.928-19.687c0.725-0.956-0.76-2.084-1.486-1.127l-14.928,19.687
						C977.354,543.812,978.838,544.941,979.564,543.983z"/>
				</g>
				<g>
					<path style="fill:#E8D9BC;" d="M1074.85,527.779l-7.048-51.262c-0.163-1.189-2.011-0.937-1.847,0.254l7.048,51.262
						C1073.166,529.221,1075.013,528.969,1074.85,527.779z"/>
					<path style="fill:#E8D9BC;" d="M1080.613,569.702l-3.365-24.477c-0.163-1.188-2.011-0.937-1.847,0.254l3.365,24.477
						C1078.929,571.145,1080.777,570.892,1080.613,569.702z"/>
				</g>
				<g>
					<path style="fill:#E8D9BC;" d="M1136.532,490.867l-41.231-31.264c-0.956-0.725-2.084,0.76-1.127,1.486l41.231,31.264
						C1136.361,493.078,1137.49,491.593,1136.532,490.867z"/>
					<path style="fill:#E8D9BC;" d="M1170.252,516.435l-19.687-14.928c-0.956-0.725-2.084,0.76-1.127,1.486l19.687,14.928
						C1170.081,518.646,1171.209,517.162,1170.252,516.435z"/>
				</g>
			</g>
			<g>
				<g>
					<path style="fill:#E8D9BC;" d="M1150.554,405.607l-28.89,9.137c-1.144,0.362-0.583,2.14,0.562,1.778l28.89-9.137
						C1152.26,407.023,1151.7,405.244,1150.554,405.607z"/>
					<path style="fill:#E8D9BC;" d="M1182.555,395.485l-13.778,4.358c-1.144,0.362-0.584,2.14,0.562,1.778l13.778-4.358
						C1184.262,396.901,1183.701,395.123,1182.555,395.485z"/>
				</g>
				<g>
					<path style="fill:#E8D9BC;" d="M1103.674,350.947l-13.968,26.89c-0.553,1.065,1.101,1.926,1.655,0.859l13.968-26.889
						C1105.882,350.742,1104.228,349.881,1103.674,350.947z"/>
					<path style="fill:#E8D9BC;" d="M1119.146,321.162l-6.661,12.824c-0.553,1.065,1.101,1.926,1.655,0.859l6.662-12.824
						C1121.354,320.957,1119.7,320.095,1119.146,321.162z"/>
				</g>
				<g>
					<path style="fill:#E8D9BC;" d="M1031.876,345.446l9.137,28.89c0.362,1.144,2.14,0.584,1.778-0.562l-9.137-28.89
						C1033.292,343.74,1031.513,344.3,1031.876,345.446z"/>
					<path style="fill:#E8D9BC;" d="M1021.754,313.445l4.358,13.778c0.362,1.144,2.14,0.583,1.778-0.562l-4.358-13.779
						C1023.17,311.738,1021.392,312.299,1021.754,313.445z"/>
				</g>
				<g>
					<path style="fill:#E8D9BC;" d="M977.216,392.326l26.889,13.967c1.065,0.553,1.926-1.101,0.859-1.655l-26.89-13.968
						C977.011,390.118,976.15,391.772,977.216,392.326z"/>
					<path style="fill:#E8D9BC;" d="M947.431,376.854l12.824,6.661c1.065,0.553,1.926-1.101,0.86-1.655l-12.824-6.661
						C947.226,374.646,946.364,376.3,947.431,376.854z"/>
				</g>
				<g>
					<path style="fill:#E8D9BC;" d="M971.715,464.125l28.89-9.137c1.144-0.362,0.583-2.14-0.562-1.778l-28.89,9.137
						C970.009,462.708,970.569,464.487,971.715,464.125z"/>
					<path style="fill:#E8D9BC;" d="M939.714,474.246l13.778-4.358c1.144-0.362,0.583-2.14-0.562-1.778l-13.778,4.358
						C938.007,472.83,938.568,474.608,939.714,474.246z"/>
				</g>
				<g>
					<path style="fill:#E8D9BC;" d="M1018.595,518.784l13.967-26.89c0.553-1.065-1.101-1.926-1.655-0.859l-13.968,26.889
						C1016.387,518.989,1018.041,519.85,1018.595,518.784z"/>
					<path style="fill:#E8D9BC;" d="M1003.123,548.569l6.661-12.824c0.553-1.065-1.101-1.926-1.655-0.859l-6.661,12.824
						C1000.915,548.774,1002.569,549.636,1003.123,548.569z"/>
				</g>
				<g>
					<path style="fill:#E8D9BC;" d="M1090.393,524.285l-9.137-28.89c-0.362-1.144-2.14-0.584-1.778,0.562l9.137,28.89
						C1088.977,525.991,1090.756,525.431,1090.393,524.285z"/>
					<path style="fill:#E8D9BC;" d="M1100.515,556.286l-4.358-13.779c-0.362-1.144-2.14-0.584-1.778,0.562l4.358,13.778
						C1099.099,557.993,1100.877,557.432,1100.515,556.286z"/>
				</g>
				<g>
					<path style="fill:#E8D9BC;" d="M1145.053,477.405l-26.89-13.967c-1.065-0.553-1.926,1.101-0.859,1.655l26.89,13.967
						C1145.258,479.613,1146.119,477.959,1145.053,477.405z"/>
					<path style="fill:#E8D9BC;" d="M1174.838,492.877l-12.824-6.661c-1.065-0.553-1.926,1.101-0.86,1.655l12.824,6.661
						C1175.043,495.085,1175.905,493.431,1174.838,492.877z"/>
				</g>
			</g>
			<g>
				<g>
					<path style="fill:#E8D9BC;" d="M1141.57,442.181l-13.448-1.38c-1.193-0.122-1.386,1.732-0.19,1.855l13.448,1.38
						C1142.574,444.158,1142.766,442.303,1141.57,442.181z"/>
					<path style="fill:#E8D9BC;" d="M1174.495,445.559l-22.723-2.331c-1.194-0.122-1.386,1.732-0.19,1.855l22.723,2.331
						C1175.499,447.536,1175.691,445.681,1174.495,445.559z"/>
				</g>
				<g>
					<path style="fill:#E8D9BC;" d="M1123.184,383.161l-10.485,8.534c-0.931,0.757,0.245,2.205,1.177,1.446l10.485-8.534
						C1125.291,383.85,1124.116,382.403,1123.184,383.161z"/>
					<path style="fill:#E8D9BC;" d="M1148.854,362.268l-17.716,14.419c-0.931,0.757,0.245,2.205,1.177,1.446l17.716-14.419
						C1150.961,362.957,1149.786,361.51,1148.854,362.268z"/>
				</g>
				<g>
					<path style="fill:#E8D9BC;" d="M1068.449,354.43l-1.38,13.448c-0.123,1.194,1.732,1.386,1.855,0.19l1.38-13.448
						C1070.427,353.426,1068.572,353.234,1068.449,354.43z"/>
					<path style="fill:#E8D9BC;" d="M1071.827,321.505l-2.331,22.723c-0.123,1.193,1.732,1.386,1.855,0.19l2.331-22.723
						C1073.805,320.501,1071.95,320.309,1071.827,321.505z"/>
				</g>
				<g>
					<path style="fill:#E8D9BC;" d="M1009.43,372.816l8.534,10.485c0.757,0.93,2.205-0.245,1.446-1.177l-8.534-10.485
						C1010.119,370.708,1008.672,371.884,1009.43,372.816z"/>
					<path style="fill:#E8D9BC;" d="M988.537,347.146l14.419,17.716c0.757,0.931,2.205-0.245,1.446-1.177l-14.419-17.716
						C989.226,345.039,987.779,346.214,988.537,347.146z"/>
				</g>
				<g>
					<path style="fill:#E8D9BC;" d="M980.699,427.551l13.448,1.38c1.193,0.122,1.386-1.732,0.19-1.855l-13.448-1.38
						C979.695,425.573,979.503,427.428,980.699,427.551z"/>
					<path style="fill:#E8D9BC;" d="M947.773,424.173l22.723,2.331c1.193,0.122,1.386-1.732,0.19-1.855l-22.723-2.331
						C946.77,422.195,946.578,424.05,947.773,424.173z"/>
				</g>
				<g>
					<path style="fill:#E8D9BC;" d="M999.085,486.57l10.485-8.534c0.931-0.757-0.245-2.205-1.177-1.446l-10.485,8.534
						C996.977,485.881,998.153,487.328,999.085,486.57z"/>
					<path style="fill:#E8D9BC;" d="M973.415,507.463l17.716-14.419c0.93-0.757-0.245-2.205-1.177-1.446l-17.716,14.419
						C971.307,506.774,972.483,508.221,973.415,507.463z"/>
				</g>
				<g>
					<path style="fill:#E8D9BC;" d="M1053.819,515.301l1.38-13.448c0.123-1.194-1.732-1.386-1.855-0.19l-1.38,13.448
						C1051.842,516.305,1053.697,516.497,1053.819,515.301z"/>
					<path style="fill:#E8D9BC;" d="M1050.442,548.227l2.331-22.723c0.122-1.194-1.732-1.386-1.855-0.19l-2.331,22.723
						C1048.464,549.23,1050.319,549.422,1050.442,548.227z"/>
				</g>
				<g>
					<path style="fill:#E8D9BC;" d="M1112.839,496.915l-8.534-10.485c-0.757-0.931-2.205,0.245-1.446,1.177l8.534,10.485
						C1112.15,499.022,1113.597,497.847,1112.839,496.915z"/>
					<path style="fill:#E8D9BC;" d="M1133.732,522.585l-14.419-17.716c-0.757-0.93-2.205,0.245-1.446,1.177l14.419,17.716
						C1133.043,524.693,1134.49,523.517,1133.732,522.585z"/>
				</g>
			</g>
			<g>
				<g>
					<path style="fill:#E8D9BC;" d="M1143.607,459.162l-41.954-12.649c-1.149-0.346-1.689,1.438-0.538,1.785l41.954,12.649
						C1144.217,461.293,1144.757,459.509,1143.607,459.162z"/>
					<path style="fill:#E8D9BC;" d="M1161.013,464.41l-8.48-2.557c-1.149-0.346-1.689,1.438-0.538,1.785l8.48,2.557
						C1161.624,466.542,1162.164,464.757,1161.013,464.41z"/>
				</g>
				<g>
					<path style="fill:#E8D9BC;" d="M1136.271,393.113l-38.61,20.722c-1.057,0.567-0.177,2.211,0.882,1.643l38.61-20.722
						C1138.21,394.189,1137.33,392.545,1136.271,393.113z"/>
					<path style="fill:#E8D9BC;" d="M1152.29,384.516l-7.804,4.189c-1.057,0.567-0.177,2.211,0.882,1.643l7.804-4.189
						C1154.229,385.591,1153.349,383.947,1152.29,384.516z"/>
				</g>
				<g>
					<path style="fill:#E8D9BC;" d="M1084.38,351.597l-12.649,41.954c-0.346,1.149,1.438,1.689,1.785,0.538l12.649-41.954
						C1086.512,350.986,1084.727,350.446,1084.38,351.597z"/>
					<path style="fill:#E8D9BC;" d="M1089.628,334.19l-2.557,8.48c-0.346,1.149,1.438,1.689,1.785,0.538l2.557-8.48
						C1091.76,333.579,1089.975,333.039,1089.628,334.19z"/>
				</g>
				<g>
					<path style="fill:#E8D9BC;" d="M1018.331,358.932l20.722,38.61c0.568,1.057,2.211,0.177,1.643-0.882l-20.722-38.61
						C1019.407,356.993,1017.763,357.873,1018.331,358.932z"/>
					<path style="fill:#E8D9BC;" d="M1009.734,342.913l4.189,7.804c0.567,1.057,2.211,0.177,1.643-0.882l-4.189-7.804
						C1010.81,340.974,1009.166,341.854,1009.734,342.913z"/>
				</g>
				<g>
					<path style="fill:#E8D9BC;" d="M976.815,410.823l41.954,12.649c1.149,0.346,1.689-1.438,0.538-1.785l-41.954-12.649
						C976.204,408.691,975.664,410.476,976.815,410.823z"/>
					<path style="fill:#E8D9BC;" d="M959.408,405.575l8.48,2.557c1.149,0.346,1.689-1.438,0.538-1.785l-8.48-2.557
						C958.798,403.444,958.258,405.228,959.408,405.575z"/>
				</g>
				<g>
					<path style="fill:#E8D9BC;" d="M984.151,476.872l38.61-20.722c1.057-0.568,0.177-2.211-0.882-1.643l-38.61,20.722
						C982.212,475.796,983.092,477.44,984.151,476.872z"/>
					<path style="fill:#E8D9BC;" d="M968.131,485.469l7.804-4.188c1.057-0.567,0.177-2.211-0.882-1.643l-7.804,4.189
						C966.192,484.394,967.073,486.038,968.131,485.469z"/>
				</g>
				<g>
					<path style="fill:#E8D9BC;" d="M1036.041,518.388l12.649-41.954c0.346-1.149-1.438-1.689-1.785-0.538l-12.649,41.954
						C1033.91,518.999,1035.694,519.539,1036.041,518.388z"/>
					<path style="fill:#E8D9BC;" d="M1030.793,535.795l2.557-8.48c0.346-1.149-1.438-1.689-1.785-0.538l-2.557,8.48
						C1028.662,536.406,1030.447,536.946,1030.793,535.795z"/>
				</g>
				<g>
					<path style="fill:#E8D9BC;" d="M1102.09,511.053l-20.722-38.61c-0.567-1.057-2.211-0.177-1.643,0.882l20.722,38.61
						C1101.015,512.992,1102.659,512.112,1102.09,511.053z"/>
					<path style="fill:#E8D9BC;" d="M1110.688,527.072l-4.189-7.804c-0.567-1.057-2.211-0.177-1.643,0.882l4.188,7.804
						C1109.612,529.011,1111.256,528.131,1110.688,527.072z"/>
				</g>
			</g>
		</g>
		<g style="opacity:0.15;clip-path:url(#SVGID_00000137092620177760536480000017458538075351480737_);">
			<g>
				<g>
					<path style="fill:#E8D9BC;" d="M689.068,664.261v50.812c0,1.635,2.541,1.637,2.541,0v-50.812
						C691.609,662.627,689.068,662.624,689.068,664.261z"/>
					<path style="fill:#E8D9BC;" d="M689.068,590.584v52.505c0,1.635,2.541,1.637,2.541,0v-52.505
						C691.609,588.95,689.068,588.947,689.068,590.584z"/>
				</g>
				<g>
					<path style="fill:#E8D9BC;" d="M629.931,699.871l44.004,25.406c1.416,0.818,2.688-1.381,1.27-2.2l-44.004-25.406
						C629.786,696.853,628.513,699.052,629.931,699.871z"/>
					<path style="fill:#E8D9BC;" d="M566.125,663.032l45.471,26.253c1.416,0.817,2.688-1.381,1.27-2.2l-45.471-26.253
						C565.98,660.015,564.707,662.214,566.125,663.032z"/>
				</g>
				<g>
					<path style="fill:#E8D9BC;" d="M631.202,768.89l44.004-25.406c1.416-0.818,0.148-3.019-1.27-2.2l-44.004,25.406
						C628.516,767.507,629.784,769.709,631.202,768.89z"/>
					<path style="fill:#E8D9BC;" d="M567.396,805.729l45.471-26.253c1.416-0.817,0.148-3.019-1.27-2.2l-45.471,26.253
						C564.709,804.346,565.977,806.547,567.396,805.729z"/>
				</g>
				<g>
					<path style="fill:#E8D9BC;" d="M691.609,802.299v-50.812c0-1.635-2.541-1.637-2.541,0v50.812
						C689.068,803.934,691.609,803.937,691.609,802.299z"/>
					<path style="fill:#E8D9BC;" d="M691.609,875.976v-52.505c0-1.635-2.541-1.638-2.541,0v52.505
						C689.068,877.611,691.609,877.614,691.609,875.976z"/>
				</g>
				<g>
					<path style="fill:#E8D9BC;" d="M750.746,766.69l-44.004-25.406c-1.416-0.818-2.688,1.381-1.27,2.2l44.004,25.406
						C750.892,769.707,752.164,767.509,750.746,766.69z"/>
					<path style="fill:#E8D9BC;" d="M814.552,803.528l-45.471-26.253c-1.416-0.817-2.688,1.381-1.27,2.2l45.471,26.253
						C814.698,806.546,815.97,804.347,814.552,803.528z"/>
				</g>
				<g>
					<path style="fill:#E8D9BC;" d="M749.476,697.671l-44.004,25.406c-1.416,0.818-0.148,3.019,1.27,2.2l44.004-25.406
						C752.162,699.054,750.894,696.852,749.476,697.671z"/>
					<path style="fill:#E8D9BC;" d="M813.282,660.832l-45.471,26.253c-1.416,0.817-0.148,3.019,1.27,2.2l45.471-26.253
						C815.968,662.215,814.7,660.014,813.282,660.832z"/>
				</g>
			</g>
			<g>
				<g>
					<path style="fill:#E8D9BC;" d="M728.663,693.159l-13.773,13.773c-1.156,1.156,0.638,2.954,1.796,1.796l13.773-13.773
						C731.616,693.8,729.821,692.002,728.663,693.159z"/>
					<path style="fill:#E8D9BC;" d="M784.953,636.87l-39.522,39.522c-1.156,1.156,0.638,2.954,1.796,1.796l39.522-39.522
						C787.905,637.511,786.11,635.712,784.953,636.87z"/>
				</g>
				<g>
					<path style="fill:#E8D9BC;" d="M674.755,680.03l5.041,18.814c0.423,1.579,2.878,0.924,2.454-0.658l-5.041-18.814
						C676.786,677.793,674.331,678.448,674.755,680.03z"/>
					<path style="fill:#E8D9BC;" d="M654.152,603.137l14.466,53.988c0.423,1.579,2.878,0.924,2.454-0.658l-14.466-53.988
						C656.183,600.901,653.728,601.556,654.152,603.137z"/>
				</g>
				<g>
					<path style="fill:#E8D9BC;" d="M636.431,720.151l18.814,5.041c1.579,0.423,2.239-2.03,0.658-2.454l-18.814-5.041
						C635.509,717.274,634.849,719.727,636.431,720.151z"/>
					<path style="fill:#E8D9BC;" d="M559.538,699.548l53.988,14.466c1.579,0.423,2.239-2.03,0.658-2.454l-53.988-14.466
						C558.617,696.67,557.957,699.124,559.538,699.548z"/>
				</g>
				<g>
					<path style="fill:#E8D9BC;" d="M652.014,773.401l13.773-13.773c1.156-1.156-0.639-2.954-1.797-1.797l-13.773,13.773
						C649.062,772.761,650.857,774.559,652.014,773.401z"/>
					<path style="fill:#E8D9BC;" d="M595.725,829.69l39.522-39.522c1.156-1.156-0.639-2.954-1.796-1.796l-39.522,39.522
						C592.773,829.05,594.567,830.848,595.725,829.69z"/>
				</g>
				<g>
					<path style="fill:#E8D9BC;" d="M705.922,786.531l-5.041-18.814c-0.423-1.579-2.878-0.924-2.454,0.657l5.041,18.814
						C703.891,788.768,706.346,788.113,705.922,786.531z"/>
					<path style="fill:#E8D9BC;" d="M726.526,863.423l-14.466-53.988c-0.423-1.579-2.878-0.924-2.454,0.658l14.466,53.988
						C724.495,865.66,726.949,865.005,726.526,863.423z"/>
				</g>
				<g>
					<path style="fill:#E8D9BC;" d="M744.247,746.41l-18.814-5.041c-1.579-0.423-2.239,2.03-0.657,2.454l18.814,5.041
						C745.168,749.287,745.829,746.834,744.247,746.41z"/>
					<path style="fill:#E8D9BC;" d="M821.139,767.013l-53.988-14.466c-1.579-0.423-2.239,2.03-0.657,2.454l53.988,14.466
						C822.061,769.89,822.721,767.437,821.139,767.013z"/>
				</g>
			</g>
			<g>
				<g>
					<path style="fill:#E8D9BC;" d="M634.05,678.788l29.342,29.342c1.156,1.156,2.954-0.639,1.797-1.797l-29.342-29.342
						C634.69,675.835,632.892,677.63,634.05,678.788z"/>
					<path style="fill:#E8D9BC;" d="M619.079,663.817l5.389,5.389c1.156,1.156,2.954-0.639,1.796-1.797l-5.389-5.389
						C619.72,660.865,617.921,662.659,619.079,663.817z"/>
					<path style="fill:#E8D9BC;" d="M579.557,624.295l20.959,20.959c1.156,1.156,2.954-0.639,1.797-1.796l-20.959-20.959
						C580.198,621.343,578.399,623.137,579.557,624.295z"/>
				</g>
				<g>
					<path style="fill:#E8D9BC;" d="M615.002,754.782l40.082-10.74c1.579-0.423,0.924-2.878-0.658-2.454l-40.082,10.74
						C612.766,752.751,613.421,755.206,615.002,754.782z"/>
					<path style="fill:#E8D9BC;" d="M594.552,760.261l7.362-1.973c1.579-0.423,0.924-2.878-0.657-2.454l-7.362,1.973
						C592.315,758.231,592.971,760.685,594.552,760.261z"/>
					<path style="fill:#E8D9BC;" d="M540.564,774.728l28.63-7.672c1.579-0.423,0.924-2.878-0.658-2.454l-28.63,7.672
						C538.327,772.697,538.982,775.151,540.564,774.728z"/>
				</g>
				<g>
					<path style="fill:#E8D9BC;" d="M671.291,809.275l10.74-40.082c0.423-1.579-2.03-2.239-2.454-0.658l-10.74,40.082
						C668.414,810.196,670.868,810.856,671.291,809.275z"/>
					<path style="fill:#E8D9BC;" d="M665.812,829.725l1.973-7.362c0.423-1.579-2.03-2.239-2.454-0.657l-1.973,7.362
						C662.935,830.646,665.388,831.306,665.812,829.725z"/>
					<path style="fill:#E8D9BC;" d="M651.346,883.713l7.672-28.63c0.423-1.579-2.03-2.239-2.454-0.658l-7.672,28.63
						C648.469,884.634,650.922,885.295,651.346,883.713z"/>
				</g>
				<g>
					<path style="fill:#E8D9BC;" d="M746.628,787.773l-29.342-29.342c-1.156-1.156-2.954,0.639-1.796,1.797l29.342,29.342
						C745.987,790.726,747.786,788.931,746.628,787.773z"/>
					<path style="fill:#E8D9BC;" d="M761.599,802.744l-5.389-5.389c-1.156-1.156-2.954,0.639-1.797,1.797l5.39,5.389
						C760.958,805.696,762.756,803.901,761.599,802.744z"/>
					<path style="fill:#E8D9BC;" d="M801.121,842.266l-20.959-20.959c-1.156-1.156-2.954,0.639-1.797,1.797l20.959,20.959
						C800.48,845.218,802.279,843.424,801.121,842.266z"/>
				</g>
				<g>
					<path style="fill:#E8D9BC;" d="M765.675,711.779l-40.082,10.74c-1.579,0.423-0.924,2.878,0.657,2.454l40.082-10.74
						C767.912,713.81,767.257,711.355,765.675,711.779z"/>
					<path style="fill:#E8D9BC;" d="M786.126,706.299l-7.362,1.973c-1.579,0.423-0.924,2.878,0.658,2.454l7.362-1.972
						C788.362,708.33,787.707,705.876,786.126,706.299z"/>
					<path style="fill:#E8D9BC;" d="M840.114,691.833l-28.63,7.672c-1.579,0.423-0.924,2.878,0.658,2.454l28.63-7.671
						C842.35,693.864,841.696,691.409,840.114,691.833z"/>
				</g>
				<g>
					<path style="fill:#E8D9BC;" d="M709.386,657.286l-10.74,40.082c-0.423,1.579,2.03,2.239,2.454,0.658l10.74-40.082
						C712.263,656.365,709.81,655.705,709.386,657.286z"/>
					<path style="fill:#E8D9BC;" d="M714.866,636.836l-1.973,7.362c-0.423,1.579,2.03,2.239,2.454,0.658l1.973-7.362
						C717.743,635.915,715.29,635.254,714.866,636.836z"/>
					<path style="fill:#E8D9BC;" d="M729.332,582.848l-7.672,28.63c-0.423,1.579,2.03,2.239,2.454,0.657l7.671-28.63
						C732.209,581.926,729.756,581.266,729.332,582.848z"/>
				</g>
			</g>
			<g>
				<g>
					<path style="fill:#E8D9BC;" d="M608.193,734.551h56.74c1.635,0,1.637-2.54,0-2.54h-56.74
						C606.559,732.01,606.556,734.551,608.193,734.551z"/>
					<path style="fill:#E8D9BC;" d="M566.697,734.551h21.172c1.635,0,1.638-2.54,0-2.54h-21.172
						C565.063,732.01,565.06,734.551,566.697,734.551z"/>
				</g>
				<g>
					<path style="fill:#E8D9BC;" d="M651.001,806.156l28.37-49.138c0.817-1.416-1.382-2.688-2.2-1.27l-28.37,49.138
						C647.984,806.301,650.183,807.574,651.001,806.156z"/>
					<path style="fill:#E8D9BC;" d="M630.253,842.092l10.586-18.335c0.817-1.416-1.382-2.689-2.2-1.27l-10.586,18.335
						C627.236,842.238,629.435,843.51,630.253,842.092z"/>
				</g>
				<g>
					<path style="fill:#E8D9BC;" d="M734.417,804.885l-28.37-49.138c-0.817-1.416-3.019-0.148-2.2,1.27l28.37,49.138
						C733.034,807.571,735.236,806.303,734.417,804.885z"/>
					<path style="fill:#E8D9BC;" d="M755.165,840.822l-10.586-18.335c-0.818-1.416-3.019-0.148-2.2,1.27l10.586,18.335
						C753.782,843.508,755.984,842.24,755.165,840.822z"/>
				</g>
				<g>
					<path style="fill:#E8D9BC;" d="M775.025,732.01h-56.74c-1.635,0-1.637,2.54,0,2.54h56.74
						C776.66,734.551,776.662,732.01,775.025,732.01z"/>
					<path style="fill:#E8D9BC;" d="M816.521,732.01h-21.172c-1.635,0-1.637,2.54,0,2.54h21.172
						C818.156,734.551,818.159,732.01,816.521,732.01z"/>
				</g>
				<g>
					<path style="fill:#E8D9BC;" d="M732.217,660.405l-28.37,49.138c-0.817,1.416,1.381,2.688,2.2,1.27l28.37-49.138
						C735.234,660.26,733.036,658.987,732.217,660.405z"/>
					<path style="fill:#E8D9BC;" d="M752.965,624.468l-10.586,18.335c-0.817,1.416,1.381,2.688,2.2,1.27l10.586-18.335
						C755.982,624.323,753.784,623.05,752.965,624.468z"/>
				</g>
				<g>
					<path style="fill:#E8D9BC;" d="M648.801,661.675l28.37,49.138c0.817,1.416,3.019,0.148,2.2-1.27l-28.37-49.138
						C650.184,658.989,647.982,660.257,648.801,661.675z"/>
					<path style="fill:#E8D9BC;" d="M628.053,625.739l10.586,18.335c0.817,1.416,3.019,0.148,2.2-1.27l-10.586-18.335
						C629.436,623.053,627.234,624.32,628.053,625.739z"/>
				</g>
			</g>
			<g>
				<g>
					<path style="fill:#E8D9BC;" d="M689.068,664.261v50.812c0,1.635,2.541,1.637,2.541,0v-50.812
						C691.609,662.627,689.068,662.624,689.068,664.261z"/>
					<path style="fill:#E8D9BC;" d="M689.068,590.584v52.505c0,1.635,2.541,1.637,2.541,0v-52.505
						C691.609,588.95,689.068,588.947,689.068,590.584z"/>
				</g>
				<g>
					<path style="fill:#E8D9BC;" d="M629.931,699.871l44.004,25.406c1.416,0.818,2.688-1.381,1.27-2.2l-44.004-25.406
						C629.786,696.853,628.513,699.052,629.931,699.871z"/>
					<path style="fill:#E8D9BC;" d="M566.125,663.032l45.471,26.253c1.416,0.817,2.688-1.381,1.27-2.2l-45.471-26.253
						C565.98,660.015,564.707,662.214,566.125,663.032z"/>
				</g>
				<g>
					<path style="fill:#E8D9BC;" d="M631.202,768.89l44.004-25.406c1.416-0.818,0.148-3.019-1.27-2.2l-44.004,25.406
						C628.516,767.507,629.784,769.709,631.202,768.89z"/>
					<path style="fill:#E8D9BC;" d="M567.396,805.729l45.471-26.253c1.416-0.817,0.148-3.019-1.27-2.2l-45.471,26.253
						C564.709,804.346,565.977,806.547,567.396,805.729z"/>
				</g>
				<g>
					<path style="fill:#E8D9BC;" d="M691.609,802.299v-50.812c0-1.635-2.541-1.637-2.541,0v50.812
						C689.068,803.934,691.609,803.937,691.609,802.299z"/>
					<path style="fill:#E8D9BC;" d="M691.609,875.976v-52.505c0-1.635-2.541-1.638-2.541,0v52.505
						C689.068,877.611,691.609,877.614,691.609,875.976z"/>
				</g>
				<g>
					<path style="fill:#E8D9BC;" d="M750.746,766.69l-44.004-25.406c-1.416-0.818-2.688,1.381-1.27,2.2l44.004,25.406
						C750.892,769.707,752.164,767.509,750.746,766.69z"/>
					<path style="fill:#E8D9BC;" d="M814.552,803.528l-45.471-26.253c-1.416-0.817-2.688,1.381-1.27,2.2l45.471,26.253
						C814.698,806.546,815.97,804.347,814.552,803.528z"/>
				</g>
				<g>
					<path style="fill:#E8D9BC;" d="M749.476,697.671l-44.004,25.406c-1.416,0.818-0.148,3.019,1.27,2.2l44.004-25.406
						C752.162,699.054,750.894,696.852,749.476,697.671z"/>
					<path style="fill:#E8D9BC;" d="M813.282,660.832l-45.471,26.253c-1.416,0.817-0.148,3.019,1.27,2.2l45.471-26.253
						C815.968,662.215,814.7,660.014,813.282,660.832z"/>
				</g>
			</g>
			<g>
				<g>
					<path style="fill:#E8D9BC;" d="M728.663,693.159l-13.773,13.773c-1.156,1.156,0.638,2.954,1.796,1.796l13.773-13.773
						C731.616,693.8,729.821,692.002,728.663,693.159z"/>
					<path style="fill:#E8D9BC;" d="M784.953,636.87l-39.522,39.522c-1.156,1.156,0.638,2.954,1.796,1.796l39.522-39.522
						C787.905,637.511,786.11,635.712,784.953,636.87z"/>
				</g>
				<g>
					<path style="fill:#E8D9BC;" d="M674.755,680.03l5.041,18.814c0.423,1.579,2.878,0.924,2.454-0.658l-5.041-18.814
						C676.786,677.793,674.331,678.448,674.755,680.03z"/>
					<path style="fill:#E8D9BC;" d="M654.152,603.137l14.466,53.988c0.423,1.579,2.878,0.924,2.454-0.658l-14.466-53.988
						C656.183,600.901,653.728,601.556,654.152,603.137z"/>
				</g>
				<g>
					<path style="fill:#E8D9BC;" d="M636.431,720.151l18.814,5.041c1.579,0.423,2.239-2.03,0.658-2.454l-18.814-5.041
						C635.509,717.274,634.849,719.727,636.431,720.151z"/>
					<path style="fill:#E8D9BC;" d="M559.538,699.548l53.988,14.466c1.579,0.423,2.239-2.03,0.658-2.454l-53.988-14.466
						C558.617,696.67,557.957,699.124,559.538,699.548z"/>
				</g>
				<g>
					<path style="fill:#E8D9BC;" d="M652.014,773.401l13.773-13.773c1.156-1.156-0.639-2.954-1.797-1.797l-13.773,13.773
						C649.062,772.761,650.857,774.559,652.014,773.401z"/>
					<path style="fill:#E8D9BC;" d="M595.725,829.69l39.522-39.522c1.156-1.156-0.639-2.954-1.796-1.796l-39.522,39.522
						C592.773,829.05,594.567,830.848,595.725,829.69z"/>
				</g>
				<g>
					<path style="fill:#E8D9BC;" d="M705.922,786.531l-5.041-18.814c-0.423-1.579-2.878-0.924-2.454,0.657l5.041,18.814
						C703.891,788.768,706.346,788.113,705.922,786.531z"/>
					<path style="fill:#E8D9BC;" d="M726.526,863.423l-14.466-53.988c-0.423-1.579-2.878-0.924-2.454,0.658l14.466,53.988
						C724.495,865.66,726.949,865.005,726.526,863.423z"/>
				</g>
				<g>
					<path style="fill:#E8D9BC;" d="M744.247,746.41l-18.814-5.041c-1.579-0.423-2.239,2.03-0.657,2.454l18.814,5.041
						C745.168,749.287,745.829,746.834,744.247,746.41z"/>
					<path style="fill:#E8D9BC;" d="M821.139,767.013l-53.988-14.466c-1.579-0.423-2.239,2.03-0.657,2.454l53.988,14.466
						C822.061,769.89,822.721,767.437,821.139,767.013z"/>
				</g>
			</g>
			<g>
				<g>
					<path style="fill:#E8D9BC;" d="M634.05,678.788l29.342,29.342c1.156,1.156,2.954-0.639,1.797-1.797l-29.342-29.342
						C634.69,675.835,632.892,677.63,634.05,678.788z"/>
					<path style="fill:#E8D9BC;" d="M619.079,663.817l5.389,5.389c1.156,1.156,2.954-0.639,1.796-1.797l-5.389-5.389
						C619.72,660.865,617.921,662.659,619.079,663.817z"/>
					<path style="fill:#E8D9BC;" d="M579.557,624.295l20.959,20.959c1.156,1.156,2.954-0.639,1.797-1.796l-20.959-20.959
						C580.198,621.343,578.399,623.137,579.557,624.295z"/>
				</g>
				<g>
					<path style="fill:#E8D9BC;" d="M615.002,754.782l40.082-10.74c1.579-0.423,0.924-2.878-0.658-2.454l-40.082,10.74
						C612.766,752.751,613.421,755.206,615.002,754.782z"/>
					<path style="fill:#E8D9BC;" d="M594.552,760.261l7.362-1.973c1.579-0.423,0.924-2.878-0.657-2.454l-7.362,1.973
						C592.315,758.231,592.971,760.685,594.552,760.261z"/>
					<path style="fill:#E8D9BC;" d="M540.564,774.728l28.63-7.672c1.579-0.423,0.924-2.878-0.658-2.454l-28.63,7.672
						C538.327,772.697,538.982,775.151,540.564,774.728z"/>
				</g>
				<g>
					<path style="fill:#E8D9BC;" d="M671.291,809.275l10.74-40.082c0.423-1.579-2.03-2.239-2.454-0.658l-10.74,40.082
						C668.414,810.196,670.868,810.856,671.291,809.275z"/>
					<path style="fill:#E8D9BC;" d="M665.812,829.725l1.973-7.362c0.423-1.579-2.03-2.239-2.454-0.657l-1.973,7.362
						C662.935,830.646,665.388,831.306,665.812,829.725z"/>
					<path style="fill:#E8D9BC;" d="M651.346,883.713l7.672-28.63c0.423-1.579-2.03-2.239-2.454-0.658l-7.672,28.63
						C648.469,884.634,650.922,885.295,651.346,883.713z"/>
				</g>
				<g>
					<path style="fill:#E8D9BC;" d="M746.628,787.773l-29.342-29.342c-1.156-1.156-2.954,0.639-1.796,1.797l29.342,29.342
						C745.987,790.726,747.786,788.931,746.628,787.773z"/>
					<path style="fill:#E8D9BC;" d="M761.599,802.744l-5.389-5.389c-1.156-1.156-2.954,0.639-1.797,1.797l5.39,5.389
						C760.958,805.696,762.756,803.901,761.599,802.744z"/>
					<path style="fill:#E8D9BC;" d="M801.121,842.266l-20.959-20.959c-1.156-1.156-2.954,0.639-1.797,1.797l20.959,20.959
						C800.48,845.218,802.279,843.424,801.121,842.266z"/>
				</g>
				<g>
					<path style="fill:#E8D9BC;" d="M765.675,711.779l-40.082,10.74c-1.579,0.423-0.924,2.878,0.657,2.454l40.082-10.74
						C767.912,713.81,767.257,711.355,765.675,711.779z"/>
					<path style="fill:#E8D9BC;" d="M786.126,706.299l-7.362,1.973c-1.579,0.423-0.924,2.878,0.658,2.454l7.362-1.972
						C788.362,708.33,787.707,705.876,786.126,706.299z"/>
					<path style="fill:#E8D9BC;" d="M840.114,691.833l-28.63,7.672c-1.579,0.423-0.924,2.878,0.658,2.454l28.63-7.671
						C842.35,693.864,841.696,691.409,840.114,691.833z"/>
				</g>
				<g>
					<path style="fill:#E8D9BC;" d="M709.386,657.286l-10.74,40.082c-0.423,1.579,2.03,2.239,2.454,0.658l10.74-40.082
						C712.263,656.365,709.81,655.705,709.386,657.286z"/>
					<path style="fill:#E8D9BC;" d="M714.866,636.836l-1.973,7.362c-0.423,1.579,2.03,2.239,2.454,0.658l1.973-7.362
						C717.743,635.915,715.29,635.254,714.866,636.836z"/>
					<path style="fill:#E8D9BC;" d="M729.332,582.848l-7.672,28.63c-0.423,1.579,2.03,2.239,2.454,0.657l7.671-28.63
						C732.209,581.926,729.756,581.266,729.332,582.848z"/>
				</g>
			</g>
			<g>
				<g>
					<path style="fill:#E8D9BC;" d="M608.193,734.551h56.74c1.635,0,1.637-2.54,0-2.54h-56.74
						C606.559,732.01,606.556,734.551,608.193,734.551z"/>
					<path style="fill:#E8D9BC;" d="M566.697,734.551h21.172c1.635,0,1.638-2.54,0-2.54h-21.172
						C565.063,732.01,565.06,734.551,566.697,734.551z"/>
				</g>
				<g>
					<path style="fill:#E8D9BC;" d="M651.001,806.156l28.37-49.138c0.817-1.416-1.382-2.688-2.2-1.27l-28.37,49.138
						C647.984,806.301,650.183,807.574,651.001,806.156z"/>
					<path style="fill:#E8D9BC;" d="M630.253,842.092l10.586-18.335c0.817-1.416-1.382-2.689-2.2-1.27l-10.586,18.335
						C627.236,842.238,629.435,843.51,630.253,842.092z"/>
				</g>
				<g>
					<path style="fill:#E8D9BC;" d="M734.417,804.885l-28.37-49.138c-0.817-1.416-3.019-0.148-2.2,1.27l28.37,49.138
						C733.034,807.571,735.236,806.303,734.417,804.885z"/>
					<path style="fill:#E8D9BC;" d="M755.165,840.822l-10.586-18.335c-0.818-1.416-3.019-0.148-2.2,1.27l10.586,18.335
						C753.782,843.508,755.984,842.24,755.165,840.822z"/>
				</g>
				<g>
					<path style="fill:#E8D9BC;" d="M775.025,732.01h-56.74c-1.635,0-1.637,2.54,0,2.54h56.74
						C776.66,734.551,776.662,732.01,775.025,732.01z"/>
					<path style="fill:#E8D9BC;" d="M816.521,732.01h-21.172c-1.635,0-1.637,2.54,0,2.54h21.172
						C818.156,734.551,818.159,732.01,816.521,732.01z"/>
				</g>
				<g>
					<path style="fill:#E8D9BC;" d="M732.217,660.405l-28.37,49.138c-0.817,1.416,1.381,2.688,2.2,1.27l28.37-49.138
						C735.234,660.26,733.036,658.987,732.217,660.405z"/>
					<path style="fill:#E8D9BC;" d="M752.965,624.468l-10.586,18.335c-0.817,1.416,1.381,2.688,2.2,1.27l10.586-18.335
						C755.982,624.323,753.784,623.05,752.965,624.468z"/>
				</g>
				<g>
					<path style="fill:#E8D9BC;" d="M648.801,661.675l28.37,49.138c0.817,1.416,3.019,0.148,2.2-1.27l-28.37-49.138
						C650.184,658.989,647.982,660.257,648.801,661.675z"/>
					<path style="fill:#E8D9BC;" d="M628.053,625.739l10.586,18.335c0.817,1.416,3.019,0.148,2.2-1.27l-10.586-18.335
						C629.436,623.053,627.234,624.32,628.053,625.739z"/>
				</g>
			</g>
		</g>
		<g style="opacity:0.44;clip-path:url(#SVGID_00000137092620177760536480000017458538075351480737_);">
			<g>
				<g>
					<g>
						<path style="fill:#E8D9BC;" d="M1174.945,602.102l-94.522,63.03c-1.931,1.288,0.057,4.275,1.991,2.985l94.522-63.03
							C1178.867,603.8,1176.879,600.813,1174.945,602.102z"/>
						<path style="fill:#E8D9BC;" d="M1209.453,579.091l-15.003,10.005c-1.931,1.287,0.057,4.275,1.991,2.985l15.004-10.005
							C1213.375,580.789,1211.387,577.802,1209.453,579.091z"/>
					</g>
					<g>
						<path style="fill:#E8D9BC;" d="M1063.711,529.58l-22.498,111.062c-0.459,2.269,3.069,2.968,3.529,0.696l22.498-111.062
							C1067.7,528.007,1064.171,527.307,1063.711,529.58z"/>
						<path style="fill:#E8D9BC;" d="M1071.924,489.033l-3.571,17.629c-0.46,2.269,3.069,2.969,3.529,0.696l3.571-17.629
							C1075.913,487.461,1072.385,486.761,1071.924,489.033z"/>
					</g>
					<g>
						<path style="fill:#E8D9BC;" d="M933.297,557.042l62.706,94.036c1.281,1.921,4.284-0.077,3.001-2.001l-62.706-94.036
							C935.017,553.121,932.014,555.118,933.297,557.042z"/>
						<path style="fill:#E8D9BC;" d="M910.405,522.712l9.953,14.926c1.281,1.921,4.284-0.077,3.001-2.001l-9.953-14.926
							C912.125,518.79,909.122,520.788,910.405,522.712z"/>
					</g>
					<g>
						<path style="fill:#E8D9BC;" d="M860.1,668.403l111.177,21.924c2.271,0.448,2.989-3.077,0.714-3.526l-111.177-21.924
							C858.543,664.43,857.825,667.955,860.1,668.403z"/>
						<path style="fill:#E8D9BC;" d="M819.511,660.399l17.647,3.48c2.271,0.448,2.989-3.077,0.714-3.526l-17.647-3.48
							C817.954,656.426,817.236,659.951,819.511,660.399z"/>
					</g>
					<g>
						<path style="fill:#E8D9BC;" d="M886.995,798.429l94.522-63.03c1.931-1.288-0.057-4.275-1.991-2.985l-94.522,63.03
							C883.074,796.731,885.062,799.718,886.995,798.429z"/>
						<path style="fill:#E8D9BC;" d="M852.487,821.44l15.003-10.005c1.931-1.287-0.057-4.275-1.991-2.985l-15.003,10.005
							C848.566,819.742,850.553,822.729,852.487,821.44z"/>
					</g>
					<g>
						<path style="fill:#E8D9BC;" d="M998.23,870.952l22.498-111.062c0.459-2.269-3.069-2.968-3.529-0.696l-22.498,111.062
							C994.241,872.524,997.77,873.224,998.23,870.952z"/>
						<path style="fill:#E8D9BC;" d="M990.017,911.498l3.571-17.629c0.46-2.269-3.069-2.968-3.529-0.696l-3.571,17.629
							C986.028,913.071,989.556,913.771,990.017,911.498z"/>
					</g>
					<g>
						<path style="fill:#E8D9BC;" d="M1128.643,843.489l-62.706-94.035c-1.281-1.921-4.284,0.077-3.001,2.001l62.706,94.035
							C1126.924,847.411,1129.927,845.413,1128.643,843.489z"/>
						<path style="fill:#E8D9BC;" d="M1151.536,877.819l-9.953-14.926c-1.281-1.921-4.284,0.077-3.001,2.001l9.953,14.926
							C1149.816,881.741,1152.819,879.743,1151.536,877.819z"/>
					</g>
					<g>
						<path style="fill:#E8D9BC;" d="M1201.841,732.128l-111.177-21.924c-2.271-0.448-2.989,3.077-0.714,3.526l111.177,21.924
							C1203.398,736.102,1204.116,732.577,1201.841,732.128z"/>
						<path style="fill:#E8D9BC;" d="M1242.43,740.132l-17.647-3.48c-2.271-0.448-2.989,3.077-0.714,3.526l17.647,3.48
							C1243.987,744.106,1244.704,740.581,1242.43,740.132z"/>
					</g>
				</g>
				<g>
					<g>
						<path style="fill:#E8D9BC;" d="M986.158,481.047l28.323,144.474c0.444,2.267,3.979,1.565,3.534-0.706l-28.323-144.474
							C989.247,478.073,985.713,478.776,986.158,481.047z"/>
						<path style="fill:#E8D9BC;" d="M973.032,414.095l8.29,42.285c0.445,2.267,3.979,1.565,3.534-0.706l-8.289-42.285
							C976.122,411.122,972.587,411.824,973.032,414.095z"/>
					</g>
					<g>
						<path style="fill:#E8D9BC;" d="M843.811,577.618l122.485,81.683c1.922,1.282,3.936-1.707,2.01-2.991l-122.485-81.683
							C843.899,573.345,841.886,576.334,843.811,577.618z"/>
						<path style="fill:#E8D9BC;" d="M787.05,539.765l35.849,23.907c1.922,1.282,3.936-1.707,2.01-2.991l-35.849-23.907
							C787.138,535.492,785.124,538.481,787.05,539.765z"/>
					</g>
					<g>
						<path style="fill:#E8D9BC;" d="M811.1,746.035l144.897-28.956c2.274-0.454,1.587-3.979-0.691-3.524l-144.898,28.956
							C808.135,742.966,808.822,746.49,811.1,746.035z"/>
						<path style="fill:#E8D9BC;" d="M743.952,759.453l42.409-8.475c2.274-0.454,1.587-3.979-0.691-3.524l-42.409,8.475
							C740.987,756.384,741.674,759.908,743.952,759.453z"/>
					</g>
					<g>
						<path style="fill:#E8D9BC;" d="M907.186,887.641l82.431-122.633c1.294-1.924-1.692-3.92-2.987-1.992l-82.43,122.633
							C902.904,887.573,905.89,889.568,907.186,887.641z"/>
						<path style="fill:#E8D9BC;" d="M868.986,944.471l24.126-35.893c1.294-1.925-1.692-3.92-2.987-1.992l-24.126,35.893
							C864.705,944.403,867.69,946.398,868.986,944.471z"/>
					</g>
					<g>
						<path style="fill:#E8D9BC;" d="M1075.783,919.484l-28.323-144.474c-0.445-2.267-3.979-1.565-3.534,0.706l28.323,144.474
							C1072.693,922.458,1076.228,921.756,1075.783,919.484z"/>
						<path style="fill:#E8D9BC;" d="M1088.908,986.436l-8.29-42.285c-0.445-2.267-3.979-1.565-3.534,0.706l8.29,42.285
							C1085.819,989.409,1089.354,988.707,1088.908,986.436z"/>
					</g>
					<g>
						<path style="fill:#E8D9BC;" d="M1218.13,822.913l-122.485-81.683c-1.922-1.282-3.936,1.707-2.011,2.991l122.485,81.683
							C1218.042,827.186,1220.055,824.197,1218.13,822.913z"/>
						<path style="fill:#E8D9BC;" d="M1274.891,860.767l-35.849-23.907c-1.922-1.282-3.936,1.707-2.01,2.991l35.849,23.907
							C1274.803,865.04,1276.817,862.051,1274.891,860.767z"/>
					</g>
					<g>
						<path style="fill:#E8D9BC;" d="M1250.841,654.497l-144.897,28.956c-2.274,0.455-1.587,3.979,0.691,3.524l144.898-28.956
							C1253.806,657.566,1253.119,654.041,1250.841,654.497z"/>
						<path style="fill:#E8D9BC;" d="M1317.989,641.078l-42.409,8.475c-2.274,0.454-1.587,3.979,0.691,3.524l42.409-8.475
							C1320.953,644.147,1320.266,640.623,1317.989,641.078z"/>
					</g>
					<g>
						<path style="fill:#E8D9BC;" d="M1154.755,512.891l-82.431,122.633c-1.294,1.924,1.692,3.92,2.987,1.992l82.431-122.633
							C1159.036,512.958,1156.051,510.963,1154.755,512.891z"/>
						<path style="fill:#E8D9BC;" d="M1192.955,456.061l-24.126,35.893c-1.294,1.924,1.692,3.92,2.987,1.992l24.126-35.893
							C1197.236,456.128,1194.25,454.133,1192.955,456.061z"/>
					</g>
				</g>
			</g>
			<g>
				<g>
					<g>
						<path style="fill:#E8D9BC;" d="M1204.929,696.745l-113.429,1.124c-2.317,0.023-2.302,3.617,0.018,3.594l113.429-1.124
							C1207.264,700.315,1207.25,696.722,1204.929,696.745z"/>
						<path style="fill:#E8D9BC;" d="M1246.339,696.335l-18.005,0.178c-2.317,0.023-2.302,3.616,0.019,3.594l18.005-0.178
							C1248.675,699.905,1248.66,696.312,1246.339,696.335z"/>
					</g>
					<g>
						<path style="fill:#E8D9BC;" d="M1152.069,575.023l-79.792,80.839c-1.63,1.651,0.927,4.17,2.559,2.516l79.792-80.839
							C1156.259,575.888,1153.702,573.369,1152.069,575.023z"/>
						<path style="fill:#E8D9BC;" d="M1181.2,545.51l-12.666,12.832c-1.63,1.651,0.927,4.17,2.559,2.516l12.665-12.831
							C1185.389,546.375,1182.832,543.856,1181.2,545.51z"/>
					</g>
					<g>
						<path style="fill:#E8D9BC;" d="M1028.272,526.667l0.586,113.2c0.012,2.312,3.613,2.28,3.601-0.036l-0.586-113.2
							C1031.861,524.319,1028.26,524.351,1028.272,526.667z"/>
						<path style="fill:#E8D9BC;" d="M1028.058,485.34l0.093,17.968c0.012,2.312,3.613,2.28,3.601-0.036l-0.093-17.969
							C1031.647,482.992,1028.046,483.024,1028.058,485.34z"/>
					</g>
					<g>
						<path style="fill:#E8D9BC;" d="M906.055,580.003l80.621,79.25c1.647,1.619,4.183-0.945,2.533-2.566l-80.62-79.25
							C906.941,575.817,904.405,578.381,906.055,580.003z"/>
						<path style="fill:#E8D9BC;" d="M876.622,551.07l12.797,12.579c1.647,1.619,4.183-0.945,2.533-2.566l-12.797-12.579
							C877.508,546.885,874.972,549.448,876.622,551.07z"/>
					</g>
					<g>
						<path style="fill:#E8D9BC;" d="M857.012,703.787l113.429-1.124c2.317-0.023,2.302-3.617-0.018-3.594l-113.429,1.124
							C854.676,700.216,854.691,703.809,857.012,703.787z"/>
						<path style="fill:#E8D9BC;" d="M815.601,704.197l18.005-0.178c2.317-0.023,2.302-3.617-0.019-3.594l-18.005,0.179
							C813.266,700.626,813.281,704.22,815.601,704.197z"/>
					</g>
					<g>
						<path style="fill:#E8D9BC;" d="M909.872,825.508l79.792-80.839c1.63-1.651-0.927-4.17-2.559-2.516l-79.792,80.839
							C905.682,824.643,908.239,827.162,909.872,825.508z"/>
						<path style="fill:#E8D9BC;" d="M880.741,855.021l12.666-12.832c1.63-1.651-0.927-4.17-2.56-2.516l-12.665,12.832
							C876.552,854.156,879.108,856.675,880.741,855.021z"/>
					</g>
					<g>
						<path style="fill:#E8D9BC;" d="M1033.669,873.864l-0.586-113.2c-0.012-2.312-3.613-2.28-3.601,0.036l0.586,113.2
							C1030.08,876.212,1033.681,876.181,1033.669,873.864z"/>
						<path style="fill:#E8D9BC;" d="M1033.883,915.191l-0.093-17.968c-0.012-2.312-3.613-2.28-3.601,0.036l0.093,17.968
							C1030.294,917.539,1033.895,917.508,1033.883,915.191z"/>
					</g>
					<g>
						<path style="fill:#E8D9BC;" d="M1155.886,820.529l-80.62-79.25c-1.647-1.619-4.183,0.945-2.533,2.566l80.62,79.25
							C1155,824.714,1157.536,822.15,1155.886,820.529z"/>
						<path style="fill:#E8D9BC;" d="M1185.319,849.461l-12.797-12.579c-1.647-1.619-4.183,0.945-2.533,2.566l12.797,12.579
							C1184.433,853.646,1186.968,851.083,1185.319,849.461z"/>
					</g>
				</g>
				<g>
					<g>
						<path style="fill:#E8D9BC;" d="M1114.1,491.861l-55.794,136.684c-0.875,2.145,2.457,3.491,3.334,1.342l55.794-136.684
							C1118.309,491.059,1114.977,489.713,1114.1,491.861z"/>
						<path style="fill:#E8D9BC;" d="M1139.956,428.52l-16.33,40.005c-0.875,2.145,2.457,3.491,3.334,1.342l16.33-40.005
							C1144.165,427.717,1140.833,426.371,1139.956,428.52z"/>
					</g>
					<g>
						<path style="fill:#E8D9BC;" d="M942.373,494.939l57.203,135.564c0.898,2.128,4.219,0.723,3.32-1.408L945.693,493.53
							C944.795,491.403,941.474,492.807,942.373,494.939z"/>
						<path style="fill:#E8D9BC;" d="M915.865,432.116l16.742,39.677c0.898,2.128,4.219,0.723,3.32-1.408l-16.742-39.677
							C918.287,428.58,914.966,429.985,915.865,432.116z"/>
					</g>
					<g>
						<path style="fill:#E8D9BC;" d="M822.546,618.294l136.691,55.033c2.145,0.864,3.51-2.469,1.361-3.334L823.907,614.96
							C821.762,614.096,820.397,617.428,822.546,618.294z"/>
						<path style="fill:#E8D9BC;" d="M759.201,592.791l40.007,16.107c2.145,0.864,3.51-2.469,1.361-3.334l-40.007-16.107
							C758.417,588.593,757.053,591.925,759.201,592.791z"/>
					</g>
					<g>
						<path style="fill:#E8D9BC;" d="M824.811,789.667l136.108-57.736c2.136-0.906,0.744-4.214-1.395-3.307L823.416,786.36
							C821.28,787.266,822.671,790.574,824.811,789.667z"/>
						<path style="fill:#E8D9BC;" d="M761.737,816.422l39.836-16.898c2.136-0.906,0.744-4.214-1.395-3.307l-39.836,16.898
							C758.205,814.022,759.597,817.33,761.737,816.422z"/>
					</g>
					<g>
						<path style="fill:#E8D9BC;" d="M947.841,908.67l55.794-136.684c0.875-2.145-2.457-3.491-3.334-1.342l-55.794,136.684
							C943.631,909.473,946.964,910.819,947.841,908.67z"/>
						<path style="fill:#E8D9BC;" d="M921.985,972.011l16.33-40.005c0.876-2.145-2.457-3.491-3.334-1.342l-16.33,40.005
							C917.776,972.814,921.108,974.16,921.985,972.011z"/>
					</g>
					<g>
						<path style="fill:#E8D9BC;" d="M1119.567,905.593l-57.203-135.564c-0.898-2.127-4.219-0.723-3.32,1.408l57.203,135.564
							C1117.145,909.129,1120.467,907.724,1119.567,905.593z"/>
						<path style="fill:#E8D9BC;" d="M1146.076,968.415l-16.742-39.677c-0.898-2.128-4.219-0.723-3.32,1.408l16.742,39.677
							C1143.654,971.951,1146.975,970.546,1146.076,968.415z"/>
					</g>
					<g>
						<path style="fill:#E8D9BC;" d="M1239.395,782.238l-136.691-55.033c-2.145-0.864-3.509,2.469-1.361,3.334l136.691,55.033
							C1240.179,786.435,1241.544,783.103,1239.395,782.238z"/>
						<path style="fill:#E8D9BC;" d="M1302.74,807.741l-40.007-16.107c-2.145-0.864-3.51,2.469-1.361,3.334l40.007,16.107
							C1303.524,811.938,1304.888,808.606,1302.74,807.741z"/>
					</g>
					<g>
						<path style="fill:#E8D9BC;" d="M1237.13,610.865l-136.108,57.736c-2.136,0.906-0.744,4.214,1.395,3.306l136.108-57.736
							C1240.661,613.265,1239.27,609.957,1237.13,610.865z"/>
						<path style="fill:#E8D9BC;" d="M1300.204,584.109l-39.836,16.898c-2.136,0.906-0.744,4.214,1.395,3.307l39.836-16.898
							C1303.736,586.509,1302.344,583.201,1300.204,584.109z"/>
					</g>
				</g>
			</g>
			<g>
				<g>
					<g>
						<path style="fill:#E8D9BC;" d="M1083.382,619.073l-27.142,40.379c-1.294,1.925,1.692,3.92,2.987,1.992l27.142-40.379
							C1087.663,619.141,1084.678,617.146,1083.382,619.073z"/>
						<path style="fill:#E8D9BC;" d="M1180.892,474.007l-80.42,119.642c-1.294,1.925,1.692,3.92,2.987,1.992L1183.879,476
							C1185.173,474.075,1182.188,472.079,1180.892,474.007z"/>
					</g>
					<g>
						<path style="fill:#E8D9BC;" d="M1010.682,606.14l9.326,47.571c0.444,2.267,3.979,1.565,3.534-0.706l-9.326-47.571
							C1013.771,603.166,1010.236,603.869,1010.682,606.14z"/>
						<path style="fill:#E8D9BC;" d="M977.177,435.238l27.632,140.95c0.444,2.267,3.979,1.565,3.534-0.706l-27.632-140.95
							C980.267,432.264,976.732,432.967,977.177,435.238z"/>
					</g>
					<g>
						<path style="fill:#E8D9BC;" d="M949.866,648.344l40.331,26.896c1.922,1.282,3.936-1.707,2.01-2.991l-40.331-26.896
							C949.954,644.071,947.94,647.06,949.866,648.344z"/>
						<path style="fill:#E8D9BC;" d="M804.974,551.718l119.498,79.691c1.922,1.282,3.936-1.707,2.01-2.991l-119.498-79.691
							C805.063,547.445,803.049,550.434,804.974,551.718z"/>
					</g>
					<g>
						<path style="fill:#E8D9BC;" d="M936.56,720.963l47.71-9.534c2.274-0.454,1.587-3.979-0.691-3.524l-47.71,9.534
							C933.595,717.894,934.282,721.418,936.56,720.963z"/>
						<path style="fill:#E8D9BC;" d="M765.157,755.216l141.363-28.25c2.274-0.454,1.587-3.979-0.691-3.524l-141.363,28.25
							C762.192,752.147,762.879,755.671,765.157,755.216z"/>
					</g>
					<g>
						<path style="fill:#E8D9BC;" d="M978.558,781.458l27.142-40.379c1.294-1.924-1.692-3.92-2.987-1.992l-27.142,40.379
							C974.277,781.391,977.263,783.386,978.558,781.458z"/>
						<path style="fill:#E8D9BC;" d="M881.049,926.524l80.42-119.642c1.294-1.924-1.692-3.92-2.987-1.992l-80.42,119.642
							C876.768,926.457,879.753,928.452,881.049,926.524z"/>
					</g>
					<g>
						<path style="fill:#E8D9BC;" d="M1051.259,794.391l-9.326-47.57c-0.445-2.267-3.979-1.565-3.534,0.706l9.326,47.571
							C1048.17,797.365,1051.705,796.663,1051.259,794.391z"/>
						<path style="fill:#E8D9BC;" d="M1084.763,965.293l-27.632-140.95c-0.444-2.267-3.979-1.565-3.534,0.706L1081.229,966
							C1081.674,968.267,1085.209,967.565,1084.763,965.293z"/>
					</g>
					<g>
						<path style="fill:#E8D9BC;" d="M1112.075,752.187l-40.331-26.896c-1.922-1.282-3.936,1.707-2.01,2.991l40.33,26.896
							C1111.987,756.46,1114.001,753.471,1112.075,752.187z"/>
						<path style="fill:#E8D9BC;" d="M1256.966,848.813l-119.498-79.691c-1.922-1.282-3.936,1.707-2.01,2.991l119.498,79.691
							C1256.878,853.086,1258.892,850.097,1256.966,848.813z"/>
					</g>
					<g>
						<path style="fill:#E8D9BC;" d="M1125.381,679.568l-47.71,9.534c-2.274,0.455-1.587,3.979,0.691,3.524l47.71-9.534
							C1128.346,682.637,1127.659,679.113,1125.381,679.568z"/>
						<path style="fill:#E8D9BC;" d="M1296.784,645.316l-141.363,28.25c-2.274,0.454-1.587,3.979,0.691,3.524l141.363-28.25
							C1299.749,648.385,1299.062,644.86,1296.784,645.316z"/>
					</g>
				</g>
				<g>
					<path style="fill:#E8D9BC;" d="M1197.176,587.278l-133.531,89.043c-1.931,1.288,0.057,4.275,1.991,2.985l133.532-89.043
						C1201.098,588.976,1199.11,585.989,1197.176,587.278z"/>
					<path style="fill:#E8D9BC;" d="M1069.002,503.459l-31.782,156.898c-0.46,2.268,3.069,2.968,3.529,0.696l31.782-156.898
						C1072.991,501.886,1069.462,501.186,1069.002,503.459z"/>
					<path style="fill:#E8D9BC;" d="M918.549,534.926l88.584,132.844c1.281,1.921,4.284-0.077,3.001-2.001L921.55,532.925
						C920.269,531.004,917.266,533.002,918.549,534.926z"/>
					<path style="fill:#E8D9BC;" d="M833.952,663.247l157.06,30.972c2.271,0.448,2.989-3.077,0.714-3.526l-157.06-30.972
						C832.395,659.273,831.677,662.799,833.952,663.247z"/>
					<path style="fill:#E8D9BC;" d="M864.765,813.253l133.531-89.043c1.931-1.287-0.057-4.275-1.991-2.985l-133.531,89.043
						C860.843,811.555,862.831,814.543,864.765,813.253z"/>
					<path style="fill:#E8D9BC;" d="M992.939,897.072l31.782-156.897c0.46-2.269-3.069-2.968-3.529-0.696l-31.782,156.897
						C988.95,898.645,992.478,899.345,992.939,897.072z"/>
					<path style="fill:#E8D9BC;" d="M1143.391,865.605l-88.584-132.844c-1.281-1.921-4.284,0.077-3.001,2.001l88.584,132.844
						C1141.671,869.527,1144.674,867.529,1143.391,865.605z"/>
					<path style="fill:#E8D9BC;" d="M1227.989,737.284l-157.06-30.972c-2.271-0.448-2.989,3.077-0.714,3.526l157.06,30.972
						C1229.546,741.258,1230.264,737.733,1227.989,737.284z"/>
				</g>
			</g>
		</g>
		<g style="opacity:0.15;clip-path:url(#SVGID_00000137092620177760536480000017458538075351480737_);">
			<g>
				<g>
					<path style="fill:#E8D9BC;" d="M300.094-76.363l10.672,49.678c0.343,1.598-2.14,2.135-2.484,0.534L297.61-75.829
						C297.266-77.428,299.75-77.964,300.094-76.363z"/>
					<path style="fill:#E8D9BC;" d="M284.619-148.397l11.028,51.334c0.343,1.598-2.14,2.134-2.484,0.534l-11.028-51.334
						C281.792-149.461,284.275-149.997,284.619-148.397z"/>
				</g>
				<g>
					<path style="fill:#E8D9BC;" d="M365.391-53.968l-37.687,34.081c-1.212,1.097-2.919-0.786-1.704-1.884l37.687-34.081
						C364.899-56.949,366.605-55.067,365.391-53.968z"/>
					<path style="fill:#E8D9BC;" d="M420.036-103.386l-38.943,35.217c-1.212,1.096-2.919-0.786-1.704-1.884l38.943-35.217
						C419.545-106.367,421.251-104.485,420.036-103.386z"/>
				</g>
				<g>
					<path style="fill:#E8D9BC;" d="M378.645,13.778L330.286-1.819c-1.556-0.502-0.779-2.921,0.78-2.418l48.359,15.597
						C380.981,11.862,380.203,14.281,378.645,13.778z"/>
					<path style="fill:#E8D9BC;" d="M448.765,36.394l-49.971-16.117c-1.556-0.502-0.779-2.92,0.78-2.418l49.971,16.117
						C451.101,34.478,450.323,36.896,448.765,36.394z"/>
				</g>
				<g>
					<path style="fill:#E8D9BC;" d="M326.602,59.13L315.93,9.452c-0.343-1.598,2.14-2.135,2.484-0.534l10.672,49.678
						C329.429,60.194,326.946,60.731,326.602,59.13z"/>
					<path style="fill:#E8D9BC;" d="M342.076,131.163l-11.028-51.334c-0.343-1.598,2.14-2.134,2.484-0.534l11.028,51.334
						C344.904,132.228,342.42,132.764,342.076,131.163z"/>
				</g>
				<g>
					<path style="fill:#E8D9BC;" d="M261.305,36.735l37.687-34.081c1.212-1.097,2.919,0.786,1.704,1.884l-37.687,34.081
						C261.796,39.716,260.09,37.833,261.305,36.735z"/>
					<path style="fill:#E8D9BC;" d="M206.659,86.153l38.943-35.217c1.213-1.097,2.918,0.786,1.704,1.884l-38.943,35.217
						C207.151,89.134,205.445,87.251,206.659,86.153z"/>
				</g>
				<g>
					<path style="fill:#E8D9BC;" d="M248.05-31.011l48.359,15.597c1.556,0.502,0.779,2.921-0.78,2.418l-48.358-15.597
						C245.715-29.095,246.492-31.514,248.05-31.011z"/>
					<path style="fill:#E8D9BC;" d="M177.93-53.627l49.971,16.117c1.556,0.502,0.778,2.921-0.78,2.418L177.15-51.209
						C175.595-51.711,176.372-54.13,177.93-53.627z"/>
				</g>
			</g>
			<g>
				<g>
					<path style="fill:#E8D9BC;" d="M267.451-39.793L283.81-29.22c1.373,0.887-0.004,3.022-1.379,2.134L266.072-37.66
						C264.699-38.547,266.076-40.682,267.451-39.793z"/>
					<path style="fill:#E8D9BC;" d="M200.595-83.005l46.941,30.34c1.373,0.887-0.004,3.023-1.379,2.134l-46.941-30.34
						C197.843-81.758,199.22-83.894,200.595-83.005z"/>
				</g>
				<g>
					<path style="fill:#E8D9BC;" d="M317.399-63.952l-0.977,19.453c-0.082,1.633-2.62,1.508-2.537-0.128l0.977-19.453
						C314.944-65.713,317.482-65.588,317.399-63.952z"/>
					<path style="fill:#E8D9BC;" d="M321.393-143.457l-2.804,55.823c-0.082,1.632-2.62,1.508-2.537-0.128l2.804-55.822
						C318.938-145.217,321.475-145.092,321.393-143.457z"/>
				</g>
				<g>
					<path style="fill:#E8D9BC;" d="M363.296-32.776l-17.336,8.88c-1.455,0.745-2.616-1.515-1.158-2.261l17.336-8.88
						C363.592-35.782,364.753-33.522,363.296-32.776z"/>
					<path style="fill:#E8D9BC;" d="M434.146-69.069L384.4-43.586c-1.455,0.745-2.616-1.515-1.158-2.261l49.746-25.483
						C434.442-72.076,435.603-69.816,434.146-69.069z"/>
				</g>
				<g>
					<path style="fill:#E8D9BC;" d="M359.244,22.56l-16.359-10.573c-1.373-0.887,0.004-3.023,1.379-2.134l16.358,10.573
						C361.996,21.314,360.619,23.449,359.244,22.56z"/>
					<path style="fill:#E8D9BC;" d="M426.1,65.771l-46.941-30.34c-1.373-0.887,0.004-3.023,1.379-2.134l46.941,30.34
						C428.852,64.525,427.475,66.66,426.1,65.771z"/>
				</g>
				<g>
					<path style="fill:#E8D9BC;" d="M309.296,46.719l0.977-19.453c0.082-1.633,2.619-1.508,2.537,0.128l-0.977,19.453
						C311.751,48.479,309.214,48.354,309.296,46.719z"/>
					<path style="fill:#E8D9BC;" d="M305.302,126.224l2.804-55.823c0.082-1.632,2.62-1.508,2.537,0.128l-2.804,55.823
						C307.758,127.984,305.22,127.859,305.302,126.224z"/>
				</g>
				<g>
					<path style="fill:#E8D9BC;" d="M263.4,15.542l17.336-8.88c1.455-0.745,2.616,1.515,1.158,2.261l-17.336,8.88
						C263.103,18.549,261.942,16.289,263.4,15.542z"/>
					<path style="fill:#E8D9BC;" d="M192.55,51.836l49.746-25.483c1.455-0.745,2.616,1.515,1.158,2.261l-49.746,25.483
						C192.253,54.842,191.092,52.582,192.55,51.836z"/>
				</g>
			</g>
			<g>
				<g>
					<path style="fill:#E8D9BC;" d="M356.936-73.716l-22.525,34.851c-0.887,1.373-3.023-0.004-2.134-1.379l22.525-34.851
						C355.69-76.468,357.825-75.091,356.936-73.716z"/>
					<path style="fill:#E8D9BC;" d="M368.428-91.497l-4.137,6.401c-0.887,1.373-3.023-0.004-2.134-1.379l4.137-6.401
						C367.182-94.249,369.317-92.872,368.428-91.497z"/>
					<path style="fill:#E8D9BC;" d="M398.768-138.439l-16.089,24.893c-0.887,1.373-3.022-0.004-2.134-1.379l16.089-24.893
						C397.522-141.191,399.657-139.814,398.768-138.439z"/>
				</g>
				<g>
					<path style="fill:#E8D9BC;" d="M391.52-3.418L350.076-5.5c-1.633-0.082-1.508-2.619,0.128-2.537l41.444,2.082
						C393.28-5.873,393.155-3.336,391.52-3.418z"/>
					<path style="fill:#E8D9BC;" d="M412.665-2.356l-7.612-0.382c-1.633-0.082-1.508-2.62,0.127-2.537l7.612,0.382
						C414.425-4.811,414.3-2.273,412.665-2.356z"/>
					<path style="fill:#E8D9BC;" d="M468.487,0.449l-29.603-1.487c-1.633-0.082-1.508-2.619,0.128-2.537l29.603,1.487
						C470.247-2.007,470.122,0.531,468.487,0.449z"/>
				</g>
				<g>
					<path style="fill:#E8D9BC;" d="M347.931,61.682L329.013,24.75c-0.745-1.455,1.514-2.616,2.261-1.158l18.919,36.932
						C350.938,61.979,348.678,63.139,347.931,61.682z"/>
					<path style="fill:#E8D9BC;" d="M357.584,80.525l-3.475-6.784c-0.745-1.455,1.515-2.616,2.261-1.158l3.475,6.784
						C360.591,80.822,358.33,81.982,357.584,80.525z"/>
					<path style="fill:#E8D9BC;" d="M383.067,130.271l-13.514-26.38c-0.745-1.455,1.515-2.616,2.261-1.158l13.514,26.38
						C386.073,130.567,383.813,131.728,383.067,130.271z"/>
				</g>
				<g>
					<path style="fill:#E8D9BC;" d="M269.759,56.483l22.525-34.851c0.887-1.373,3.022,0.004,2.134,1.379l-22.525,34.851
						C271.006,59.235,268.87,57.858,269.759,56.483z"/>
					<path style="fill:#E8D9BC;" d="M258.267,74.264l4.137-6.401c0.887-1.373,3.022,0.004,2.134,1.379l-4.137,6.401
						C259.513,77.016,257.378,75.639,258.267,74.264z"/>
					<path style="fill:#E8D9BC;" d="M227.927,121.205l16.089-24.893c0.887-1.373,3.023,0.004,2.134,1.379l-16.089,24.893
						C229.173,123.957,227.038,122.58,227.927,121.205z"/>
				</g>
				<g>
					<path style="fill:#E8D9BC;" d="M235.175-13.816l41.444,2.082c1.633,0.082,1.508,2.619-0.127,2.537l-41.444-2.082
						C233.415-11.36,233.54-13.898,235.175-13.816z"/>
					<path style="fill:#E8D9BC;" d="M214.031-14.878l7.612,0.382c1.633,0.082,1.508,2.62-0.128,2.537l-7.612-0.382
						C212.271-12.422,212.395-14.96,214.031-14.878z"/>
					<path style="fill:#E8D9BC;" d="M158.208-17.682l29.603,1.487c1.633,0.082,1.508,2.62-0.128,2.537l-29.603-1.487
						C156.448-15.227,156.573-17.764,158.208-17.682z"/>
				</g>
				<g>
					<path style="fill:#E8D9BC;" d="M278.764-78.915l18.919,36.932c0.745,1.455-1.515,2.616-2.261,1.158l-18.919-36.932
						C275.758-79.212,278.017-80.373,278.764-78.915z"/>
					<path style="fill:#E8D9BC;" d="M269.112-97.758l3.475,6.784c0.745,1.455-1.515,2.616-2.261,1.158L266.85-96.6
						C266.105-98.055,268.365-99.216,269.112-97.758z"/>
					<path style="fill:#E8D9BC;" d="M243.629-147.504l13.514,26.38c0.745,1.455-1.514,2.616-2.261,1.158l-13.514-26.38
						C240.622-147.801,242.882-148.962,243.629-147.504z"/>
				</g>
			</g>
			<g>
				<g>
					<path style="fill:#E8D9BC;" d="M393.928-24.628l-55.474,11.917c-1.598,0.343-2.134-2.14-0.534-2.484l55.474-11.917
						C394.992-27.455,395.529-24.972,393.928-24.628z"/>
					<path style="fill:#E8D9BC;" d="M434.498-33.343l-20.699,4.447c-1.598,0.343-2.135-2.14-0.534-2.484l20.699-4.447
						C435.563-36.17,436.099-33.687,434.498-33.343z"/>
				</g>
				<g>
					<path style="fill:#E8D9BC;" d="M367.114,54.371l-38.058-42.083c-1.096-1.212,0.786-2.918,1.884-1.704l38.058,42.083
						C370.095,53.88,368.212,55.585,367.114,54.371z"/>
					<path style="fill:#E8D9BC;" d="M394.947,85.148l-14.201-15.703c-1.096-1.213,0.786-2.919,1.884-1.704l14.201,15.703
						C397.928,84.657,396.045,86.363,394.947,85.148z"/>
				</g>
				<g>
					<path style="fill:#E8D9BC;" d="M285.292,70.649l17.417-54c0.502-1.556,2.921-0.779,2.418,0.78L287.71,71.429
						C287.208,72.985,284.789,72.207,285.292,70.649z"/>
					<path style="fill:#E8D9BC;" d="M272.554,110.142l6.499-20.149c0.502-1.556,2.921-0.779,2.418,0.78l-6.499,20.149
						C274.47,112.478,272.052,111.7,272.554,110.142z"/>
				</g>
				<g>
					<path style="fill:#E8D9BC;" d="M230.284,7.928l55.474-11.917c1.598-0.343,2.134,2.14,0.534,2.484l-55.474,11.917
						C229.219,10.755,228.683,8.272,230.284,7.928z"/>
					<path style="fill:#E8D9BC;" d="M189.713,16.644l20.699-4.447c1.598-0.343,2.134,2.14,0.533,2.484l-20.699,4.447
						C188.648,19.471,188.112,16.987,189.713,16.644z"/>
				</g>
				<g>
					<path style="fill:#E8D9BC;" d="M257.098-71.071l38.057,42.083c1.096,1.212-0.786,2.919-1.884,1.704l-38.058-42.083
						C254.117-70.579,255.999-72.285,257.098-71.071z"/>
					<path style="fill:#E8D9BC;" d="M229.265-101.848l14.2,15.703c1.097,1.213-0.786,2.919-1.884,1.704l-14.2-15.703
						C226.284-101.357,228.166-103.063,229.265-101.848z"/>
				</g>
				<g>
					<path style="fill:#E8D9BC;" d="M338.92-87.349l-17.417,54c-0.502,1.556-2.921,0.779-2.418-0.78l17.417-54.001
						C337.004-89.684,339.422-88.907,338.92-87.349z"/>
					<path style="fill:#E8D9BC;" d="M351.657-126.842l-6.499,20.149c-0.502,1.556-2.921,0.779-2.418-0.78l6.499-20.149
						C349.741-129.177,352.16-128.4,351.657-126.842z"/>
				</g>
			</g>
			<g>
				<g>
					<path style="fill:#E8D9BC;" d="M300.094-76.363l10.672,49.678c0.343,1.598-2.14,2.135-2.484,0.534L297.61-75.829
						C297.266-77.428,299.75-77.964,300.094-76.363z"/>
					<path style="fill:#E8D9BC;" d="M284.619-148.397l11.028,51.334c0.343,1.598-2.14,2.134-2.484,0.534l-11.028-51.334
						C281.792-149.461,284.275-149.997,284.619-148.397z"/>
				</g>
				<g>
					<path style="fill:#E8D9BC;" d="M365.391-53.968l-37.687,34.081c-1.212,1.097-2.919-0.786-1.704-1.884l37.687-34.081
						C364.899-56.949,366.605-55.067,365.391-53.968z"/>
					<path style="fill:#E8D9BC;" d="M420.036-103.386l-38.943,35.217c-1.212,1.096-2.919-0.786-1.704-1.884l38.943-35.217
						C419.545-106.367,421.251-104.485,420.036-103.386z"/>
				</g>
				<g>
					<path style="fill:#E8D9BC;" d="M378.645,13.778L330.286-1.819c-1.556-0.502-0.779-2.921,0.78-2.418l48.359,15.597
						C380.981,11.862,380.203,14.281,378.645,13.778z"/>
					<path style="fill:#E8D9BC;" d="M448.765,36.394l-49.971-16.117c-1.556-0.502-0.779-2.92,0.78-2.418l49.971,16.117
						C451.101,34.478,450.323,36.896,448.765,36.394z"/>
				</g>
				<g>
					<path style="fill:#E8D9BC;" d="M326.602,59.13L315.93,9.452c-0.343-1.598,2.14-2.135,2.484-0.534l10.672,49.678
						C329.429,60.194,326.946,60.731,326.602,59.13z"/>
					<path style="fill:#E8D9BC;" d="M342.076,131.163l-11.028-51.334c-0.343-1.598,2.14-2.134,2.484-0.534l11.028,51.334
						C344.904,132.228,342.42,132.764,342.076,131.163z"/>
				</g>
				<g>
					<path style="fill:#E8D9BC;" d="M261.305,36.735l37.687-34.081c1.212-1.097,2.919,0.786,1.704,1.884l-37.687,34.081
						C261.796,39.716,260.09,37.833,261.305,36.735z"/>
					<path style="fill:#E8D9BC;" d="M206.659,86.153l38.943-35.217c1.213-1.097,2.918,0.786,1.704,1.884l-38.943,35.217
						C207.151,89.134,205.445,87.251,206.659,86.153z"/>
				</g>
				<g>
					<path style="fill:#E8D9BC;" d="M248.05-31.011l48.359,15.597c1.556,0.502,0.779,2.921-0.78,2.418l-48.358-15.597
						C245.715-29.095,246.492-31.514,248.05-31.011z"/>
					<path style="fill:#E8D9BC;" d="M177.93-53.627l49.971,16.117c1.556,0.502,0.778,2.921-0.78,2.418L177.15-51.209
						C175.595-51.711,176.372-54.13,177.93-53.627z"/>
				</g>
			</g>
			<g>
				<g>
					<path style="fill:#E8D9BC;" d="M267.451-39.793L283.81-29.22c1.373,0.887-0.004,3.022-1.379,2.134L266.072-37.66
						C264.699-38.547,266.076-40.682,267.451-39.793z"/>
					<path style="fill:#E8D9BC;" d="M200.595-83.005l46.941,30.34c1.373,0.887-0.004,3.023-1.379,2.134l-46.941-30.34
						C197.843-81.758,199.22-83.894,200.595-83.005z"/>
				</g>
				<g>
					<path style="fill:#E8D9BC;" d="M317.399-63.952l-0.977,19.453c-0.082,1.633-2.62,1.508-2.537-0.128l0.977-19.453
						C314.944-65.713,317.482-65.588,317.399-63.952z"/>
					<path style="fill:#E8D9BC;" d="M321.393-143.457l-2.804,55.823c-0.082,1.632-2.62,1.508-2.537-0.128l2.804-55.822
						C318.938-145.217,321.475-145.092,321.393-143.457z"/>
				</g>
				<g>
					<path style="fill:#E8D9BC;" d="M363.296-32.776l-17.336,8.88c-1.455,0.745-2.616-1.515-1.158-2.261l17.336-8.88
						C363.592-35.782,364.753-33.522,363.296-32.776z"/>
					<path style="fill:#E8D9BC;" d="M434.146-69.069L384.4-43.586c-1.455,0.745-2.616-1.515-1.158-2.261l49.746-25.483
						C434.442-72.076,435.603-69.816,434.146-69.069z"/>
				</g>
				<g>
					<path style="fill:#E8D9BC;" d="M359.244,22.56l-16.359-10.573c-1.373-0.887,0.004-3.023,1.379-2.134l16.358,10.573
						C361.996,21.314,360.619,23.449,359.244,22.56z"/>
					<path style="fill:#E8D9BC;" d="M426.1,65.771l-46.941-30.34c-1.373-0.887,0.004-3.023,1.379-2.134l46.941,30.34
						C428.852,64.525,427.475,66.66,426.1,65.771z"/>
				</g>
				<g>
					<path style="fill:#E8D9BC;" d="M309.296,46.719l0.977-19.453c0.082-1.633,2.619-1.508,2.537,0.128l-0.977,19.453
						C311.751,48.479,309.214,48.354,309.296,46.719z"/>
					<path style="fill:#E8D9BC;" d="M305.302,126.224l2.804-55.823c0.082-1.632,2.62-1.508,2.537,0.128l-2.804,55.823
						C307.758,127.984,305.22,127.859,305.302,126.224z"/>
				</g>
				<g>
					<path style="fill:#E8D9BC;" d="M263.4,15.542l17.336-8.88c1.455-0.745,2.616,1.515,1.158,2.261l-17.336,8.88
						C263.103,18.549,261.942,16.289,263.4,15.542z"/>
					<path style="fill:#E8D9BC;" d="M192.55,51.836l49.746-25.483c1.455-0.745,2.616,1.515,1.158,2.261l-49.746,25.483
						C192.253,54.842,191.092,52.582,192.55,51.836z"/>
				</g>
			</g>
			<g>
				<g>
					<path style="fill:#E8D9BC;" d="M356.936-73.716l-22.525,34.851c-0.887,1.373-3.023-0.004-2.134-1.379l22.525-34.851
						C355.69-76.468,357.825-75.091,356.936-73.716z"/>
					<path style="fill:#E8D9BC;" d="M368.428-91.497l-4.137,6.401c-0.887,1.373-3.023-0.004-2.134-1.379l4.137-6.401
						C367.182-94.249,369.317-92.872,368.428-91.497z"/>
					<path style="fill:#E8D9BC;" d="M398.768-138.439l-16.089,24.893c-0.887,1.373-3.022-0.004-2.134-1.379l16.089-24.893
						C397.522-141.191,399.657-139.814,398.768-138.439z"/>
				</g>
				<g>
					<path style="fill:#E8D9BC;" d="M391.52-3.418L350.076-5.5c-1.633-0.082-1.508-2.619,0.128-2.537l41.444,2.082
						C393.28-5.873,393.155-3.336,391.52-3.418z"/>
					<path style="fill:#E8D9BC;" d="M412.665-2.356l-7.612-0.382c-1.633-0.082-1.508-2.62,0.127-2.537l7.612,0.382
						C414.425-4.811,414.3-2.273,412.665-2.356z"/>
					<path style="fill:#E8D9BC;" d="M468.487,0.449l-29.603-1.487c-1.633-0.082-1.508-2.619,0.128-2.537l29.603,1.487
						C470.247-2.007,470.122,0.531,468.487,0.449z"/>
				</g>
				<g>
					<path style="fill:#E8D9BC;" d="M347.931,61.682L329.013,24.75c-0.745-1.455,1.514-2.616,2.261-1.158l18.919,36.932
						C350.938,61.979,348.678,63.139,347.931,61.682z"/>
					<path style="fill:#E8D9BC;" d="M357.584,80.525l-3.475-6.784c-0.745-1.455,1.515-2.616,2.261-1.158l3.475,6.784
						C360.591,80.822,358.33,81.982,357.584,80.525z"/>
					<path style="fill:#E8D9BC;" d="M383.067,130.271l-13.514-26.38c-0.745-1.455,1.515-2.616,2.261-1.158l13.514,26.38
						C386.073,130.567,383.813,131.728,383.067,130.271z"/>
				</g>
				<g>
					<path style="fill:#E8D9BC;" d="M269.759,56.483l22.525-34.851c0.887-1.373,3.022,0.004,2.134,1.379l-22.525,34.851
						C271.006,59.235,268.87,57.858,269.759,56.483z"/>
					<path style="fill:#E8D9BC;" d="M258.267,74.264l4.137-6.401c0.887-1.373,3.022,0.004,2.134,1.379l-4.137,6.401
						C259.513,77.016,257.378,75.639,258.267,74.264z"/>
					<path style="fill:#E8D9BC;" d="M227.927,121.205l16.089-24.893c0.887-1.373,3.023,0.004,2.134,1.379l-16.089,24.893
						C229.173,123.957,227.038,122.58,227.927,121.205z"/>
				</g>
				<g>
					<path style="fill:#E8D9BC;" d="M235.175-13.816l41.444,2.082c1.633,0.082,1.508,2.619-0.127,2.537l-41.444-2.082
						C233.415-11.36,233.54-13.898,235.175-13.816z"/>
					<path style="fill:#E8D9BC;" d="M214.031-14.878l7.612,0.382c1.633,0.082,1.508,2.62-0.128,2.537l-7.612-0.382
						C212.271-12.422,212.395-14.96,214.031-14.878z"/>
					<path style="fill:#E8D9BC;" d="M158.208-17.682l29.603,1.487c1.633,0.082,1.508,2.62-0.128,2.537l-29.603-1.487
						C156.448-15.227,156.573-17.764,158.208-17.682z"/>
				</g>
				<g>
					<path style="fill:#E8D9BC;" d="M278.764-78.915l18.919,36.932c0.745,1.455-1.515,2.616-2.261,1.158l-18.919-36.932
						C275.758-79.212,278.017-80.373,278.764-78.915z"/>
					<path style="fill:#E8D9BC;" d="M269.112-97.758l3.475,6.784c0.745,1.455-1.515,2.616-2.261,1.158L266.85-96.6
						C266.105-98.055,268.365-99.216,269.112-97.758z"/>
					<path style="fill:#E8D9BC;" d="M243.629-147.504l13.514,26.38c0.745,1.455-1.514,2.616-2.261,1.158l-13.514-26.38
						C240.622-147.801,242.882-148.962,243.629-147.504z"/>
				</g>
			</g>
			<g>
				<g>
					<path style="fill:#E8D9BC;" d="M393.928-24.628l-55.474,11.917c-1.598,0.343-2.134-2.14-0.534-2.484l55.474-11.917
						C394.992-27.455,395.529-24.972,393.928-24.628z"/>
					<path style="fill:#E8D9BC;" d="M434.498-33.343l-20.699,4.447c-1.598,0.343-2.135-2.14-0.534-2.484l20.699-4.447
						C435.563-36.17,436.099-33.687,434.498-33.343z"/>
				</g>
				<g>
					<path style="fill:#E8D9BC;" d="M367.114,54.371l-38.058-42.083c-1.096-1.212,0.786-2.918,1.884-1.704l38.058,42.083
						C370.095,53.88,368.212,55.585,367.114,54.371z"/>
					<path style="fill:#E8D9BC;" d="M394.947,85.148l-14.201-15.703c-1.096-1.213,0.786-2.919,1.884-1.704l14.201,15.703
						C397.928,84.657,396.045,86.363,394.947,85.148z"/>
				</g>
				<g>
					<path style="fill:#E8D9BC;" d="M285.292,70.649l17.417-54c0.502-1.556,2.921-0.779,2.418,0.78L287.71,71.429
						C287.208,72.985,284.789,72.207,285.292,70.649z"/>
					<path style="fill:#E8D9BC;" d="M272.554,110.142l6.499-20.149c0.502-1.556,2.921-0.779,2.418,0.78l-6.499,20.149
						C274.47,112.478,272.052,111.7,272.554,110.142z"/>
				</g>
				<g>
					<path style="fill:#E8D9BC;" d="M230.284,7.928l55.474-11.917c1.598-0.343,2.134,2.14,0.534,2.484l-55.474,11.917
						C229.219,10.755,228.683,8.272,230.284,7.928z"/>
					<path style="fill:#E8D9BC;" d="M189.713,16.644l20.699-4.447c1.598-0.343,2.134,2.14,0.533,2.484l-20.699,4.447
						C188.648,19.471,188.112,16.987,189.713,16.644z"/>
				</g>
				<g>
					<path style="fill:#E8D9BC;" d="M257.098-71.071l38.057,42.083c1.096,1.212-0.786,2.919-1.884,1.704l-38.058-42.083
						C254.117-70.579,255.999-72.285,257.098-71.071z"/>
					<path style="fill:#E8D9BC;" d="M229.265-101.848l14.2,15.703c1.097,1.213-0.786,2.919-1.884,1.704l-14.2-15.703
						C226.284-101.357,228.166-103.063,229.265-101.848z"/>
				</g>
				<g>
					<path style="fill:#E8D9BC;" d="M338.92-87.349l-17.417,54c-0.502,1.556-2.921,0.779-2.418-0.78l17.417-54.001
						C337.004-89.684,339.422-88.907,338.92-87.349z"/>
					<path style="fill:#E8D9BC;" d="M351.657-126.842l-6.499,20.149c-0.502,1.556-2.921,0.779-2.418-0.78l6.499-20.149
						C349.741-129.177,352.16-128.4,351.657-126.842z"/>
				</g>
			</g>
		</g>
		<g style="opacity:0.4;clip-path:url(#SVGID_00000137092620177760536480000017458538075351480737_);">
			<g>
				<g>
					<g>
						<path style="fill:#E8D9BC;" d="M-154.165-66.331l94.474,37.352c1.93,0.763,0.753,3.748-1.18,2.984l-94.474-37.352
							C-157.274-64.11-156.098-67.095-154.165-66.331z"/>
						<path style="fill:#E8D9BC;" d="M-188.655-79.967l14.996,5.929c1.93,0.763,0.753,3.748-1.18,2.984l-14.996-5.929
							C-191.765-77.747-190.588-80.732-188.655-79.967z"/>
					</g>
					<g>
						<path style="fill:#E8D9BC;" d="M-70.538-150.625l40.527,92.871c0.828,1.897-2.126,3.171-2.955,1.271l-40.527-92.871
							C-74.321-151.251-71.368-152.525-70.538-150.625z"/>
						<path style="fill:#E8D9BC;" d="M-85.334-184.53l6.433,14.741c0.828,1.897-2.126,3.172-2.955,1.271l-6.433-14.741
							C-89.117-185.156-86.163-186.43-85.334-184.53z"/>
					</g>
					<g>
						<path style="fill:#E8D9BC;" d="M48.633-151.108l-37.16,93.987c-0.759,1.92-3.76,0.737-2.999-1.186l37.16-93.987
							C46.393-154.214,49.394-153.031,48.633-151.108z"/>
						<path style="fill:#E8D9BC;" d="M62.2-185.421l-5.898,14.919c-0.759,1.92-3.76,0.737-2.999-1.186l5.898-14.919
							C59.959-188.527,62.96-187.344,62.2-185.421z"/>
					</g>
					<g>
						<path style="fill:#E8D9BC;" d="M133.541-67.498L40.462-27.451c-1.901,0.818-3.191-2.129-1.287-2.948l93.079-40.047
							C134.156-71.265,135.445-68.318,133.541-67.498z"/>
						<path style="fill:#E8D9BC;" d="M167.522-82.118l-14.775,6.357c-1.901,0.818-3.191-2.129-1.287-2.948l14.774-6.357
							C168.137-85.885,169.427-82.938,167.522-82.118z"/>
					</g>
					<g>
						<path style="fill:#E8D9BC;" d="M134.447,51.228L39.973,13.876c-1.93-0.763-0.753-3.748,1.18-2.984l94.474,37.352
							C137.557,49.007,136.38,51.992,134.447,51.228z"/>
						<path style="fill:#E8D9BC;" d="M168.937,64.864l-14.996-5.929c-1.93-0.763-0.753-3.748,1.18-2.984l14.996,5.929
							C172.047,62.644,170.87,65.629,168.937,64.864z"/>
					</g>
					<g>
						<path style="fill:#E8D9BC;" d="M50.82,135.522L10.293,42.651c-0.828-1.897,2.126-3.172,2.955-1.271l40.527,92.871
							C54.603,136.148,51.65,137.422,50.82,135.522z"/>
						<path style="fill:#E8D9BC;" d="M65.616,169.427l-6.433-14.742c-0.828-1.897,2.126-3.171,2.955-1.271l6.433,14.742
							C69.399,170.053,66.446,171.327,65.616,169.427z"/>
					</g>
					<g>
						<path style="fill:#E8D9BC;" d="M-68.351,136.005l37.16-93.987c0.759-1.92,3.76-0.737,2.999,1.186l-37.16,93.987
							C-66.111,139.111-69.111,137.928-68.351,136.005z"/>
						<path style="fill:#E8D9BC;" d="M-81.917,170.318l5.898-14.919c0.759-1.92,3.759-0.737,2.999,1.186l-5.898,14.919
							C-79.677,173.424-82.678,172.241-81.917,170.318z"/>
					</g>
					<g>
						<path style="fill:#E8D9BC;" d="M-153.259,52.395l93.079-40.047c1.901-0.818,3.191,2.129,1.286,2.948l-93.079,40.047
							C-153.874,56.161-155.163,53.214-153.259,52.395z"/>
						<path style="fill:#E8D9BC;" d="M-187.24,67.016l14.774-6.357c1.901-0.818,3.191,2.129,1.287,2.948l-14.774,6.357
							C-187.855,70.782-189.144,67.835-187.24,67.016z"/>
					</g>
				</g>
				<g>
					<g>
						<path style="fill:#E8D9BC;" d="M-11.853-207.62l2.372,131.626c0.037,2.066-3.185,2.115-3.222,0.046l-2.372-131.626
							C-15.112-209.639-11.89-209.689-11.853-207.62z"/>
						<path style="fill:#E8D9BC;" d="M-12.952-268.617l0.694,38.525c0.037,2.066-3.185,2.115-3.222,0.046l-0.694-38.524
							C-16.211-270.637-12.989-270.686-12.952-268.617z"/>
					</g>
					<g>
						<path style="fill:#E8D9BC;" d="M130.731-149.926L38.989-55.511c-1.44,1.482-3.761-0.753-2.319-2.237l91.742-94.415
							C129.851-153.645,132.173-151.41,130.731-149.926z"/>
						<path style="fill:#E8D9BC;" d="M173.245-193.68l-26.851,27.634c-1.44,1.482-3.761-0.753-2.319-2.237l26.851-27.634
							C172.366-197.399,174.688-195.164,173.245-193.68z"/>
					</g>
					<g>
						<path style="fill:#E8D9BC;" d="M190.959-8.831L58.844-6.933c-2.073,0.03-2.135-3.181-0.058-3.21l132.115-1.898
							C192.974-12.072,193.036-8.861,190.959-8.831z"/>
						<path style="fill:#E8D9BC;" d="M252.182-9.711l-38.668,0.556c-2.073,0.03-2.135-3.181-0.058-3.21l38.668-0.556
							C254.198-12.951,254.259-9.741,252.182-9.711z"/>
					</g>
					<g>
						<path style="fill:#E8D9BC;" d="M133.55,133.013L38.454,41.282c-1.492-1.44,0.743-3.745,2.238-2.303l95.096,91.731
							C137.281,132.15,135.045,134.455,133.55,133.013z"/>
						<path style="fill:#E8D9BC;" d="M177.62,175.523l-27.833-26.848c-1.492-1.44,0.743-3.745,2.238-2.303l27.833,26.848
							C181.35,174.659,179.114,176.965,177.62,175.523z"/>
					</g>
					<g>
						<path style="fill:#E8D9BC;" d="M-7.865,192.517l-2.372-131.625c-0.037-2.066,3.185-2.115,3.222-0.046l2.372,131.625
							C-4.606,194.536-7.828,194.586-7.865,192.517z"/>
						<path style="fill:#E8D9BC;" d="M-6.766,253.514l-0.694-38.525c-0.037-2.066,3.185-2.115,3.222-0.046l0.694,38.525
							C-3.506,255.533-6.729,255.583-6.766,253.514z"/>
					</g>
					<g>
						<path style="fill:#E8D9BC;" d="M-150.449,134.823l91.742-94.416c1.44-1.482,3.762,0.753,2.319,2.237l-91.742,94.416
							C-149.569,138.542-151.891,136.307-150.449,134.823z"/>
						<path style="fill:#E8D9BC;" d="M-192.963,178.577l26.851-27.634c1.44-1.482,3.761,0.753,2.319,2.237l-26.851,27.634
							C-192.083,182.296-194.405,180.061-192.963,178.577z"/>
					</g>
					<g>
						<path style="fill:#E8D9BC;" d="M-210.676-6.272L-78.562-8.17c2.073-0.03,2.135,3.181,0.058,3.21l-132.115,1.898
							C-212.692-3.032-212.753-6.242-210.676-6.272z"/>
						<path style="fill:#E8D9BC;" d="M-271.9-5.392l38.668-0.556c2.073-0.03,2.135,3.18,0.058,3.211l-38.668,0.555
							C-273.916-2.152-273.977-5.362-271.9-5.392z"/>
					</g>
					<g>
						<path style="fill:#E8D9BC;" d="M-153.268-148.116l95.097,91.731c1.493,1.439-0.743,3.745-2.238,2.303l-95.096-91.731
							C-156.998-147.253-154.763-149.558-153.268-148.116z"/>
						<path style="fill:#E8D9BC;" d="M-197.337-190.626l27.833,26.848c1.492,1.439-0.743,3.745-2.237,2.303l-27.833-26.848
							C-201.067-189.762-198.832-192.068-197.337-190.626z"/>
					</g>
				</g>
			</g>
			<g>
				<g>
					<g>
						<path style="fill:#E8D9BC;" d="M-162.603,22.041l99.376-20.32c2.03-0.415,2.692,2.729,0.659,3.145l-99.376,20.32
							C-163.974,25.601-164.637,22.457-162.603,22.041z"/>
						<path style="fill:#E8D9BC;" d="M-198.883,29.46l15.774-3.225c2.03-0.415,2.692,2.729,0.659,3.145l-15.774,3.225
							C-200.255,33.02-200.917,29.875-198.883,29.46z"/>
					</g>
					<g>
						<path style="fill:#E8D9BC;" d="M-139.251-94.301l84.941,55.688c1.735,1.138-0.027,3.82-1.765,2.68l-84.941-55.688
							C-142.751-92.759-140.989-95.441-139.251-94.301z"/>
						<path style="fill:#E8D9BC;" d="M-170.261-114.632l13.483,8.839c1.735,1.137-0.027,3.82-1.765,2.68l-13.483-8.839
							C-173.761-113.089-171.999-115.771-170.261-114.632z"/>
					</g>
					<g>
						<path style="fill:#E8D9BC;" d="M-40.103-159.827l20.748,99.075c0.424,2.024-2.73,2.672-3.155,0.645l-20.748-99.075
							C-43.681-161.206-40.527-161.854-40.103-159.827z"/>
						<path style="fill:#E8D9BC;" d="M-47.678-195.997l3.294,15.726c0.424,2.024-2.73,2.672-3.155,0.645l-3.293-15.726
							C-51.256-197.376-48.102-198.025-47.678-195.997z"/>
					</g>
					<g>
						<path style="fill:#E8D9BC;" d="M76.762-136.152L21.163-51.727c-1.136,1.725-3.834-0.041-2.696-1.768l55.599-84.425
							C75.201-139.644,77.9-137.879,76.762-136.152z"/>
						<path style="fill:#E8D9BC;" d="M97.06-166.974l-8.825,13.401c-1.136,1.725-3.834-0.041-2.697-1.768l8.825-13.401
							C95.499-170.466,98.198-168.701,97.06-166.974z"/>
					</g>
					<g>
						<path style="fill:#E8D9BC;" d="M142.885-37.144l-99.376,20.32c-2.03,0.415-2.692-2.73-0.659-3.145l99.376-20.32
							C144.257-40.705,144.919-37.56,142.885-37.144z"/>
						<path style="fill:#E8D9BC;" d="M179.166-44.563l-15.774,3.226c-2.03,0.415-2.692-2.729-0.659-3.145l15.774-3.225
							C180.537-48.123,181.199-44.979,179.166-44.563z"/>
					</g>
					<g>
						<path style="fill:#E8D9BC;" d="M119.533,79.198L34.593,23.51c-1.735-1.137,0.027-3.819,1.765-2.68l84.941,55.688
							C123.033,77.656,121.271,80.338,119.533,79.198z"/>
						<path style="fill:#E8D9BC;" d="M150.543,99.529l-13.483-8.839c-1.735-1.138,0.027-3.82,1.765-2.68l13.482,8.84
							C154.044,97.986,152.281,100.668,150.543,99.529z"/>
					</g>
					<g>
						<path style="fill:#E8D9BC;" d="M20.385,144.724L-0.363,45.649c-0.424-2.024,2.73-2.672,3.155-0.645l20.748,99.075
							C23.964,146.103,20.81,146.751,20.385,144.724z"/>
						<path style="fill:#E8D9BC;" d="M27.96,180.894l-3.293-15.726c-0.424-2.024,2.73-2.672,3.155-0.645l3.294,15.726
							C31.538,182.273,28.384,182.921,27.96,180.894z"/>
					</g>
					<g>
						<path style="fill:#E8D9BC;" d="M-96.48,121.049l55.599-84.425c1.136-1.725,3.834,0.041,2.696,1.768l-55.599,84.425
							C-94.919,124.541-97.617,122.776-96.48,121.049z"/>
						<path style="fill:#E8D9BC;" d="M-116.778,151.87l8.825-13.401c1.136-1.725,3.834,0.04,2.697,1.768l-8.825,13.401
							C-115.217,155.363-117.915,153.598-116.778,151.87z"/>
					</g>
				</g>
				<g>
					<g>
						<path style="fill:#E8D9BC;" d="M-121.675-174.137l74.448,109.017c1.168,1.711-1.492,3.513-2.663,1.8l-74.449-109.017
							C-125.506-174.048-122.845-175.85-121.675-174.137z"/>
						<path style="fill:#E8D9BC;" d="M-156.175-224.657l21.79,31.908c1.168,1.711-1.492,3.514-2.663,1.8l-21.79-31.908
							C-160.006-224.568-157.346-226.37-156.175-224.657z"/>
					</g>
					<g>
						<path style="fill:#E8D9BC;" d="M29.035-203.698L4.485-74.438c-0.385,2.029-3.553,1.424-3.167-0.608l24.549-129.26
							C26.253-206.334,29.421-205.73,29.035-203.698z"/>
						<path style="fill:#E8D9BC;" d="M40.411-263.599l-7.185,37.832c-0.385,2.029-3.553,1.424-3.167-0.608l7.185-37.832
							C37.63-266.235,40.797-265.631,40.411-263.599z"/>
					</g>
					<g>
						<path style="fill:#E8D9BC;" d="M156.961-118.359L47.794-44.576c-1.713,1.158-3.532-1.499-1.816-2.659l109.167-73.784
							C156.859-122.176,158.677-119.519,156.961-118.359z"/>
						<path style="fill:#E8D9BC;" d="M207.551-152.552l-31.951,21.595c-1.713,1.158-3.532-1.499-1.816-2.659l31.951-21.595
							C207.448-156.369,209.266-153.712,207.551-152.552z"/>
					</g>
					<g>
						<path style="fill:#E8D9BC;" d="M187.166,31.889L57.331,6.975c-2.037-0.391-1.442-3.544,0.599-3.153l129.836,24.914
							C189.803,29.127,189.207,32.28,187.166,31.889z"/>
						<path style="fill:#E8D9BC;" d="M247.334,43.434l-38.001-7.292c-2.037-0.391-1.442-3.544,0.599-3.153l38.001,7.292
							C249.971,40.672,249.375,43.826,247.334,43.434z"/>
					</g>
					<g>
						<path style="fill:#E8D9BC;" d="M101.957,159.033L27.508,50.016c-1.168-1.711,1.492-3.514,2.663-1.8l74.449,109.017
							C105.788,158.945,103.127,160.747,101.957,159.033z"/>
						<path style="fill:#E8D9BC;" d="M136.458,209.554l-21.79-31.908c-1.168-1.711,1.492-3.513,2.663-1.799l21.79,31.908
							C140.288,209.465,137.628,211.267,136.458,209.554z"/>
					</g>
					<g>
						<path style="fill:#E8D9BC;" d="M-48.753,188.595l24.55-129.26c0.385-2.029,3.553-1.424,3.167,0.608l-24.549,129.26
							C-45.971,191.231-49.139,190.627-48.753,188.595z"/>
						<path style="fill:#E8D9BC;" d="M-60.129,248.496l7.185-37.832c0.385-2.029,3.553-1.424,3.167,0.608l-7.185,37.832
							C-57.348,251.132-60.515,250.528-60.129,248.496z"/>
					</g>
					<g>
						<path style="fill:#E8D9BC;" d="M-176.679,103.257l109.167-73.784c1.713-1.158,3.532,1.499,1.816,2.659l-109.166,73.784
							C-176.576,107.073-178.395,104.416-176.679,103.257z"/>
						<path style="fill:#E8D9BC;" d="M-227.268,137.449l31.951-21.595c1.713-1.158,3.532,1.499,1.816,2.659l-31.951,21.595
							C-227.166,141.266-228.984,138.609-227.268,137.449z"/>
					</g>
					<g>
						<path style="fill:#E8D9BC;" d="M-206.884-46.992l129.835,24.914c2.038,0.391,1.442,3.544-0.599,3.153l-129.835-24.914
							C-209.52-44.23-208.925-47.384-206.884-46.992z"/>
						<path style="fill:#E8D9BC;" d="M-267.052-58.537l38.001,7.292c2.038,0.391,1.442,3.544-0.599,3.153l-38.001-7.292
							C-269.688-55.776-269.093-58.929-267.052-58.537z"/>
					</g>
				</g>
			</g>
			<g>
				<g>
					<g>
						<path style="fill:#E8D9BC;" d="M-70.929-68.691l31.312,30.204c1.492,1.44-0.743,3.745-2.237,2.303l-31.312-30.204
							C-74.659-67.827-72.423-70.133-70.929-68.691z"/>
						<path style="fill:#E8D9BC;" d="M-183.421-177.202l92.777,89.494c1.492,1.44-0.743,3.745-2.238,2.303l-92.777-89.494
							C-187.151-176.338-184.916-178.644-183.421-177.202z"/>
					</g>
					<g>
						<path style="fill:#E8D9BC;" d="M-9.799-93.651l0.781,43.34c0.037,2.066-3.185,2.115-3.222,0.046l-0.781-43.34
							C-13.059-95.671-9.836-95.721-9.799-93.651z"/>
						<path style="fill:#E8D9BC;" d="M-12.605-249.355l2.314,128.415c0.037,2.066-3.185,2.115-3.222,0.046l-2.314-128.415
							C-15.864-251.374-12.642-251.424-12.605-249.355z"/>
					</g>
					<g>
						<path style="fill:#E8D9BC;" d="M51.296-68.176L21.088-37.088c-1.44,1.482-3.761-0.753-2.319-2.237l30.208-31.088
							C50.416-71.895,52.738-69.66,51.296-68.176z"/>
						<path style="fill:#E8D9BC;" d="M159.82-179.863L70.315-87.75c-1.44,1.482-3.762-0.753-2.319-2.237L157.5-182.1
							C158.94-183.582,161.262-181.347,159.82-179.863z"/>
					</g>
					<g>
						<path style="fill:#E8D9BC;" d="M76.567-7.188L33.065-6.563c-2.073,0.03-2.135-3.181-0.058-3.21l43.501-0.625
							C78.582-10.428,78.644-7.218,76.567-7.188z"/>
						<path style="fill:#E8D9BC;" d="M232.849-9.433L103.956-7.581c-2.073,0.03-2.135-3.181-0.058-3.21l128.892-1.852
							C234.864-12.674,234.926-9.463,232.849-9.433z"/>
					</g>
					<g>
						<path style="fill:#E8D9BC;" d="M51.211,53.587L19.899,23.383c-1.493-1.44,0.743-3.745,2.238-2.303l31.312,30.204
							C54.941,52.724,52.706,55.029,51.211,53.587z"/>
						<path style="fill:#E8D9BC;" d="M163.703,162.098L70.926,72.605c-1.492-1.439,0.743-3.745,2.237-2.303l92.777,89.494
							C167.433,161.235,165.198,163.54,163.703,162.098z"/>
					</g>
					<g>
						<path style="fill:#E8D9BC;" d="M-9.919,78.548l-0.781-43.34c-0.037-2.066,3.185-2.115,3.222-0.046l0.781,43.34
							C-6.659,80.568-9.882,80.617-9.919,78.548z"/>
						<path style="fill:#E8D9BC;" d="M-7.113,234.252l-2.314-128.415c-0.037-2.066,3.185-2.115,3.222-0.046l2.314,128.415
							C-3.853,236.271-7.076,236.321-7.113,234.252z"/>
					</g>
					<g>
						<path style="fill:#E8D9BC;" d="M-71.013,53.073l30.208-31.088c1.44-1.482,3.761,0.753,2.319,2.237L-68.694,55.31
							C-70.134,56.792-72.456,54.557-71.013,53.073z"/>
						<path style="fill:#E8D9BC;" d="M-179.537,164.76l89.504-92.113c1.44-1.482,3.762,0.753,2.319,2.237l-89.504,92.113
							C-178.658,168.479-180.98,166.244-179.537,164.76z"/>
					</g>
					<g>
						<path style="fill:#E8D9BC;" d="M-96.284-7.915l43.501-0.625c2.073-0.03,2.135,3.18,0.058,3.21l-43.501,0.625
							C-98.3-4.675-98.361-7.886-96.284-7.915z"/>
						<path style="fill:#E8D9BC;" d="M-252.566-5.67l128.892-1.852c2.073-0.03,2.135,3.181,0.058,3.21L-252.509-2.46
							C-254.582-2.43-254.643-5.64-252.566-5.67z"/>
					</g>
				</g>
				<g>
					<path style="fill:#E8D9BC;" d="M-176.384-75.116l133.463,52.767c1.93,0.763,0.753,3.748-1.18,2.984l-133.463-52.767
						C-179.494-72.895-178.317-75.88-176.384-75.116z"/>
					<path style="fill:#E8D9BC;" d="M-80.07-172.467l57.252,131.199c0.828,1.897-2.125,3.172-2.955,1.271l-57.252-131.199
						C-83.853-173.093-80.899-174.368-80.07-172.467z"/>
					<path style="fill:#E8D9BC;" d="M57.373-173.213L4.877-40.438c-0.759,1.92-3.759,0.737-2.999-1.186l52.495-132.776
						C55.133-176.319,58.133-175.136,57.373-173.213z"/>
					<path style="fill:#E8D9BC;" d="M155.432-76.917L23.94-20.342c-1.901,0.818-3.191-2.129-1.287-2.948l131.492-56.574
						C156.047-80.683,157.337-77.736,155.432-76.917z"/>
					<path style="fill:#E8D9BC;" d="M156.667,60.013L23.204,7.245c-1.93-0.763-0.753-3.748,1.18-2.984l133.463,52.767
						C159.776,57.792,158.6,60.777,156.667,60.013z"/>
					<path style="fill:#E8D9BC;" d="M60.352,157.364L3.1,26.166c-0.828-1.897,2.125-3.172,2.955-1.271l57.252,131.199
						C64.135,157.99,61.181,159.264,60.352,157.364z"/>
					<path style="fill:#E8D9BC;" d="M-77.091,158.11l52.496-132.776c0.759-1.92,3.76-0.737,2.999,1.186l-52.496,132.775
						C-74.851,161.216-77.851,160.033-77.091,158.11z"/>
					<path style="fill:#E8D9BC;" d="M-175.15,61.814L-43.658,5.239c1.901-0.818,3.191,2.129,1.287,2.948l-131.492,56.574
						C-175.765,65.58-177.055,62.633-175.15,61.814z"/>
				</g>
			</g>
		</g>
	</g>
</g>
</svg>
