<?xml version="1.0" encoding="utf-8"?>
<!-- Generator: Adobe Illustrator 27.5.0, SVG Export Plug-In . SVG Version: 6.00 Build 0)  -->
<svg version="1.1" id="Layer_2" xmlns="http://www.w3.org/2000/svg" xmlns:xlink="http://www.w3.org/1999/xlink" x="0px" y="0px"
	 viewBox="0 0 348.426 535.193" style="enable-background:new 0 0 348.426 535.193;" xml:space="preserve">
<g>
	<g>
		<g>
			<path style="fill:#FFBC27;" d="M176.959,66.53c-6.428-8.109-10.032-10.726-15.77-6.872c5.058,5.646,13.737,17.076,22.359,31.573
				C184.653,82.674,183.094,74.269,176.959,66.53z"/>
			<path style="fill:#D37F07;" d="M183.547,91.706c-0.165,0-0.322-0.086-0.408-0.232c-8.611-14.48-17.168-25.766-22.304-31.499
				c-0.091-0.102-0.135-0.239-0.117-0.376c0.017-0.136,0.092-0.259,0.206-0.335c6.075-4.079,9.972-1.147,16.407,6.972
				c5.743,7.244,7.93,15.44,6.688,25.057c-0.026,0.201-0.177,0.363-0.375,0.404C183.611,91.703,183.579,91.706,183.547,91.706z
				 M161.911,59.755c5.052,5.717,13.123,16.402,21.321,30.024c0.832-8.752-1.349-16.272-6.645-22.954l0,0
				C170.306,58.902,167.051,56.553,161.911,59.755z"/>
		</g>
		<path style="fill:#FFBC27;" d="M166.591,57.942c-1.682-0.178-3.415,0.38-5.403,1.716c5.058,5.646,13.737,17.076,22.359,31.573
			c0.431-3.338,0.457-6.653-0.036-9.914C180.731,83.201,166.513,68.451,166.591,57.942z"/>
		<path style="fill:#FFBC27;" d="M167.834,60.633c0,0,7.555,5.939,13.625,19.17c0,0-0.752-5.887-4.934-12.052
			C170.629,59.061,167.834,60.633,167.834,60.633z"/>
	</g>
	<g>
		<g>
			<g>
				<path style="fill:#C4C4C4;" d="M119.554,265.726c8.782-3.213,6.308-3.32,5.973-16.96C121.867,99.647,69.44,13.698,64.496,13.856
					c0,0,19.261,32.127,37.323,123.216c13.454,67.846,12.598,134.255,12.598,134.255h0
					C114.554,269.235,116.08,266.996,119.554,265.726z"/>
				<path style="fill:#777777;" d="M114.418,271.801c-0.007,0-0.012,0-0.019,0c-0.257-0.01-0.46-0.224-0.456-0.482
					c0.008-0.663,0.7-67.137-12.589-134.155c-9.325-47.024-18.968-77.995-25.416-95.696C68.961,22.315,64.136,14.18,64.089,14.101
					c-0.087-0.145-0.09-0.324-0.01-0.472c0.081-0.148,0.233-0.242,0.402-0.247c0.431-0.027,0.931,0.275,1.602,0.908
					c4.37,4.13,18.556,26.937,32.24,67.803c11.613,34.68,25.841,91.745,27.68,166.66c0.071,2.918,0.241,5.213,0.378,7.057
					c0.522,7.061,0.37,7.788-6.662,10.361l0,0c-2.922,1.069-4.68,2.959-4.825,5.185
					C114.876,271.608,114.667,271.801,114.418,271.801z M65.896,15.42c1.769,3.362,5.772,11.551,10.934,25.724
					c6.459,17.732,16.118,48.753,25.455,95.836c11.759,59.299,12.588,118.168,12.615,131.539c0.916-1.369,2.453-2.494,4.49-3.24l0,0
					c6.56-2.399,6.54-2.663,6.042-9.399c-0.137-1.855-0.308-4.163-0.38-7.103c-1.924-78.393-17.329-137.36-29.913-173.024
					C82.285,39.329,70.146,20.021,65.896,15.42z"/>
			</g>
			<path style="fill:#C4C4C4;" d="M119.554,265.726c8.782-3.213,6.308-3.32,5.973-16.96C121.867,99.647,69.44,13.698,64.496,13.856
				c0,0,22.141,29.517,43.813,119.815c20.388,84.949,6.109,137.655,6.109,137.655h0C114.554,269.235,116.08,266.996,119.554,265.726
				z"/>
		</g>
		<g>
			<g>
				<path style="fill:#C4C4C4;" d="M114.418,271.327L114.418,271.327c0,0-69.412-11.255-105.069-44.094
					c-0.055,1.54-0.114,3.07-0.162,4.631c-0.127,4.128,15.205,16.858,43.003,28.802c26.42,11.352,52.806,17.102,66.867,15.638
					C116.117,276.164,114.253,273.852,114.418,271.327z"/>
				<path style="fill:#777777;" d="M114.327,277.005c-15.345,0-39.47-6.083-62.324-15.903c-15.943-6.85-26.235-13.232-32.062-17.38
					c-7.105-5.058-11.302-9.496-11.229-11.872c0.037-1.18,0.079-2.344,0.122-3.508l0.041-1.125c0.006-0.186,0.121-0.351,0.292-0.422
					c0.17-0.071,0.367-0.035,0.505,0.089c35.142,32.365,104.13,43.861,104.823,43.975c0.242,0.039,0.414,0.255,0.398,0.499
					c-0.073,1.128,0.296,2.208,1.039,3.039c0.772,0.865,1.891,1.373,3.149,1.433c0.248,0.011,0.445,0.212,0.453,0.461
					c0.007,0.248-0.179,0.459-0.426,0.485C117.632,276.93,116.032,277.005,114.327,277.005z M9.786,228.274l-0.004,0.103
					c-0.042,1.161-0.084,2.323-0.121,3.502c-0.109,3.541,14.072,16.043,42.716,28.351c23.831,10.239,49.011,16.388,64.044,15.785
					c-0.448-0.265-0.852-0.596-1.2-0.986c-0.819-0.916-1.268-2.076-1.289-3.303C108.181,270.729,43.923,259.007,9.786,228.274z"/>
			</g>
			<path style="fill:#C4C4C4;" d="M114.418,271.327L114.418,271.327c0,0-19.12,4.977-61.945-11.95
				c-16.249-6.423-36.394-19.183-43.124-32.144c-0.055,1.54-0.114,3.07-0.162,4.631c-0.127,4.128,15.205,16.858,43.003,28.802
				c26.42,11.352,52.806,17.102,66.867,15.638C116.117,276.164,114.253,273.852,114.418,271.327z"/>
		</g>
		<g>
			<g>
				<g>
					<path style="fill:#EDEDED;" d="M101.819,137.072C83.756,45.983,64.496,13.856,64.496,13.856
						c-3.959,0-49.288,49.361-55.147,213.377c35.657,32.839,105.069,44.094,105.069,44.094S115.273,204.918,101.819,137.072z"/>
					<path style="fill:#777777;" d="M114.418,271.801c-0.026,0-0.051-0.002-0.076-0.007c-0.695-0.112-69.962-11.653-105.315-44.212
						c-0.102-0.095-0.158-0.228-0.153-0.366c1.695-47.452,7.984-115.178,28.317-168.348c12.047-31.501,24.576-45.488,27.305-45.488
						c0.167,0,0.322,0.088,0.407,0.231c0.049,0.081,4.92,8.293,11.927,27.532c6.459,17.732,16.118,48.753,25.455,95.836
						c13.31,67.118,12.616,133.688,12.608,134.353c-0.002,0.138-0.064,0.268-0.169,0.357
						C114.637,271.763,114.529,271.801,114.418,271.801z M9.831,227.032c33.525,30.725,97.522,42.58,104.116,43.732
						c0.038-6.576,0.049-69.842-12.594-133.6c-9.325-47.024-18.968-77.995-25.416-95.696c-6.266-17.203-10.796-25.516-11.689-27.09
						C58.953,16.153,15.543,68.164,9.831,227.032z"/>
				</g>
				<path style="fill:#EDEDED;" d="M101.819,137.072C83.756,45.983,64.496,13.856,64.496,13.856
					c-3.249,2.425-7.212,6.319-9.526,10.37c22.07-37.265,88.186,273.388-45.621,203.007
					c35.657,32.839,105.069,44.094,105.069,44.094S115.273,204.918,101.819,137.072z"/>
				<path style="fill:#EDEDED;" d="M16.103,184.364c0.651-26.962,14.99-139.548,40.176-139.528
					c19.394,0.015,31.099,122.604,11.356,156.19C47.288,235.642,15.068,227.233,16.103,184.364z"/>
			</g>
			<g>
				<path style="fill:#D6D6D6;" d="M59.246,61.932c0,2.965-1.525,5.368-3.407,5.368c-1.881,0-3.407-2.403-3.407-5.368
					c0-2.965,1.525-5.368,3.407-5.368C57.721,56.564,59.246,58.968,59.246,61.932z"/>
				<path style="fill:#D6D6D6;" d="M48.9,80.716c0,2.965-1.525,5.368-3.407,5.368c-1.881,0-3.407-2.403-3.407-5.368
					c0-2.965,1.525-5.368,3.407-5.368C47.375,75.348,48.9,77.751,48.9,80.716z"/>
				<path style="fill:#D6D6D6;" d="M42.697,103.717c0,2.965-1.525,5.368-3.407,5.368c-1.882,0-3.407-2.403-3.407-5.368
					s1.525-5.368,3.407-5.368C41.171,98.349,42.697,100.753,42.697,103.717z"/>
				<path style="fill:#D6D6D6;" d="M71.559,110.594c0,2.965-1.525,5.368-3.407,5.368c-1.881,0-3.407-2.403-3.407-5.368
					c0-2.965,1.525-5.368,3.407-5.368C70.033,105.226,71.559,107.629,71.559,110.594z"/>
				<path style="fill:#D6D6D6;" d="M37.535,123.06c0,2.965-1.525,5.368-3.407,5.368c-1.881,0-3.407-2.403-3.407-5.368
					c0-2.965,1.525-5.368,3.407-5.368C36.01,117.692,37.535,120.095,37.535,123.06z"/>
				<path style="fill:#D6D6D6;" d="M74.139,131.193c0,2.965-1.525,5.368-3.407,5.368c-1.881,0-3.407-2.403-3.407-5.368
					c0-2.965,1.525-5.368,3.407-5.368C72.614,125.825,74.139,128.229,74.139,131.193z"/>
				<path style="fill:#D6D6D6;" d="M68.978,84.782c0,2.965-1.525,5.368-3.407,5.368c-1.881,0-3.407-2.403-3.407-5.368
					s1.525-5.368,3.407-5.368C67.453,79.414,68.978,81.818,68.978,84.782z"/>
				<g>
					<g>
						<path style="fill:#AAAAAA;" d="M57.904,61.59c0,2.246-1.155,4.067-2.581,4.067c-1.425,0-2.581-1.821-2.581-4.067
							c0-2.246,1.156-4.067,2.581-4.067C56.749,57.523,57.904,59.344,57.904,61.59z"/>
						<path style="fill:#777777;" d="M55.323,66.132c-1.714,0-3.056-1.995-3.056-4.542c0-2.547,1.342-4.542,3.056-4.542
							s3.056,1.995,3.056,4.542C58.379,64.136,57.037,66.132,55.323,66.132z M55.323,57.998c-1.141,0-2.105,1.645-2.105,3.592
							c0,1.947,0.964,3.592,2.105,3.592c1.142,0,2.106-1.645,2.106-3.592C57.429,59.643,56.465,57.998,55.323,57.998z"/>
					</g>
					<g>
						<path style="fill:#AAAAAA;" d="M47.558,80.373c0,2.246-1.155,4.067-2.581,4.067c-1.425,0-2.581-1.821-2.581-4.067
							s1.155-4.067,2.581-4.067C46.403,76.306,47.558,78.127,47.558,80.373z"/>
						<path style="fill:#777777;" d="M44.977,84.914c-1.714,0-3.056-1.995-3.056-4.541s1.342-4.542,3.056-4.542
							s3.056,1.995,3.056,4.542S46.691,84.914,44.977,84.914z M44.977,76.782c-1.142,0-2.106,1.645-2.106,3.592
							c0,1.947,0.964,3.591,2.106,3.591c1.142,0,2.106-1.644,2.106-3.591C47.083,78.426,46.119,76.782,44.977,76.782z"/>
					</g>
					<g>
						<path style="fill:#AAAAAA;" d="M41.355,103.375c0,2.246-1.155,4.067-2.581,4.067c-1.425,0-2.581-1.821-2.581-4.067
							c0-2.246,1.155-4.067,2.581-4.067C40.199,99.308,41.355,101.129,41.355,103.375z"/>
						<path style="fill:#777777;" d="M38.774,107.916c-1.714,0-3.056-1.995-3.056-4.542c0-2.547,1.342-4.542,3.056-4.542
							s3.056,1.995,3.056,4.542C41.83,105.921,40.487,107.916,38.774,107.916z M38.774,99.783c-1.142,0-2.106,1.645-2.106,3.592
							c0,1.947,0.964,3.592,2.106,3.592c1.142,0,2.106-1.645,2.106-3.592C40.88,101.428,39.916,99.783,38.774,99.783z"/>
					</g>
					<g>
						<path style="fill:#AAAAAA;" d="M70.216,110.251c0,2.246-1.155,4.067-2.581,4.067c-1.425,0-2.581-1.821-2.581-4.067
							c0-2.246,1.156-4.067,2.581-4.067C69.061,106.185,70.216,108.005,70.216,110.251z"/>
						<path style="fill:#777777;" d="M67.636,114.793c-1.713,0-3.056-1.995-3.056-4.542c0-2.547,1.342-4.542,3.056-4.542
							c1.714,0,3.056,1.995,3.056,4.542C70.692,112.798,69.349,114.793,67.636,114.793z M67.636,106.66
							c-1.142,0-2.106,1.645-2.106,3.592c0,1.947,0.964,3.592,2.106,3.592c1.142,0,2.106-1.645,2.106-3.592
							C69.742,108.304,68.777,106.66,67.636,106.66z"/>
					</g>
					<g>
						<path style="fill:#AAAAAA;" d="M36.193,122.717c0,2.246-1.155,4.067-2.581,4.067s-2.581-1.821-2.581-4.067
							s1.156-4.067,2.581-4.067S36.193,120.471,36.193,122.717z"/>
						<path style="fill:#777777;" d="M33.612,127.259c-1.714,0-3.056-1.995-3.056-4.542s1.342-4.542,3.056-4.542
							c1.714,0,3.055,1.995,3.055,4.542S35.326,127.259,33.612,127.259z M33.612,119.126c-1.142,0-2.106,1.645-2.106,3.592
							s0.964,3.592,2.106,3.592c1.141,0,2.105-1.645,2.105-3.592S34.754,119.126,33.612,119.126z"/>
					</g>
					<g>
						<path style="fill:#AAAAAA;" d="M72.797,130.851c0,2.246-1.156,4.067-2.581,4.067c-1.425,0-2.581-1.821-2.581-4.067
							c0-2.246,1.156-4.067,2.581-4.067C71.642,126.784,72.797,128.605,72.797,130.851z"/>
						<path style="fill:#777777;" d="M70.217,135.393c-1.714,0-3.056-1.995-3.056-4.542c0-2.547,1.342-4.542,3.056-4.542
							s3.056,1.995,3.056,4.542C73.272,133.397,71.93,135.393,70.217,135.393z M70.217,127.259c-1.142,0-2.106,1.645-2.106,3.592
							c0,1.947,0.964,3.592,2.106,3.592c1.141,0,2.105-1.645,2.105-3.592C72.322,128.904,71.358,127.259,70.217,127.259z"/>
					</g>
					<g>
						<path style="fill:#AAAAAA;" d="M67.636,84.44c0,2.246-1.155,4.067-2.581,4.067s-2.581-1.821-2.581-4.067
							c0-2.246,1.155-4.067,2.581-4.067S67.636,82.194,67.636,84.44z"/>
						<path style="fill:#777777;" d="M65.055,88.981c-1.714,0-3.056-1.995-3.056-4.542c0-2.547,1.342-4.541,3.056-4.541
							c1.714,0,3.056,1.995,3.056,4.541C68.111,86.986,66.768,88.981,65.055,88.981z M65.055,80.848
							c-1.141,0-2.106,1.644-2.106,3.591c0,1.947,0.964,3.592,2.106,3.592c1.141,0,2.106-1.645,2.106-3.592
							C67.161,82.493,66.196,80.848,65.055,80.848z"/>
					</g>
				</g>
				<g>
					<path style="opacity:0.4;fill:#969696;" d="M57.904,61.59c0-0.566-0.074-1.105-0.207-1.594
						c-0.316-0.218-0.664-0.343-1.032-0.343c-1.425,0-2.581,1.821-2.581,4.067c0,0.566,0.074,1.105,0.207,1.595
						c0.316,0.218,0.664,0.343,1.032,0.343C56.749,65.656,57.904,63.836,57.904,61.59z"/>
					<path style="opacity:0.4;fill:#969696;" d="M47.558,80.373c0-0.566-0.074-1.105-0.207-1.594
						c-0.317-0.218-0.665-0.343-1.032-0.343c-1.425,0-2.581,1.821-2.581,4.067c0,0.566,0.074,1.105,0.207,1.595
						c0.316,0.218,0.664,0.343,1.032,0.343C46.403,84.44,47.558,82.619,47.558,80.373z"/>
					<path style="opacity:0.4;fill:#969696;" d="M41.355,103.375c0-0.566-0.074-1.105-0.207-1.594
						c-0.316-0.218-0.665-0.343-1.032-0.343c-1.425,0-2.581,1.821-2.581,4.067c0,0.566,0.074,1.105,0.207,1.594
						c0.316,0.218,0.664,0.343,1.032,0.343C40.199,107.441,41.355,105.621,41.355,103.375z"/>
					<path style="opacity:0.4;fill:#969696;" d="M70.217,110.251c0-0.566-0.074-1.105-0.207-1.594
						c-0.316-0.218-0.665-0.343-1.032-0.343c-1.425,0-2.581,1.821-2.581,4.067c0,0.566,0.074,1.105,0.207,1.594
						c0.316,0.218,0.664,0.343,1.032,0.343C69.061,114.318,70.217,112.497,70.217,110.251z"/>
					<path style="opacity:0.4;fill:#969696;" d="M36.193,122.717c0-0.566-0.074-1.105-0.207-1.594
						c-0.316-0.218-0.665-0.343-1.032-0.343c-1.425,0-2.581,1.821-2.581,4.067c0,0.566,0.074,1.105,0.207,1.594
						c0.316,0.218,0.665,0.343,1.032,0.343C35.038,126.784,36.193,124.963,36.193,122.717z"/>
					<path style="opacity:0.4;fill:#969696;" d="M72.797,130.851c0-0.566-0.074-1.105-0.207-1.594
						c-0.316-0.218-0.665-0.343-1.032-0.343c-1.425,0-2.581,1.821-2.581,4.067c0,0.566,0.074,1.105,0.207,1.594
						c0.316,0.218,0.664,0.343,1.032,0.343C71.642,134.917,72.797,133.097,72.797,130.851z"/>
					<path style="opacity:0.4;fill:#969696;" d="M67.636,84.44c0-0.566-0.074-1.105-0.207-1.594
						c-0.316-0.218-0.664-0.343-1.032-0.343c-1.425,0-2.581,1.821-2.581,4.067c0,0.566,0.074,1.104,0.207,1.594
						c0.316,0.218,0.664,0.343,1.032,0.343C66.48,88.506,67.636,86.686,67.636,84.44z"/>
				</g>
			</g>
		</g>
		<g>
			<g>
				<path style="fill:#4389DE;" d="M143.192,118.702c-23.294-71.478-74.7-104.846-78.696-104.846
					c4.944-0.158,57.371,85.791,61.031,234.909c0.335,13.64,2.809,13.747-5.973,16.96c-7.666,2.805-5.873,10.323-0.497,10.578
					c14.846,0,45.265-28.337,46.108-34.239C166.008,236.162,166.486,190.18,143.192,118.702z"/>
				<path style="fill:#19518E;" d="M119.057,276.78c-2.621-0.124-4.697-1.919-5.071-4.366c-0.361-2.361,0.869-5.475,5.404-7.134
					c6.56-2.399,6.54-2.663,6.042-9.399c-0.137-1.855-0.308-4.163-0.38-7.103c-1.924-78.393-17.329-137.36-29.913-173.024
					c-14.823-42.007-28.697-61.25-30.616-61.422c-0.283-0.012-0.498-0.2-0.502-0.468c-0.004-0.25,0.187-0.459,0.433-0.481
					c0,0,0.001,0,0.002,0c0.003,0.005,0.014-0.001,0.022-0.001l0,0c0.001,0,0.002,0,0.003,0c0.046-0.003,0.088,0,0.134,0.005
					c5.635,0.515,56.363,35.616,79.03,105.169c22.658,69.528,23.097,115.839,21.991,123.576
					C164.771,248.181,134.447,276.78,119.057,276.78z M67.191,15.492c5.328,6.351,18.445,28.715,31.131,66.601
					c11.613,34.68,25.841,91.745,27.68,166.66c0.071,2.918,0.241,5.213,0.378,7.056c0.522,7.062,0.37,7.789-6.662,10.362
					c-3.996,1.462-5.095,4.109-4.791,6.098c0.309,2.026,1.979,3.457,4.154,3.561c14.901-0.001,44.856-28.525,45.615-33.833
					c0.056-0.388,3.492-45.067-21.954-123.148c-12.224-37.51-32.023-63.691-46.479-79.049
					C83.353,26.087,72.218,18.265,67.191,15.492z"/>
			</g>
			<path style="opacity:0.6;fill:#4389DE;" d="M136.307,202.464c-5.336-65.902-29.124-121.953-41.009-144.941
				c-11.885-22.987-13.094-34.552,12.959-4.491C87.448,26.549,66.96,13.856,64.496,13.856c4.944-0.158,57.371,85.791,61.031,234.909
				c0.335,13.64,2.809,13.747-5.973,16.96c-7.666,2.805-5.873,10.323-0.497,10.578c14.846,0,45.265-28.337,46.108-34.239
				c0.438-3.066,0.776-16.95-2.264-39.598C163.481,230.934,140.115,249.497,136.307,202.464z"/>
			<path style="fill:#4389DE;" d="M100.321,49.664c20.635,19.852,52.875,76.242,57.508,154.978
				c0.644,10.942-6.638,13.83-8.331,3.519C147.805,197.85,145.182,113.44,100.321,49.664z"/>
		</g>
		<g>
			<g>
				<path style="fill:#4389DE;" d="M159.179,57.523c-10.263-10.174-23.212-9.03-45.919,2.147
					c4.938,6.831,9.813,14.443,14.388,22.862c5.881-3.229,14.161-7.016,22.265-8.134c2.388-0.329,32.392,29.394,37.981,70.682
					c4.646,34.321-8.969,53.688-24.596,60.44c1.535,12.247,2.056,21.711,2.138,28.025c15.184-6.226,40.887-22.108,43.799-58.883
					C213.03,126.752,170.004,68.254,159.179,57.523z"/>
				<path style="fill:#19518E;" d="M165.436,234.02c-0.092,0-0.183-0.027-0.262-0.079c-0.131-0.086-0.211-0.233-0.213-0.39
					c-0.073-5.571-0.502-14.946-2.134-27.972c-0.026-0.21,0.089-0.412,0.283-0.495c7.187-3.105,30.18-16.605,24.313-59.94
					c-5.521-40.787-35.087-70.058-37.474-70.273c-8.125,1.123-16.491,5.013-22.073,8.078c-0.111,0.061-0.242,0.073-0.362,0.039
					c-0.121-0.036-0.224-0.118-0.284-0.229c-4.285-7.886-9.115-15.561-14.355-22.811c-0.082-0.114-0.11-0.257-0.076-0.393
					c0.034-0.136,0.126-0.25,0.251-0.312c23.644-11.639,36.237-12.196,46.463-2.058l0,0c11.682,11.581,53.926,70.402,50.196,117.514
					c-2.934,37.056-28.885,53.05-44.093,59.285C165.558,234.008,165.497,234.02,165.436,234.02z M163.814,205.813
					c1.535,12.359,1.988,21.414,2.087,27.026c15.083-6.336,40.008-22.182,42.861-58.213c3.705-46.782-38.301-105.249-49.917-116.765
					c-9.805-9.718-21.995-9.192-44.87,1.988c5.046,7.02,9.706,14.43,13.863,22.039c5.647-3.065,13.915-6.842,22.01-7.959
					c0.29-0.044,0.749,0.043,1.963,0.965c8.053,6.117,31.677,34.1,36.554,70.124C194.235,188.38,171.499,202.381,163.814,205.813z"
					/>
			</g>
			<path style="opacity:0.6;fill:#4389DE;" d="M182.116,208.308c-1.858-17.42,18.473-24.369,11.792-66.264
				c-6.682-41.896-40.091-73.857-45.004-73.047c-20.56,3.391-27.261-7.389-20.952-12.433c6.245-4.993,11.614-5.864,11.72-5.881
				c-7.121,0.663-15.674,3.701-26.411,8.986c4.938,6.831,9.813,14.443,14.388,22.862c5.881-3.229,14.161-7.016,22.265-8.134
				c2.388-0.329,32.392,29.394,37.981,70.682c4.646,34.321-8.969,53.688-24.596,60.44c1.535,12.247,2.056,21.711,2.138,28.025
				c10.903-4.47,27.227-13.92,36.645-32.507C196.61,210.307,183.173,218.224,182.116,208.308z"/>
			<path style="fill:#4389DE;" d="M157.671,59.652c14.98,14.744,55.548,71.199,48.348,124.415
				c-1.47,10.862-10.88,10.815-9.028,0.531C198.842,174.314,209.472,128.961,157.671,59.652z"/>
		</g>
		<g>
			<g>
				<path style="fill:#114CA3;" d="M187.894,145.08c-5.589-41.287-35.593-71.011-37.981-70.682c0,0,24.577,25.059,29.565,70.682
					c2.791,25.532-11.342,37.995-18.895,42.415c1.139,6.538,2.03,12.563,2.715,18.025
					C178.925,198.768,192.54,179.401,187.894,145.08z"/>
				<path style="fill:#0D3B8C;" d="M163.298,205.995c-0.082,0-0.163-0.021-0.236-0.062c-0.13-0.074-0.217-0.205-0.236-0.353
					c-0.725-5.783-1.637-11.84-2.712-18.003c-0.034-0.195,0.057-0.392,0.228-0.492c20.275-11.866,19.41-35.111,18.662-41.954
					c-2.566-23.47-10.43-41.359-16.576-52.234c-6.661-11.787-12.795-18.104-12.856-18.166c-0.126-0.128-0.168-0.316-0.11-0.486
					c0.058-0.17,0.207-0.293,0.384-0.317c0.29-0.044,0.749,0.043,1.963,0.965c8.053,6.117,31.677,34.1,36.554,70.124
					c5.956,43.997-17.536,57.768-24.878,60.94C163.426,205.982,163.362,205.995,163.298,205.995z M161.107,187.737
					c1.014,5.841,1.881,11.586,2.582,17.089c7.761-3.555,29.451-17.453,23.734-59.682c-4.687-34.623-26.7-60.948-34.706-68.245
					c6.384,7.8,23.224,31.464,27.233,68.129c1.232,11.265-0.664,21.164-5.634,29.421
					C169.956,181.695,164.282,185.835,161.107,187.737z"/>
			</g>
			<path style="opacity:0.4;fill:#286FBC;" d="M187.894,145.08c-5.589-41.287-35.593-71.011-37.981-70.682
				c0,0,24.577,25.059,29.565,70.682c2.791,25.532-11.342,37.995-18.895,42.415c1.139,6.538,2.03,12.563,2.715,18.025
				C178.925,198.768,192.54,179.401,187.894,145.08z M183.659,177.857c-6.764,16.486-21.468,10.454-14.294,4.967
				c27.794-21.256,0-83.516,0-83.516C186.555,125.825,190.422,161.371,183.659,177.857z"/>
			<path style="opacity:0.4;fill:#3180B4;" d="M175.268,183.199c0,0,15.223-12.383,5.244-54.286
				C180.512,128.913,195.492,172.794,175.268,183.199z"/>
		</g>
		<g>
			<path style="opacity:0.5;fill:#B70909;" d="M161.257,246.752c-3.958,5.031-9.904,6.957-13.281,4.3
				c-3.377-2.656-2.906-8.889,1.052-13.92c3.958-5.031,9.904-6.957,13.281-4.3C165.685,235.488,165.215,241.721,161.257,246.752z"/>
			<path style="opacity:0.5;fill:#B70909;" d="M160.051,246.195c-2.904,3.692-7.268,5.105-9.746,3.156
				c-2.478-1.95-2.133-6.523,0.772-10.215c2.904-3.692,7.268-5.105,9.746-3.156C163.301,237.929,162.956,242.503,160.051,246.195z"
				/>
		</g>
		<g>
			<g>
				<g>
					<path style="fill:#494949;" d="M193.307,269.713c5.867-8.312-33.971-33.247-33.971-33.247
						c-6.316,1.485-9.162,5.444-8.309,12.048C151.026,248.514,187.439,278.025,193.307,269.713z"/>
					<path style="fill:#212121;" d="M189.88,271.662c-10.917,0-37.973-21.822-39.153-22.779c-0.095-0.077-0.156-0.187-0.172-0.308
						c-0.876-6.784,2.041-11.013,8.672-12.571c0.123-0.032,0.253-0.007,0.36,0.059c1.332,0.833,32.634,20.527,34.676,30.683
						c0.253,1.257,0.062,2.347-0.568,3.24l0,0c-0.632,0.895-1.595,1.439-2.863,1.614
						C190.531,271.643,190.213,271.662,189.88,271.662z M151.474,248.265c2.28,1.828,29.797,23.706,39.228,22.395
						c1.01-0.139,1.735-0.539,2.216-1.22l0,0c0.48-0.68,0.616-1.5,0.413-2.505c-1.887-9.39-31.557-28.361-34.08-29.959
						C153.289,238.442,150.743,242.137,151.474,248.265z"/>
				</g>
				<path style="opacity:0.5;fill:#494949;" d="M168.305,254.982c-22.131-13.047-8.969-18.516-8.969-18.516
					c-6.316,1.485-9.162,5.444-8.309,12.048c0,0,36.413,29.511,42.28,21.199c1.09-1.545,0.6-3.665-0.918-6.091
					C188.801,264.955,182.33,263.251,168.305,254.982z"/>
				<path style="fill:#494949;" d="M159.151,239.388c0,0,14.047,9.238,29.738,23.031
					C188.89,262.419,175.602,244.956,159.151,239.388z"/>
			</g>
			<g>
				<g>
					<path style="fill:#494949;" d="M279.774,483.983c-0.949,0-1.89-0.404-2.548-1.187c-3.954-4.707-38.456-21.558-84.028-7.038
						c-28.11,8.956-54.632,8.332-70.946-1.673c-6.41-3.93-10.405-8.936-11.249-14.095c-1.115-6.815,0.652-13.464,4.975-18.723
						c4.601-5.596,14.427-12.406,35.109-13.074c10.995-0.354,37.845-2.669,49.663-16.467c4.622-5.396,6.397-11.866,5.426-19.778
						c-0.798-6.507-3.685-11.496-8.826-15.251c-16.791-12.267-52.552-7.168-67.149-4.406c-2.246,0.425-4.535,0.869-6.849,1.319
						c-23.997,4.661-48.81,9.482-61.66,0.447c-4.339-3.051-6.982-7.466-7.855-13.125c-1.036-6.706,0.395-12.51,4.254-17.252
						c11.266-13.846,42.799-18.135,90.025-20.569c28.312-1.458,47.166-12.513,50.436-29.572c1.853-9.668-2.02-19.376-9.009-22.582
						c-1.669-0.766-2.401-2.741-1.636-4.41c0.766-1.668,2.742-2.402,4.409-1.635c9.691,4.446,15.18,17.291,12.767,29.878
						c-1.219,6.359-4.939,15.526-15.74,23.091c-9.986,6.993-23.741,10.986-40.884,11.87c-64.635,3.331-79.151,10.679-85.209,18.125
						c-2.658,3.267-3.587,7.205-2.84,12.04c0.596,3.856,2.266,6.701,5.109,8.699c10.535,7.408,34.991,2.657,56.567-1.535
						c2.324-0.452,4.624-0.898,6.882-1.326c19.187-3.629,54.094-7.733,72.307,5.57c6.614,4.832,10.484,11.497,11.504,19.813
						c1.194,9.733-1.154,18.115-6.977,24.913c-5.602,6.541-20.132,17.679-54.499,18.788c-18.195,0.587-26.459,6.117-30.187,10.65
						c-3.961,4.818-4.117,9.96-3.549,13.425c0.52,3.176,3.495,6.638,8.162,9.501c5.504,3.375,26.489,13.42,65.451,1.005
						c49.396-15.737,85.789,2.728,91.139,9.097c1.181,1.406,0.999,3.503-0.408,4.684
						C281.288,483.727,280.529,483.983,279.774,483.983z"/>
					<path style="fill:#212121;" d="M279.774,484.458c-1.126,0-2.188-0.494-2.912-1.356c-3.919-4.665-38.174-21.342-83.52-6.89
						c-28.241,8.999-54.909,8.355-71.338-1.721c-6.529-4.002-10.603-9.125-11.47-14.423c-1.137-6.952,0.666-13.736,5.077-19.101
						c4.663-5.671,14.6-12.574,35.461-13.247c10.932-0.353,37.622-2.646,49.317-16.301c4.53-5.289,6.269-11.638,5.316-19.412
						c-0.781-6.37-3.606-11.251-8.634-14.925c-16.641-12.156-52.244-7.07-66.781-4.322c-2.246,0.425-4.533,0.869-6.847,1.319
						c-24.102,4.681-49.01,9.518-62.024,0.369c-4.448-3.129-7.157-7.651-8.052-13.441c-1.057-6.845,0.408-12.774,4.355-17.624
						c11.376-13.982,43.012-18.303,90.368-20.743c28.079-1.446,46.768-12.357,49.994-29.186c1.813-9.459-1.945-18.943-8.741-22.062
						c-1.905-0.874-2.743-3.135-1.869-5.039c0.424-0.922,1.181-1.625,2.133-1.977c0.953-0.355,1.984-0.316,2.906,0.109
						c9.884,4.534,15.488,17.603,13.036,30.398c-1.235,6.445-5.002,15.734-15.935,23.391c-10.059,7.045-23.898,11.067-41.132,11.955
						c-64.451,3.321-78.876,10.59-84.865,17.951c-2.568,3.156-3.464,6.973-2.739,11.668c0.575,3.721,2.182,6.464,4.912,8.383
						c10.371,7.293,34.72,2.562,56.204-1.613c2.325-0.452,4.626-0.898,6.883-1.326c19.263-3.645,54.32-7.756,72.676,5.654
						c6.724,4.911,10.659,11.688,11.695,20.138c1.211,9.87-1.174,18.376-7.087,25.28c-5.653,6.6-20.296,17.839-54.844,18.954
						c-18.017,0.582-26.169,6.018-29.835,10.477c-3.849,4.681-3.999,9.678-3.447,13.047c0.497,3.038,3.391,6.382,7.941,9.173
						c5.46,3.348,26.288,13.311,65.058,0.956c49.628-15.809,86.254,2.823,91.647,9.245c1.348,1.604,1.138,4.006-0.466,5.353
						C281.533,484.141,280.665,484.458,279.774,484.458z M229.464,469.517c26.881,0,45.287,9.593,48.126,12.973
						c0.973,1.156,2.854,1.324,4.015,0.349c0.583-0.49,0.941-1.176,1.007-1.935c0.066-0.758-0.167-1.496-0.657-2.08
						c-5.307-6.318-41.459-24.617-90.631-8.95c-39.154,12.477-60.296,2.35-65.843-1.053c-4.786-2.935-7.841-6.517-8.383-9.828
						c-0.583-3.563-0.423-8.849,3.652-13.804c3.791-4.611,12.166-10.231,30.538-10.824c34.185-1.102,48.602-12.14,54.153-18.621
						c5.732-6.693,8.042-14.951,6.866-24.547c-1.003-8.179-4.81-14.735-11.313-19.487c-18.067-13.195-52.827-9.101-71.939-5.487
						c-2.256,0.428-4.555,0.874-6.879,1.326c-21.669,4.209-46.229,8.982-56.931,1.458c-2.953-2.076-4.688-5.026-5.305-9.016
						c-0.769-4.975,0.193-9.036,2.941-12.412c6.127-7.53,20.732-14.96,85.552-18.3c17.054-0.879,30.726-4.844,40.637-11.784
						c10.671-7.475,14.344-16.52,15.546-22.792c2.372-12.379-3.001-25-12.499-29.357c-0.692-0.316-1.465-0.348-2.179-0.082
						c-0.714,0.264-1.283,0.791-1.6,1.484c-0.655,1.428-0.026,3.124,1.402,3.78c7.182,3.294,11.17,13.227,9.278,23.102
						c-3.313,17.287-22.333,28.486-50.878,29.957c-47.096,2.427-78.526,6.685-89.681,20.394c-3.77,4.633-5.167,10.313-4.153,16.88
						c0.854,5.525,3.43,9.834,7.659,12.808c12.683,8.917,37.39,4.118,61.283-0.522c2.328-0.453,4.618-0.897,6.865-1.322
						c14.656-2.774,50.575-7.889,67.517,4.489c5.253,3.836,8.202,8.931,9.017,15.577c0.987,8.053-0.823,14.642-5.537,20.145
						c-11.941,13.942-38.95,16.277-50.008,16.633c-20.505,0.662-30.219,7.381-34.758,12.9c-4.236,5.152-5.966,11.666-4.873,18.344
						c0.821,5.022,4.738,9.911,11.028,13.768c16.197,9.933,42.571,10.541,70.553,1.624
						C206.267,471.096,218.563,469.517,229.464,469.517z"/>
				</g>
				<g>
					<path style="fill:#494949;" d="M125.729,468.417c-4.667-2.863-7.643-6.325-8.162-9.501c-0.107-0.653-0.188-1.367-0.223-2.126
						c-0.062,1.367,0.044,2.63,0.223,3.726c0.52,3.176,3.495,6.638,8.162,9.501c5.504,3.375,26.489,13.421,65.451,1.005
						c49.396-15.737,85.789,2.728,91.139,9.097c0.339,0.404,0.553,0.867,0.671,1.347c0.25-0.999,0.042-2.097-0.671-2.946
						c-5.35-6.37-41.743-24.835-91.139-9.097C152.217,481.838,131.233,471.792,125.729,468.417z"/>
					<path style="fill:#494949;" d="M201.274,371.327c-18.213-13.303-53.12-9.199-72.307-5.57c-2.257,0.428-4.557,0.874-6.882,1.326
						c-21.576,4.192-46.032,8.943-56.567,1.535c-2.842-1.998-4.513-4.844-5.109-8.699c-0.122-0.789-0.182-1.546-0.215-2.288
						c-0.058,1.23,0.003,2.519,0.215,3.888c0.596,3.856,2.266,6.701,5.109,8.699c10.535,7.408,34.991,2.657,56.567-1.535
						c2.324-0.452,4.624-0.898,6.882-1.326c19.187-3.629,54.094-7.733,72.307,5.57c6.614,4.832,10.484,11.497,11.504,19.813
						c0.169,1.378,0.259,2.725,0.286,4.048c0.043-1.829-0.048-3.71-0.286-5.648C211.758,382.824,207.888,376.159,201.274,371.327z"
						/>
					<path style="fill:#494949;" d="M151.088,429.794c10.995-0.354,37.845-2.669,49.663-16.467
						c3.982-4.648,5.845-10.097,5.666-16.575c-0.15,5.781-2.016,10.715-5.666,14.975c-11.818,13.798-38.668,16.113-49.663,16.467
						c-20.682,0.668-30.508,7.477-35.109,13.074c-3.64,4.427-5.46,9.84-5.281,15.508c0.18-5.082,1.985-9.9,5.281-13.908
						C120.58,437.271,130.406,430.462,151.088,429.794z"/>
					<path style="fill:#494949;" d="M187.907,268.149c0.766-1.668,2.742-2.402,4.409-1.635c7.858,3.605,12.951,12.733,13.311,22.767
						c0.153-10.651-5.038-20.571-13.311-24.367c-1.667-0.767-3.643-0.033-4.409,1.635c-0.325,0.708-0.366,1.466-0.195,2.169
						C187.761,268.526,187.821,268.335,187.907,268.149z"/>
					<path style="fill:#494949;" d="M58.091,345.281c11.266-13.846,42.799-18.135,90.025-20.569
						c28.312-1.458,47.166-12.513,50.436-29.572c0.368-1.919,0.501-3.837,0.438-5.708c-0.039,1.358-0.174,2.733-0.438,4.109
						c-3.269,17.058-22.124,28.113-50.436,29.572c-47.226,2.433-78.759,6.722-90.025,20.569c-3.199,3.931-4.724,8.596-4.563,13.896
						C53.693,352.934,55.218,348.812,58.091,345.281z"/>
				</g>
				<g>
					<path style="fill:#494949;" d="M192.323,314.432c-9.986,6.993-23.741,10.986-40.884,11.869
						c-64.635,3.331-79.15,10.679-85.209,18.125c-0.339,0.416-0.648,0.844-0.931,1.283c7.311-6.67,24.817-12.95,83.159-15.957
						c17.143-0.883,30.899-4.876,40.884-11.87c3.995-2.798,7.016-5.815,9.306-8.828
						C196.867,310.896,194.787,312.707,192.323,314.432z"/>
					<path style="fill:#494949;" d="M154.283,431.389c-18.195,0.587-26.459,6.117-30.187,10.65
						c-0.392,0.477-0.737,0.957-1.057,1.439c4.408-4.018,12.702-8.135,28.263-8.638c34.367-1.109,48.897-12.247,54.499-18.788
						c0.467-0.545,0.903-1.105,1.326-1.67C200.53,420.985,185.696,430.376,154.283,431.389z"/>
					<path style="fill:#494949;" d="M282.755,480.531c-0.949,0-1.89-0.404-2.548-1.186c-3.954-4.707-38.456-21.558-84.028-7.038
						c-28.11,8.956-54.632,8.332-70.946-1.673c-6.41-3.93-10.405-8.936-11.249-14.095c-1.025-6.266,0.392-12.389,3.987-17.422
						c-0.754,0.727-1.414,1.448-1.992,2.151c-4.324,5.258-6.091,11.908-4.975,18.723c0.844,5.159,4.839,10.165,11.249,14.095
						c16.313,10.005,42.835,10.629,70.946,1.673c45.573-14.52,80.074,2.331,84.028,7.038c0.658,0.783,1.599,1.187,2.548,1.187
						c0.755,0,1.514-0.256,2.137-0.779c0.825-0.693,1.216-1.701,1.17-2.7C282.973,480.514,282.864,480.531,282.755,480.531z"/>
					<path style="fill:#494949;" d="M189.542,270.959c6.989,3.206,10.862,12.914,9.009,22.582
						c-0.781,4.073-2.459,7.799-4.934,11.139c4.138-4.15,6.853-9.051,7.914-14.59c1.853-9.668-2.021-19.376-9.009-22.582
						c-1.168-0.536-1.863-1.666-1.921-2.867c-1.136,0.114-2.186,0.797-2.696,1.909C187.141,268.219,187.874,270.193,189.542,270.959
						z"/>
					<path style="fill:#494949;" d="M130.203,372.292c14.597-2.762,50.358-7.861,67.149,4.406c5.141,3.754,8.028,8.744,8.826,15.251
						c0.87,7.094-0.474,13.025-4.09,18.065c0.572-0.561,1.127-1.135,1.645-1.738c4.622-5.396,6.397-11.866,5.426-19.778
						c-0.798-6.507-3.685-11.496-8.826-15.251c-16.791-12.266-52.553-7.168-67.149-4.406c-2.247,0.425-4.535,0.869-6.849,1.319
						c-23.997,4.661-48.809,9.483-61.66,0.447c-4.339-3.051-6.982-7.466-7.856-13.125c-0.944-6.109,0.167-11.467,3.288-15.958
						c-0.727,0.694-1.407,1.409-2.015,2.158c-3.858,4.742-5.29,10.547-4.254,17.252c0.874,5.658,3.517,10.073,7.855,13.125
						c12.851,9.035,37.663,4.214,61.66-0.447C125.668,373.161,127.956,372.717,130.203,372.292z"/>
				</g>
			</g>
			<g>
				<g>
					<path style="fill:#5E5E5E;" d="M322.273,506.849c-7.46,10.498-17.146,16.424-21.633,13.235
						c-4.487-3.189-2.078-14.284,5.383-24.783c7.46-10.498,17.146-16.424,21.633-13.235
						C332.143,485.256,329.733,496.351,322.273,506.849z"/>
					<path style="fill:#212121;" d="M303.613,521.432c-1.234,0-2.333-0.31-3.248-0.96c-2.335-1.659-3.038-5.259-1.978-10.138
						c1.03-4.742,3.605-10.178,7.249-15.307c7.728-10.875,17.52-16.74,22.295-13.346c2.335,1.659,3.037,5.259,1.978,10.138
						c-1.03,4.742-3.604,10.177-7.248,15.307l0,0C316.413,515.915,308.816,521.432,303.613,521.432z M324.653,481.657
						c-4.823,0-12.246,5.48-18.243,13.921c-3.572,5.025-6.091,10.338-7.095,14.958c-0.974,4.483-0.405,7.737,1.6,9.162
						c4.266,3.027,13.674-2.855,20.97-13.124c3.572-5.026,6.091-10.338,7.095-14.958c0.974-4.483,0.406-7.737-1.6-9.162
						C326.621,481.915,325.698,481.657,324.653,481.657z M322.273,506.849h0.009H322.273z"/>
				</g>
				<path style="opacity:0.5;fill:#5E5E5E;" d="M328.238,482.594c2.606,2.973,0.651,10.907-4.702,18.438
					c-5.709,8.034-13.121,12.569-16.555,10.128c-3.434-2.44-1.59-10.931,4.119-18.965c5.709-8.034,13.121-12.569,16.555-10.128
					c-4.487-3.189-14.173,2.737-21.633,13.235c-7.46,10.498-9.87,21.594-5.383,24.783c4.487,3.189,14.173-2.737,21.633-13.235
					C329.376,496.853,331.886,486.332,328.238,482.594z"/>
				<g>
					<path style="fill:#494949;" d="M300.64,520.084c-4.487-3.189-2.078-14.284,5.383-24.783
						c7.443-10.475,17.1-16.394,21.601-13.253l0.003-0.004c0,0-37.832-26.278-50.745-4.078
						c-12.913,22.201,23.787,42.136,23.787,42.136l0.002-0.003C300.661,520.094,300.649,520.091,300.64,520.084z"/>
					<path style="fill:#212121;" d="M300.665,520.578c-0.077,0-0.154-0.018-0.225-0.057c-0.054-0.03-5.474-2.993-11.348-7.808
						c-5.442-4.461-12.405-11.477-14.67-19.56c-1.494-5.331-0.805-10.52,2.048-15.424c2.668-4.587,6.589-7.483,11.656-8.608
						c8.527-1.892,18.898,1.624,26.097,4.908c7.765,3.543,13.616,7.585,13.674,7.625c0.106,0.074,0.178,0.187,0.198,0.314
						c0.02,0.128-0.012,0.258-0.089,0.361c-0.154,0.205-0.446,0.252-0.655,0.109c-4.28-2.99-13.673,2.908-20.941,13.139
						c-3.572,5.025-6.091,10.338-7.095,14.958c-0.974,4.483-0.405,7.737,1.6,9.162l-0.004,0.006c0.092,0.08,0.175,0.2,0.19,0.312
						c0.018,0.132,0.019,0.289-0.066,0.391C300.941,520.518,300.804,520.578,300.665,520.578z M293.302,469.536
						c-1.709,0-3.376,0.159-4.972,0.514c-4.796,1.065-8.51,3.809-11.039,8.157c-2.718,4.674-3.376,9.617-1.954,14.691
						c3.392,12.108,17.729,21.998,23.317,25.463c-0.892-1.931-0.995-4.678-0.268-8.027c1.03-4.742,3.605-10.178,7.249-15.307
						c6.239-8.78,13.845-14.301,19.05-14.301c0.003,0,0.006,0,0.009,0C318.993,477.217,305.158,469.536,293.302,469.536z"/>
				</g>
				<g>
					<path style="fill:#A5A5A5;" d="M335.912,508.905c-0.614,0-1.236-0.17-1.791-0.525l-15.215-9.748
						c-1.546-0.991-1.996-3.048-1.006-4.593c0.991-1.546,3.046-1.996,4.594-1.007l15.214,9.748c1.547,0.991,1.997,3.048,1.007,4.593
						C338.08,508.364,337.006,508.905,335.912,508.905z"/>
					<path style="fill:#636363;" d="M335.911,509.379c-0.726,0-1.434-0.208-2.047-0.6l-15.215-9.748
						c-1.765-1.131-2.28-3.486-1.15-5.249c1.13-1.764,3.486-2.278,5.249-1.15l15.215,9.748c0.855,0.547,1.445,1.395,1.663,2.387
						c0.217,0.992,0.035,2.008-0.513,2.862C338.412,508.725,337.215,509.379,335.911,509.379z M320.705,492.983
						c-0.94,0-1.862,0.463-2.406,1.311c-0.847,1.323-0.461,3.089,0.863,3.937l15.215,9.748c0.46,0.294,0.99,0.45,1.534,0.45
						c0.978,0,1.876-0.491,2.403-1.313c0.41-0.641,0.547-1.404,0.384-2.147c-0.163-0.744-0.606-1.379-1.247-1.79l-15.214-9.748
						C321.762,493.128,321.23,492.983,320.705,492.983z"/>
				</g>
				<g>
					<path style="fill:#A5A5A5;" d="M328.304,521.338c-0.614,0-1.235-0.17-1.791-0.525l-15.215-9.748
						c-1.546-0.991-1.996-3.048-1.006-4.593c0.991-1.546,3.046-1.995,4.594-1.007l15.215,9.748c1.546,0.991,1.997,3.048,1.006,4.593
						C330.472,520.797,329.399,521.338,328.304,521.338z"/>
					<path style="fill:#636363;" d="M328.304,521.813c-0.725,0-1.432-0.208-2.047-0.6l-15.215-9.748
						c-1.765-1.131-2.28-3.486-1.15-5.249c1.129-1.762,3.484-2.278,5.249-1.151l15.215,9.749c0.855,0.547,1.445,1.395,1.663,2.387
						c0.217,0.992,0.035,2.008-0.513,2.862C330.804,521.159,329.607,521.813,328.304,521.813z M313.098,505.418
						c-0.94,0-1.862,0.463-2.406,1.31c-0.848,1.323-0.461,3.089,0.863,3.937l15.214,9.748c0.461,0.294,0.991,0.45,1.534,0.45
						c0.978,0,1.876-0.491,2.403-1.313c0.41-0.641,0.547-1.404,0.384-2.147c-0.163-0.744-0.606-1.38-1.247-1.791l-15.214-9.748
						C314.155,505.562,313.623,505.418,313.098,505.418z"/>
				</g>
				<path style="fill:#A5A5A5;" d="M337.662,506.923c-0.614,0-1.236-0.17-1.79-0.525l-15.215-9.748
					c-1.301-0.834-1.814-2.421-1.357-3.826c-0.554,0.257-1.046,0.662-1.4,1.214c-0.99,1.546-0.54,3.602,1.006,4.593l15.215,9.748
					c0.555,0.355,1.176,0.525,1.791,0.525c1.095,0,2.168-0.541,2.803-1.532c0.159-0.248,0.268-0.511,0.354-0.779
					C338.626,506.8,338.149,506.923,337.662,506.923z"/>
				<path style="fill:#A5A5A5;" d="M330.054,519.357c-0.614,0-1.235-0.17-1.79-0.525l-15.215-9.748
					c-1.301-0.834-1.814-2.421-1.357-3.825c-0.554,0.257-1.046,0.662-1.4,1.214c-0.99,1.546-0.54,3.602,1.006,4.593l15.215,9.748
					c0.556,0.355,1.177,0.525,1.791,0.525c1.096,0,2.168-0.541,2.803-1.532c0.159-0.248,0.268-0.512,0.354-0.78
					C331.019,519.233,330.542,519.357,330.054,519.357z"/>
				<path style="opacity:0.5;fill:#494949;" d="M276.881,477.968c-12.913,22.201,23.787,42.136,23.787,42.136l0.002-0.003
					c-0.009-0.007-0.021-0.01-0.03-0.016c-4.487-3.189-2.078-14.284,5.383-24.783c7.443-10.475,17.1-16.394,21.601-13.253
					l0.003-0.004C327.626,482.046,289.794,455.767,276.881,477.968z M299.337,502.225c-17.018-6.86-24.121-20.091-18.865-26.516
					c10.685-13.06,40.227,3.43,40.227,3.43C303.146,486.79,299.337,502.225,299.337,502.225z"/>
				<g>
					<path style="fill:#494949;" d="M314.119,478.532c-0.063-0.063-0.127-0.127-0.19-0.19c-0.152-0.106-0.32-0.166-0.505-0.178
						c-0.149-0.015-0.292,0.004-0.429,0.056c-0.154,0.033-0.293,0.099-0.419,0.198c-0.133,0.089-0.239,0.202-0.318,0.337
						c-0.092,0.115-0.154,0.245-0.186,0.391c-0.01,0.091-0.02,0.182-0.031,0.272c0.004,0.185,0.059,0.352,0.166,0.503l0.19,0.19
						c0.152,0.107,0.32,0.166,0.505,0.178c0.149,0.015,0.292-0.004,0.429-0.056c0.154-0.033,0.293-0.099,0.419-0.198
						c0.133-0.089,0.239-0.202,0.318-0.337c0.092-0.114,0.155-0.245,0.186-0.391c0.01-0.091,0.02-0.181,0.031-0.272
						C314.281,478.851,314.225,478.683,314.119,478.532z"/>
					<path style="fill:#494949;" d="M311.116,476.908c-1.08-0.876-2.563-1.417-3.844-1.941c-1.367-0.559-2.783-1.032-4.202-1.44
						c-2.865-0.823-5.842-1.113-8.818-0.976c-4.819,0.222-9.681,2.255-12.08,6.634c-0.145,0.264,0.235,0.414,0.398,0.207
						c2.974-3.768,7.772-5.472,12.48-5.122c2.508,0.186,5.003,1.07,7.337,1.966c1.168,0.448,2.298,0.973,3.44,1.484
						c1.192,0.534,2.425,1.231,3.704,1.505C310.752,479.487,312.412,477.958,311.116,476.908z"/>
				</g>
			</g>
		</g>
	</g>
</g>
</svg>
