<?xml version="1.0" encoding="utf-8"?>
<!-- Generator: Adobe Illustrator 27.5.0, SVG Export Plug-In . SVG Version: 6.00 Build 0)  -->
<svg version="1.1" id="Layer_1" xmlns="http://www.w3.org/2000/svg" xmlns:xlink="http://www.w3.org/1999/xlink" x="0px" y="0px"
	 viewBox="0 0 253.273 188.81" style="enable-background:new 0 0 253.273 188.81;" xml:space="preserve">
<g>
	<g>
		<path style="fill:#FFFDFD;" d="M110.141,184.09c1.217,0,2.424-0.181,3.519-0.514l124.427-37.049
			c5.213-1.533,8.855-6.399,8.855-11.915l-0.537-81.895c0-0.17-0.004-0.341-0.011-0.511c-0.091-5.311-3.607-10.023-8.655-11.563
			l-83.48-26.08c-1.745-0.535-3.546-0.677-5.352-0.422c-0.094,0.014-0.186,0.027-0.279,0.042L25.935,34.471
			c-5.4,0.9-9.605,5.328-10.221,10.715c-0.144,1.215-0.101,2.43,0.112,3.607v86.493c0,4.894,2.896,9.326,7.342,11.277l80.225,35.516
			C105.388,183.381,107.753,184.09,110.141,184.09z"/>
		<path style="fill:#F1EFEF;" d="M109.296,183.244c1.216,0,2.423-0.18,3.519-0.514l124.426-37.049
			c5.214-1.532,8.857-6.399,8.857-11.914l-0.537-81.895c0-0.17-0.007-0.341-0.012-0.511c-0.161-5.309-3.607-10.022-8.654-11.563
			l-83.479-26.082c-1.745-0.534-3.548-0.683-5.353-0.421c-0.094,0.013-0.186,0.028-0.279,0.043L25.09,33.625
			c-5.4,0.9-9.596,5.33-10.221,10.715c-0.143,1.216-0.102,2.431,0.112,3.608v86.492c0,4.893,2.896,9.327,7.341,11.276l80.225,35.517
			C104.543,182.535,106.907,183.244,109.296,183.244z"/>
		<path style="fill:#E2E0E0;" d="M108.449,182.398c1.218,0,2.424-0.181,3.52-0.513l124.427-37.05
			c5.214-1.531,8.855-6.398,8.855-11.914l-0.537-81.895c0-0.171-0.006-0.342-0.011-0.511c-0.162-5.31-3.607-10.022-8.655-11.563
			l-83.48-26.08c-1.744-0.536-3.548-0.684-5.352-0.423c-0.094,0.014-0.186,0.027-0.279,0.042L24.244,32.78
			c-5.4,0.9-9.595,5.329-10.221,10.714c-0.142,1.216-0.101,2.431,0.112,3.608v86.493c0,4.893,2.896,9.325,7.342,11.277
			l80.224,35.516C103.697,181.689,106.063,182.398,108.449,182.398z"/>
		<path style="fill:#D4D2D2;" d="M107.604,181.554c1.216,0,2.423-0.18,3.519-0.514l124.426-37.048
			c5.214-1.533,8.856-6.4,8.856-11.916l-0.536-81.896c0-0.169-0.007-0.339-0.012-0.51c-0.162-5.309-3.606-10.023-8.655-11.563
			l-83.48-26.08c-1.745-0.535-3.548-0.684-5.352-0.422c-0.094,0.014-0.188,0.028-0.279,0.043L23.398,31.935
			c-5.399,0.899-9.595,5.329-10.221,10.715c-0.141,1.216-0.101,2.431,0.112,3.608v86.492c0,4.896,2.896,9.328,7.341,11.278
			l80.225,35.516C102.853,180.845,105.217,181.554,107.604,181.554z"/>
		<path style="fill:#C5C4C4;" d="M106.759,180.708c1.217,0,2.424-0.181,3.519-0.513l124.426-37.05
			c5.214-1.532,8.857-6.399,8.857-11.914l-0.538-81.895c0-0.171-0.005-0.342-0.011-0.511c-0.161-5.31-3.607-10.023-8.654-11.563
			l-83.48-26.081c-1.745-0.536-3.548-0.684-5.352-0.423c-0.094,0.014-0.187,0.027-0.279,0.043L22.554,31.09
			c-5.4,0.9-9.595,5.329-10.222,10.714c-0.141,1.216-0.101,2.431,0.112,3.608v86.493c0,4.893,2.896,9.325,7.342,11.277
			l80.225,35.516C102.006,179.999,104.371,180.708,106.759,180.708z"/>
		<path style="fill:#B7B6B6;" d="M105.914,179.862c1.216,0,2.423-0.179,3.518-0.513l124.426-37.049
			c5.214-1.533,8.856-6.398,8.856-11.915l-0.537-81.896c0-0.17-0.006-0.339-0.011-0.51c-0.162-5.31-3.607-10.023-8.655-11.563
			l-83.48-26.08c-1.745-0.536-3.548-0.683-5.352-0.421c-0.094,0.013-0.187,0.027-0.279,0.042L21.708,30.244
			c-5.4,0.899-9.595,5.33-10.221,10.715c-0.141,1.216-0.102,2.431,0.112,3.607v86.492c0,4.895,2.896,9.328,7.341,11.278
			l80.226,35.515C101.161,179.154,103.526,179.862,105.914,179.862z"/>
		<path style="fill:#A8A7A7;" d="M105.068,179.018c1.217,0,2.424-0.18,3.52-0.514l124.426-37.049
			c5.214-1.532,8.856-6.399,8.856-11.915l-0.538-81.895c0-0.17-0.005-0.341-0.011-0.511c-0.161-5.309-3.606-10.022-8.654-11.563
			l-83.48-26.081c-1.745-0.535-3.548-0.683-5.352-0.422c-0.094,0.014-0.187,0.028-0.279,0.043L20.863,29.399
			c-5.4,0.9-9.595,5.33-10.221,10.715c-0.142,1.217-0.102,2.431,0.111,3.607v86.493c0,4.894,2.895,9.326,7.342,11.277l80.225,35.516
			C100.316,178.309,102.681,179.018,105.068,179.018z"/>
		<path style="fill:#9A9999;" d="M104.224,178.172c1.216,0,2.423-0.18,3.519-0.513l124.426-37.049
			c5.214-1.533,8.856-6.399,8.856-11.915l-0.537-81.895c0-0.169-0.006-0.341-0.011-0.511c-0.162-5.31-3.607-10.023-8.655-11.563
			l-83.48-26.08c-1.745-0.535-3.548-0.683-5.352-0.422c-0.094,0.014-0.187,0.027-0.279,0.042L20.018,28.554
			c-5.4,0.899-9.595,5.329-10.221,10.716c-0.141,1.215-0.102,2.43,0.112,3.606v86.493c0,4.893,2.896,9.326,7.341,11.277
			l80.226,35.516C99.471,177.463,101.836,178.172,104.224,178.172z"/>
		<path style="fill:#8B8B8B;" d="M103.379,177.327c1.216,0,2.423-0.181,3.519-0.513l124.426-37.05
			c5.214-1.532,8.856-6.399,8.856-11.915l-0.537-81.894c0-0.171-0.006-0.341-0.012-0.511c-0.161-5.31-3.606-10.023-8.654-11.563
			l-83.48-26.081c-1.745-0.535-3.548-0.683-5.353-0.422c-0.094,0.014-0.187,0.028-0.279,0.043L19.173,27.709
			c-5.4,0.899-9.595,5.329-10.221,10.714c-0.142,1.216-0.102,2.431,0.112,3.608v86.492c0,4.894,2.894,9.326,7.341,11.277
			l80.225,35.516C98.626,176.618,100.99,177.327,103.379,177.327z"/>
		<path style="fill:#7D7D7D;" d="M102.533,176.482c1.217,0,2.424-0.181,3.519-0.514l124.427-37.049
			c5.213-1.533,8.856-6.4,8.856-11.915l-0.537-81.895c0-0.17-0.006-0.34-0.011-0.511c-0.161-5.31-3.607-10.023-8.655-11.563
			l-83.48-26.08c-1.745-0.535-3.548-0.683-5.352-0.422c-0.094,0.014-0.187,0.027-0.279,0.042L18.327,26.863
			c-5.4,0.9-9.595,5.33-10.221,10.715c-0.141,1.216-0.101,2.43,0.112,3.607v86.493c0,4.894,2.895,9.326,7.342,11.277l80.225,35.516
			C97.78,175.773,100.146,176.482,102.533,176.482z"/>
		<path style="fill:#6E6E6E;" d="M101.688,175.637c1.216,0,2.423-0.18,3.519-0.514l124.426-37.049
			c5.214-1.532,8.856-6.399,8.856-11.914l-0.537-81.896c0-0.17-0.006-0.341-0.012-0.51c-0.161-5.31-3.606-10.023-8.654-11.564
			l-83.48-26.08c-1.745-0.536-3.548-0.684-5.352-0.423c-0.094,0.015-0.187,0.028-0.279,0.043L17.482,26.018
			c-5.4,0.9-9.595,5.33-10.221,10.715c-0.142,1.216-0.102,2.431,0.112,3.608v86.492c0,4.894,2.895,9.327,7.341,11.278l80.225,35.515
			C96.936,174.928,99.3,175.637,101.688,175.637z"/>
		<path style="fill:#606060;" d="M100.843,174.791c1.217,0,2.424-0.18,3.518-0.513l124.427-37.049
			c5.214-1.532,8.855-6.399,8.855-11.915l-0.537-81.895c0-0.17-0.003-0.341-0.011-0.511c-0.091-5.312-3.607-10.022-8.655-11.563
			l-83.479-26.08c-1.744-0.535-3.546-0.676-5.352-0.422c-0.094,0.014-0.187,0.027-0.279,0.043L16.637,25.173
			c-5.4,0.9-9.605,5.328-10.221,10.715c-0.144,1.215-0.101,2.431,0.112,3.607v86.493c0,4.894,2.896,9.326,7.342,11.277
			l80.225,35.516C96.09,174.083,98.455,174.791,100.843,174.791z"/>
	</g>
	<path style="fill:#FFFFFF;" d="M100.843,174.791c1.217,0,2.424-0.18,3.518-0.513l124.427-37.049
		c5.214-1.532,8.855-6.399,8.855-11.915l-0.537-81.895c0-0.17-0.003-0.341-0.011-0.511c-0.091-5.312-3.607-10.022-8.655-11.563
		l-83.479-26.08c-1.744-0.535-3.546-0.676-5.352-0.422c-0.094,0.014-0.187,0.027-0.279,0.043L16.637,25.173
		c-5.4,0.9-9.605,5.328-10.221,10.715c-0.144,1.215-0.101,2.431,0.112,3.607v86.493c0,4.894,2.896,9.326,7.342,11.277l80.225,35.516
		C96.09,174.083,98.455,174.791,100.843,174.791z"/>
	<g>
		<g>
			<g>
				<polygon style="fill:#AAAAAA;" points="18.863,37.426 18.863,125.988 100.633,162.186 100.633,71.903 				"/>
				<path style="fill:#878787;" d="M100.633,162.645c-0.063,0-0.127-0.012-0.185-0.039l-81.77-36.199
					c-0.168-0.073-0.274-0.238-0.274-0.419V37.427c0-0.154,0.077-0.298,0.206-0.383c0.127-0.088,0.289-0.1,0.433-0.04l81.769,34.477
					c0.171,0.072,0.281,0.238,0.281,0.423v90.283c0,0.155-0.079,0.3-0.209,0.386C100.808,162.621,100.721,162.645,100.633,162.645z
					 M19.322,125.688l80.851,35.793V72.209l-80.851-34.09V125.688z"/>
			</g>
			<g>
				<polygon style="fill:#F7F7F7;" points="141.342,17.057 18.664,37.341 100.434,71.818 100.633,71.903 224.763,43.118 				"/>
				<path style="fill:#878787;" d="M100.633,72.363c-0.061,0-0.123-0.014-0.18-0.036l-0.199-0.085L18.486,37.764
					c-0.188-0.079-0.302-0.274-0.277-0.477c0.023-0.203,0.179-0.366,0.38-0.399l122.678-20.284c0.073-0.011,0.144-0.005,0.213,0.017
					l83.42,26.063c0.198,0.059,0.329,0.246,0.322,0.454c-0.008,0.208-0.153,0.384-0.354,0.43L100.736,72.35
					C100.702,72.359,100.668,72.363,100.633,72.363z M20.308,37.533l80.365,33.889l122.339-28.369l-81.703-25.526L20.308,37.533z"/>
			</g>
		</g>
		<g>
			<g>
				<polygon style="fill:#D8D8D8;" points="225.309,125.396 100.842,162.457 100.643,72.208 224.772,43.422 				"/>
				<path style="fill:#878787;" d="M100.842,162.916c-0.098,0-0.193-0.03-0.274-0.092c-0.115-0.085-0.185-0.223-0.185-0.365
					l-0.2-90.248c-0.001-0.215,0.148-0.4,0.356-0.449l124.131-28.785c0.137-0.033,0.279,0,0.388,0.086
					c0.109,0.086,0.174,0.219,0.175,0.357l0.537,81.973c0,0.204-0.134,0.386-0.329,0.443l-124.467,37.061
					C100.93,162.91,100.887,162.916,100.842,162.916z M101.103,72.572l0.197,89.269l123.547-36.789l-0.53-81.051L101.103,72.572z"/>
			</g>
		</g>
		<g>
			<path style="opacity:0.6;fill:#454545;" d="M106.268,142.746c-0.007,3.91,2.279,6.424,5.097,5.619l85.155-24.294
				c2.589-0.738,4.674-4.355,4.657-8.081l-0.233-54.825c-0.015-3.696-2.114-6.165-4.692-5.518l-84.773,21.311
				c-2.805,0.704-5.095,4.417-5.102,8.293L106.268,142.746z"/>
			<path style="fill:#2B2B2B;" d="M107.276,141.441c-0.005,3.83,2.229,6.291,4.991,5.504l83.418-23.752
				c2.541-0.723,4.582-4.265,4.566-7.921l-0.224-53.733c-0.014-3.628-2.072-6.049-4.603-5.41l-83.052,20.888
				c-2.75,0.693-4.987,4.325-4.992,8.127L107.276,141.441z"/>
			<g>
				<g>
					<g>
						<g>
							<g>
								<path style="fill:#FFFFFF;" d="M195.216,74.27c-3.105,1.084-5.491,3.325-5.484,5.283l0.076,21.267
									c0.007,1.969,2.408,2.934,5.518,2.357L195.216,74.27z"/>
								<path style="fill:#878787;" d="M193.599,103.803c-1.366,0-2.517-0.33-3.289-0.969c-0.626-0.52-0.959-1.214-0.961-2.01
									l-0.077-21.271c-0.008-2.139,2.429-4.543,5.793-5.719c0.141-0.044,0.296-0.023,0.418,0.06
									c0.12,0.087,0.192,0.225,0.193,0.373l0.109,28.908c0.001,0.222-0.157,0.412-0.375,0.454
									C194.777,103.746,194.169,103.803,193.599,103.803z M194.76,74.933c-2.649,1.091-4.575,3.008-4.569,4.618l0.077,21.27
									c0.002,0.522,0.213,0.962,0.63,1.307c0.808,0.669,2.273,0.907,3.967,0.66L194.76,74.933z"/>
							</g>
						</g>
					</g>
				</g>
			</g>
		</g>
		<g>
			<g>
				<path style="fill:#FFFFFF;" d="M198.92,126.244c0,0.169-0.139,0.352-0.311,0.401l-77.677,22.972
					c-0.182,0.054-0.329-0.046-0.329-0.223l0,0c0-0.174,0.147-0.361,0.329-0.416l77.676-22.952
					C198.778,125.975,198.918,126.075,198.92,126.244L198.92,126.244z"/>
				<path style="fill:#878787;" d="M120.836,150.092c-0.152,0-0.299-0.048-0.42-0.137c-0.173-0.13-0.273-0.334-0.273-0.56
					c0-0.377,0.283-0.744,0.658-0.856l77.676-22.955c0.224-0.059,0.452-0.028,0.627,0.103c0.174,0.127,0.273,0.329,0.276,0.552
					v0.006c0,0.377-0.278,0.739-0.646,0.842l-77.671,22.971C120.986,150.08,120.91,150.092,120.836,150.092z"/>
			</g>
			<g>
				<path style="fill:#FFFFFF;" d="M198.924,127.485c0,0.169-0.139,0.349-0.311,0.399l-77.683,23.015
					c-0.183,0.055-0.33-0.046-0.33-0.221l0,0c0-0.175,0.148-0.36,0.332-0.415l77.678-22.993
					C198.783,127.219,198.921,127.316,198.924,127.485L198.924,127.485z"/>
				<path style="fill:#878787;" d="M120.834,151.375c-0.153,0-0.3-0.047-0.421-0.137c-0.173-0.129-0.273-0.334-0.273-0.561
					c0-0.377,0.285-0.745,0.663-0.855l77.677-22.992c0.225-0.068,0.455-0.033,0.63,0.1c0.171,0.126,0.27,0.326,0.273,0.547v0.008
					c0,0.374-0.276,0.734-0.643,0.842l-77.68,23.014C120.985,151.363,120.908,151.375,120.834,151.375z"/>
			</g>
			<g>
				<path style="fill:#FFFFFF;" d="M198.926,128.801c0.002,0.169-0.138,0.35-0.308,0.4l-77.688,23.061
					c-0.185,0.054-0.332-0.049-0.332-0.221l0,0c0-0.176,0.149-0.365,0.332-0.419l77.686-23.038
					C198.787,128.533,198.926,128.632,198.926,128.801L198.926,128.801z"/>
				<path style="fill:#878787;" d="M120.832,152.736c-0.152,0-0.298-0.046-0.419-0.137c-0.174-0.129-0.274-0.334-0.274-0.559
					c0-0.38,0.284-0.749,0.661-0.86l77.685-23.036c0.223-0.071,0.452-0.032,0.629,0.099c0.172,0.129,0.271,0.331,0.272,0.555
					c0.004,0.373-0.27,0.737-0.639,0.846l-77.687,23.058C120.985,152.724,120.907,152.736,120.832,152.736z M199.386,128.802h0.012
					H199.386z M198.487,128.762L198.487,128.762L198.487,128.762L198.487,128.762z"/>
			</g>
			<g>
				<path style="fill:#FFFFFF;" d="M198.932,130.041c0,0.17-0.14,0.35-0.31,0.402l-77.694,23.101
					c-0.182,0.054-0.329-0.044-0.329-0.222l0,0c0-0.176,0.148-0.361,0.332-0.415l77.691-23.081
					C198.791,129.774,198.932,129.873,198.932,130.041L198.932,130.041z"/>
				<path style="fill:#878787;" d="M120.829,154.019c-0.153,0-0.3-0.048-0.419-0.138c-0.173-0.129-0.272-0.334-0.272-0.56
					c0-0.377,0.285-0.744,0.663-0.855l77.689-23.079c0.223-0.072,0.452-0.033,0.629,0.099c0.172,0.129,0.271,0.332,0.271,0.556
					c0,0.37-0.273,0.733-0.638,0.842l-77.694,23.101C120.981,154.007,120.904,154.019,120.829,154.019z M198.754,130.266"/>
			</g>
		</g>
		<g>
			<g>
				<path style="fill:#444444;" d="M219.115,63.838c-0.029,3.818-3.134,7.617-6.936,8.483c-3.824,0.875-6.9-1.53-6.863-5.368
					c0.035-3.839,3.167-7.635,6.979-8.483C216.102,57.621,219.146,60.029,219.115,63.838z"/>
				<g>
					<g>
						<g>
							<path style="fill:#686868;" d="M218.397,63.762c-0.03,3.469-2.85,6.918-6.31,7.712c-3.472,0.788-6.269-1.395-6.236-4.881
								c0.033-3.49,2.878-6.939,6.346-7.715C215.654,58.105,218.426,60.297,218.397,63.762z"/>
							<path style="fill:#515151;" d="M210.33,71.714c-1.061-0.067-2.025-0.432-2.813-1.078c-1.147-0.943-1.77-2.383-1.754-4.05
								c0.033-3.515,2.908-7.012,6.41-7.796c1.739-0.389,3.357-0.055,4.558,0.934c1.146,0.943,1.768,2.379,1.753,4.043l-0.087-0.005
								l0.087,0.005c-0.029,3.499-2.888,6.994-6.372,7.794C211.499,71.699,210.902,71.749,210.33,71.714z M213.92,58.82
								c-0.544-0.035-1.113,0.012-1.698,0.143c-3.432,0.769-6.25,4.194-6.282,7.635c-0.016,1.611,0.583,2.997,1.684,3.903
								c1.163,0.957,2.741,1.269,4.439,0.888c3.414-0.783,6.217-4.209,6.245-7.633c0.014-1.609-0.584-2.993-1.684-3.898
								C215.871,59.235,214.942,58.884,213.92,58.82z"/>
						</g>
						<path style="fill:#444444;" d="M216.905,64.598c-0.023,2.644-2.173,5.271-4.807,5.873c-2.646,0.605-4.769-1.066-4.744-3.717
							c0.023-2.655,2.183-5.283,4.823-5.872C214.811,60.291,216.927,61.954,216.905,64.598z"/>
					</g>
					<g>
						<g>
							<polygon style="fill:#686868;" points="213.337,70.407 211.281,70.875 211.372,60.84 213.424,60.381 							"/>
							<path style="fill:#515151;" d="M211.191,70.985l0.002-0.116l0.091-10.103l0.064-0.013l2.166-0.484l-0.002,0.117
								l-0.086,10.093l-0.063,0.014L211.191,70.985z M211.461,60.912l-0.091,9.851l1.88-0.43l0.084-9.841L211.461,60.912z"/>
						</g>
					</g>
				</g>
			</g>
			<g>
				<polygon style="fill:#444444;" points="212.832,57.728 212.561,57.756 212.611,57.146 212.924,57.112 				"/>
				<polygon style="fill:#444444;" points="213.714,57.704 213.436,57.703 213.524,57.292 213.811,57.293 				"/>
				<polygon style="fill:#444444;" points="214.576,57.766 214.306,57.738 214.427,57.326 214.705,57.354 				"/>
				<path style="fill:#444444;" d="M215.412,57.903l-0.26-0.049l0.153-0.408c0,0,0.277,0.049,0.274,0.056L215.412,57.903z"/>
				<polygon style="fill:#444444;" points="216.201,58.141 215.959,58.052 216.153,57.65 216.406,57.75 				"/>
				<polygon style="fill:#444444;" points="216.943,58.468 216.718,58.349 217.061,57.775 217.305,57.904 				"/>
				<polygon style="fill:#444444;" points="217.616,58.889 217.41,58.743 217.676,58.383 217.895,58.538 				"/>
				<polygon style="fill:#444444;" points="218.206,59.413 218.027,59.237 218.333,58.907 218.518,59.095 				"/>
				<polygon style="fill:#444444;" points="218.697,60.033 218.551,59.826 218.89,59.529 219.04,59.752 				"/>
				<polygon style="fill:#444444;" points="219.083,60.738 218.975,60.508 219.335,60.254 219.455,60.503 				"/>
				<polygon style="fill:#444444;" points="219.365,61.516 219.293,61.259 219.863,60.945 219.939,61.228 				"/>
				<polygon style="fill:#444444;" points="219.545,62.35 219.515,62.07 219.906,61.906 219.939,62.195 				"/>
				<path style="fill:#444444;" d="M219.646,63.214c0.008,0-0.024-0.278-0.024-0.278l0.395-0.123c0,0,0.036,0.286,0.029,0.291
					L219.646,63.214z"/>
				<polygon style="fill:#444444;" points="219.654,64.115 219.65,63.83 220.051,63.74 220.054,64.036 				"/>
				<polygon style="fill:#444444;" points="219.577,65.032 219.604,64.742 220.003,64.69 219.977,64.987 				"/>
				<polygon style="fill:#444444;" points="219.42,65.949 219.477,65.656 220.065,65.64 220.003,65.952 				"/>
				<polygon style="fill:#444444;" points="219.161,66.862 219.251,66.572 219.633,66.608 219.537,66.914 				"/>
				<polygon style="fill:#444444;" points="218.804,67.759 218.923,67.474 219.284,67.562 219.156,67.863 				"/>
				<polygon style="fill:#444444;" points="218.34,68.619 218.489,68.352 218.826,68.494 218.664,68.781 				"/>
				<path style="fill:#444444;" d="M217.77,69.434c0.01,0.006,0.188-0.253,0.188-0.253l0.301,0.195c0,0-0.194,0.272-0.201,0.269
					L217.77,69.434z"/>
				<path style="fill:#444444;" d="M217.11,70.18c0,0,0.224-0.22,0.224-0.227l0.389,0.367c0.004,0.005-0.243,0.243-0.243,0.243
					L217.11,70.18z"/>
				<polygon style="fill:#444444;" points="216.377,70.854 216.619,70.648 216.837,70.937 216.582,71.152 				"/>
				<polygon style="fill:#444444;" points="215.589,71.454 215.841,71.271 216.016,71.587 215.749,71.783 				"/>
				<path style="fill:#444444;" d="M214.753,71.963c0,0.009,0.268-0.153,0.268-0.153l0.132,0.351c0,0-0.279,0.168-0.282,0.16
					L214.753,71.963z"/>
				<polygon style="fill:#444444;" points="213.884,72.389 214.16,72.265 214.252,72.638 213.961,72.762 				"/>
				<polygon style="fill:#444444;" points="212.993,72.728 213.279,72.629 213.352,73.212 213.048,73.316 				"/>
				<polygon style="fill:#444444;" points="212.099,72.968 212.385,72.906 212.389,73.306 212.09,73.373 				"/>
				<polygon style="fill:#444444;" points="211.207,73.114 211.486,73.074 211.449,73.491 211.152,73.523 				"/>
				<path style="fill:#444444;" d="M210.322,73.155l0.281-0.002l-0.084,0.415c0,0-0.295,0.01-0.295,0.005L210.322,73.155z"/>
				<polygon style="fill:#444444;" points="209.463,73.098 209.73,73.131 209.605,73.544 209.325,73.509 				"/>
				<polygon style="fill:#444444;" points="208.639,72.94 208.898,73 208.645,73.609 208.37,73.544 				"/>
				<path style="fill:#444444;" d="M207.872,72.669c-0.006,0.008,0.237,0.097,0.237,0.097l-0.216,0.395
					c0.003,0-0.255-0.097-0.25-0.102L207.872,72.669z"/>
				<polygon style="fill:#444444;" points="207.167,72.283 207.377,72.424 207.119,72.797 206.897,72.648 				"/>
				<polygon style="fill:#444444;" points="206.544,71.795 206.729,71.963 206.434,72.31 206.236,72.132 				"/>
				<polygon style="fill:#444444;" points="206.009,71.21 206.172,71.401 205.842,71.714 205.67,71.503 				"/>
				<path style="fill:#444444;" d="M205.58,70.529c-0.007,0.004,0.132,0.216,0.132,0.216l-0.539,0.403c0,0-0.151-0.236-0.143-0.24
					L205.58,70.529z"/>
				<path style="fill:#444444;" d="M205.262,69.764c0,0,0.018,0.064,0.039,0.128c0.026,0.057,0.056,0.119,0.056,0.119l-0.382,0.227
					c0,0-0.027-0.066-0.055-0.13c-0.029-0.063-0.044-0.132-0.044-0.132L205.262,69.764z"/>
				<path style="fill:#444444;" d="M205.041,68.943c-0.007,0.004,0.055,0.268,0.061,0.264l-0.391,0.188
					c-0.013,0.003-0.073-0.278-0.065-0.282L205.041,68.943z"/>
				<path style="fill:#444444;" d="M204.912,68.075c-0.007,0.007,0.035,0.278,0.035,0.278l-0.401,0.147c0,0-0.044-0.286-0.034-0.292
					L204.912,68.075z"/>
				<polygon style="fill:#444444;" points="204.869,67.185 204.88,67.468 204.479,67.574 204.462,67.281 				"/>
			</g>
		</g>
		<g>
			<g>
				<path style="fill:#444444;" d="M219.115,83.962c-0.029,3.816-3.134,7.616-6.936,8.483c-3.824,0.873-6.9-1.53-6.863-5.369
					c0.035-3.838,3.167-7.635,6.979-8.483C216.102,77.744,219.146,80.152,219.115,83.962z"/>
				<g>
					<g>
						<g>
							<path style="fill:#686868;" d="M218.397,83.884c-0.03,3.469-2.85,6.919-6.31,7.713c-3.472,0.788-6.269-1.394-6.236-4.882
								c0.033-3.49,2.878-6.939,6.346-7.714C215.654,78.229,218.426,80.42,218.397,83.884z"/>
							<path style="fill:#515151;" d="M210.33,91.836c-1.061-0.066-2.025-0.43-2.813-1.078c-1.147-0.943-1.77-2.382-1.754-4.049
								c0.033-3.516,2.908-7.012,6.41-7.795c1.739-0.39,3.357-0.056,4.558,0.932c1.146,0.944,1.768,2.38,1.753,4.044l-0.087-0.006
								l0.087,0.006c-0.029,3.499-2.888,6.994-6.372,7.794C211.499,91.822,210.902,91.873,210.33,91.836z M213.92,78.943
								c-0.544-0.034-1.113,0.012-1.698,0.143c-3.432,0.769-6.25,4.193-6.282,7.634c-0.016,1.612,0.583,2.999,1.684,3.905
								c1.163,0.956,2.741,1.267,4.439,0.887c3.414-0.783,6.217-4.208,6.245-7.634c0.014-1.608-0.584-2.993-1.684-3.896
								C215.871,79.359,214.942,79.008,213.92,78.943z"/>
						</g>
						<path style="fill:#444444;" d="M216.905,84.721c-0.023,2.644-2.173,5.271-4.807,5.873c-2.646,0.606-4.769-1.066-4.744-3.717
							c0.023-2.655,2.183-5.283,4.823-5.873C214.811,80.415,216.927,82.076,216.905,84.721z"/>
					</g>
					<g>
						<g>
							<polygon style="fill:#686868;" points="213.337,90.53 211.281,90.998 211.372,80.963 213.424,80.504 							"/>
							<path style="fill:#515151;" d="M211.191,91.109l0.002-0.117l0.091-10.104l0.064-0.013l2.166-0.483l-0.002,0.117
								l-0.086,10.093l-0.063,0.013L211.191,91.109z M211.461,81.035l-0.091,9.852l1.88-0.43l0.084-9.841L211.461,81.035z"/>
						</g>
					</g>
				</g>
			</g>
			<g>
				<polygon style="fill:#444444;" points="212.832,77.851 212.561,77.879 212.611,77.27 212.924,77.235 				"/>
				<polygon style="fill:#444444;" points="213.714,77.827 213.436,77.826 213.524,77.414 213.811,77.416 				"/>
				<polygon style="fill:#444444;" points="214.576,77.889 214.306,77.861 214.427,77.449 214.705,77.476 				"/>
				<path style="fill:#444444;" d="M215.412,78.026c0-0.004-0.26-0.049-0.26-0.049l0.153-0.408c0,0,0.277,0.049,0.274,0.056
					L215.412,78.026z"/>
				<polygon style="fill:#444444;" points="216.201,78.264 215.959,78.175 216.153,77.773 216.406,77.873 				"/>
				<polygon style="fill:#444444;" points="216.943,78.59 216.718,78.472 217.061,77.898 217.305,78.027 				"/>
				<polygon style="fill:#444444;" points="217.616,79.012 217.41,78.866 217.676,78.506 217.895,78.662 				"/>
				<polygon style="fill:#444444;" points="218.206,79.536 218.027,79.36 218.333,79.031 218.518,79.219 				"/>
				<polygon style="fill:#444444;" points="218.697,80.156 218.551,79.948 218.89,79.652 219.04,79.874 				"/>
				<polygon style="fill:#444444;" points="219.083,80.862 218.975,80.63 219.335,80.377 219.455,80.625 				"/>
				<polygon style="fill:#444444;" points="219.365,81.639 219.293,81.383 219.863,81.069 219.939,81.35 				"/>
				<polygon style="fill:#444444;" points="219.545,82.472 219.515,82.194 219.906,82.029 219.939,82.317 				"/>
				<path style="fill:#444444;" d="M219.646,83.336c0.008,0-0.024-0.277-0.024-0.277l0.395-0.123c0,0,0.036,0.287,0.029,0.291
					L219.646,83.336z"/>
				<polygon style="fill:#444444;" points="219.654,84.238 219.65,83.952 220.051,83.864 220.054,84.159 				"/>
				<polygon style="fill:#444444;" points="219.577,85.154 219.604,84.865 220.003,84.813 219.977,85.111 				"/>
				<polygon style="fill:#444444;" points="219.42,86.071 219.477,85.78 220.065,85.764 220.003,86.075 				"/>
				<polygon style="fill:#444444;" points="219.161,86.985 219.251,86.695 219.633,86.732 219.537,87.036 				"/>
				<polygon style="fill:#444444;" points="218.804,87.881 218.923,87.597 219.284,87.684 219.156,87.986 				"/>
				<polygon style="fill:#444444;" points="218.34,88.742 218.489,88.475 218.826,88.617 218.664,88.904 				"/>
				<path style="fill:#444444;" d="M217.77,89.557c0.01,0.006,0.188-0.253,0.188-0.253l0.301,0.194c0,0-0.194,0.273-0.201,0.271
					L217.77,89.557z"/>
				<path style="fill:#444444;" d="M217.11,90.302l0.224-0.227l0.389,0.368c0.004,0.005-0.243,0.244-0.243,0.244L217.11,90.302z"/>
				<polygon style="fill:#444444;" points="216.377,90.977 216.619,90.772 216.837,91.06 216.582,91.275 				"/>
				<polygon style="fill:#444444;" points="215.589,91.576 215.841,91.393 216.016,91.71 215.749,91.906 				"/>
				<path style="fill:#444444;" d="M214.753,92.085l0.268-0.152l0.132,0.351c0,0-0.279,0.167-0.282,0.16L214.753,92.085z"/>
				<polygon style="fill:#444444;" points="213.884,92.512 214.16,92.389 214.252,92.762 213.961,92.886 				"/>
				<polygon style="fill:#444444;" points="212.993,92.851 213.279,92.753 213.352,93.334 213.048,93.44 				"/>
				<path style="fill:#444444;" d="M212.099,93.091l0.286-0.062l0.004,0.4c0,0.006-0.299,0.066-0.299,0.066L212.099,93.091z"/>
				<polygon style="fill:#444444;" points="211.207,93.237 211.486,93.197 211.449,93.613 211.152,93.646 				"/>
				<polygon style="fill:#444444;" points="210.322,93.279 210.604,93.276 210.52,93.691 210.225,93.695 				"/>
				<polygon style="fill:#444444;" points="209.463,93.222 209.73,93.254 209.605,93.668 209.325,93.631 				"/>
				<polygon style="fill:#444444;" points="208.639,93.063 208.898,93.122 208.645,93.731 208.37,93.667 				"/>
				<path style="fill:#444444;" d="M207.872,92.792c-0.006,0.007,0.237,0.097,0.237,0.097l-0.216,0.395
					c0.003,0-0.255-0.096-0.25-0.102L207.872,92.792z"/>
				<polygon style="fill:#444444;" points="207.167,92.406 207.377,92.548 207.119,92.92 206.897,92.771 				"/>
				<polygon style="fill:#444444;" points="206.544,91.918 206.729,92.087 206.434,92.432 206.236,92.255 				"/>
				<polygon style="fill:#444444;" points="206.009,91.334 206.172,91.524 205.842,91.837 205.67,91.627 				"/>
				<path style="fill:#444444;" d="M205.58,90.651c-0.007,0.005,0.132,0.218,0.132,0.218l-0.539,0.403c0,0-0.151-0.237-0.143-0.241
					L205.58,90.651z"/>
				<path style="fill:#444444;" d="M205.262,89.887c0,0,0.018,0.064,0.039,0.127c0.026,0.059,0.056,0.119,0.056,0.119l-0.382,0.229
					c0,0-0.027-0.066-0.055-0.13c-0.029-0.064-0.044-0.132-0.044-0.132L205.262,89.887z"/>
				<path style="fill:#444444;" d="M205.041,89.066c-0.007,0.004,0.055,0.267,0.061,0.264l-0.391,0.187
					c-0.013,0.004-0.073-0.278-0.065-0.282L205.041,89.066z"/>
				<path style="fill:#444444;" d="M204.912,88.199c-0.007,0.007,0.035,0.277,0.035,0.277l-0.401,0.146c0,0-0.044-0.286-0.034-0.292
					L204.912,88.199z"/>
				<polygon style="fill:#444444;" points="204.869,87.309 204.88,87.59 204.479,87.697 204.462,87.403 				"/>
			</g>
		</g>
	</g>
</g>
</svg>
